<?xml version="1.0" encoding="UTF-8"?><svg id="Layer_1" xmlns="http://www.w3.org/2000/svg" xmlns:xlink="http://www.w3.org/1999/xlink" viewBox="0 0 206.8 190"><defs><style>.cls-1{fill:#fff;}.cls-2{fill:#07aa82;}.cls-3{stroke:#58595b;stroke-miterlimit:10;stroke-width:2px;}.cls-3,.cls-4{fill:none;}.cls-5{clip-path:url(#clippath);}.cls-6{fill:#241f21;}.cls-7{fill:#ececec;}</style><clipPath id="clippath"><rect class="cls-4" width="206.8" height="190"/></clipPath></defs><g id="_111"><g id="Group_232"><g id="Group_228"><g class="cls-5"><g id="Group_227"><path id="Path_207" class="cls-2" d="m5,0S0,0,0,5v180s0,5,5,5h196.8s5,0,5-5V5s0-5-5-5H5Z"/><path id="Path_208" class="cls-7" d="m75.2,33.2s-5,0-5,5v49c0,4.4,2.4,8,5.4,8h55.5c3,0,5.4-3.6,5.4-8v-49s0-5-5-5h-56.3Z"/><path id="Path_209" class="cls-3" d="m115.9,65.3l-7.5-.7c-.5,0-.94-.33-1.1-.8l-2.7-6.5c-.25-.66-1-.99-1.66-.74-.34.13-.61.4-.74.74l-2.7,6.5c-.16.47-.6.8-1.1.8l-7.5.7c-.72.08-1.24.72-1.16,1.44.04.33.2.64.46.86l5.7,5c.38.32.53.83.4,1.3l-1.7,7c-.18.68.23,1.37.9,1.55.34.09.7.03,1-.15l6.3-3.7c.41-.2.89-.2,1.3,0l6.3,3.7c.59.37,1.38.19,1.75-.4.19-.3.24-.66.15-1l-1.7-7c-.12-.47.03-.98.4-1.3l5.7-5c.53-.53.52-1.39,0-1.92-.21-.21-.49-.35-.79-.38Z"/><path id="Path_210" class="cls-6" d="m135.2,45.3v44.5c0,2.21-1.79,3.99-4,4h-55.6c-2.21,0-3.99-1.79-4-4v-51.3c0-2.21,1.79-3.99,4-4h5.9v2.5c0,.72.58,1.3,1.3,1.3.72,0,1.3-.58,1.3-1.3h0v-2.6h11v2.6c0,.72.58,1.3,1.3,1.3.72,0,1.3-.58,1.3-1.3h0v-2.6h10.9v2.6c0,.72.58,1.3,1.3,1.3.72,0,1.3-.58,1.3-1.3h0v-2.6h11v2.6c0,.72.58,1.3,1.3,1.3.72,0,1.3-.58,1.3-1.3v-2.6h5.9c2.21,0,3.99,1.79,4,4v6.9h.5Zm-4-13.6h-5.9v-2.8c0-.72-.58-1.3-1.3-1.3-.72,0-1.3.58-1.3,1.3v2.8h-11v-2.8c0-.72-.58-1.3-1.3-1.3-.72,0-1.3.58-1.3,1.3h0v2.8h-11.2v-2.8c0-.72-.58-1.3-1.3-1.3-.72,0-1.3.58-1.3,1.3h0v2.8h-11v-2.8c0-.72-.58-1.3-1.3-1.3-.72,0-1.3.58-1.3,1.3v2.8h-5.9c-3.7,0-6.7,3-6.7,6.7v51.3c0,3.7,3,6.7,6.7,6.7h55.5c3.7,0,6.7-3,6.7-6.7v-51.3c-.08-3.7-3.09-6.67-6.8-6.7"/></g></g></g><rect id="Rectangle_151" class="cls-6" x="71.6" y="46.5" width="63.6" height="2.5"/></g><path id="Path_213" class="cls-1" d="m22.07,123.04c.05,1.18-.47,2.31-1.39,3.05-1.13.81-2.49,1.2-3.88,1.12-1.4.03-2.78-.27-4.04-.86v-2.81c.79.37,1.61.67,2.45.91.6.17,1.21.25,1.83.26.54.03,1.07-.1,1.53-.38.36-.26.56-.69.53-1.13,0-.27-.08-.53-.23-.75-.19-.25-.42-.46-.69-.63-.6-.36-1.22-.68-1.85-.97-.7-.31-1.36-.7-1.96-1.18-.43-.37-.78-.82-1.04-1.32-.27-.55-.4-1.15-.39-1.76-.06-1.14.42-2.24,1.28-2.98,1.02-.77,2.28-1.16,3.55-1.08.72,0,1.43.09,2.12.26.72.19,1.43.44,2.12.74l-.98,2.35c-.61-.26-1.25-.48-1.89-.65-.48-.12-.97-.18-1.47-.19-.47-.03-.94.11-1.32.4-.3.26-.47.65-.46,1.05,0,.25.06.49.19.7.16.23.36.43.59.58.62.37,1.26.7,1.92,1,1.05.43,1.98,1.08,2.74,1.92.51.68.77,1.51.74,2.36Zm8.35,4.16c-1.17.05-2.3-.47-3.02-1.4h-.16c.1.91.16,1.44.16,1.58v4.42h-2.98v-15.72h2.42l.42,1.42h.14c.66-1.06,1.85-1.68,3.1-1.62,1.2-.05,2.34.52,3.03,1.49.8,1.23,1.18,2.69,1.09,4.15.02,1.04-.16,2.07-.52,3.04-.28.78-.79,1.47-1.46,1.96-.65.46-1.43.69-2.22.68Zm-.88-8.94c-.62-.05-1.22.2-1.61.68-.4.68-.58,1.46-.53,2.24v.32c-.07.87.11,1.75.52,2.52.38.52,1.01.81,1.65.76,1.33,0,2-1.1,2-3.3.05-.84-.12-1.67-.49-2.42-.33-.54-.92-.85-1.55-.81h0Zm12.06-.26c-.56-.03-1.1.19-1.48.6-.39.48-.61,1.08-.62,1.7h4.18c.03-.62-.18-1.23-.58-1.7-.39-.41-.94-.63-1.5-.6Zm.42,9.2c-1.51.09-3-.44-4.12-1.46-1.04-1.11-1.58-2.6-1.48-4.12-.1-1.54.39-3.05,1.37-4.24.99-1.03,2.37-1.58,3.79-1.5,1.33-.08,2.63.4,3.6,1.32.9.99,1.37,2.3,1.29,3.64v1.45h-7.04c-.01.73.26,1.44.75,1.98.53.5,1.25.76,1.97.71.63,0,1.25-.07,1.87-.2.63-.15,1.25-.37,1.84-.65v2.3c-.53.26-1.09.46-1.67.58-.71.14-1.44.21-2.17.2h0Zm11.31,0c-3.4,0-5.1-1.87-5.1-5.6-.11-1.54.39-3.07,1.39-4.25,1.06-1.03,2.5-1.57,3.97-1.47,1.18-.02,2.34.23,3.4.74l-.88,2.3c-.47-.19-.9-.34-1.31-.46-.39-.12-.8-.18-1.21-.18-1.55,0-2.32,1.1-2.32,3.3s.77,3.2,2.32,3.2c.54,0,1.08-.07,1.59-.23.52-.17,1.01-.41,1.47-.72v2.56c-.45.29-.94.51-1.46.63-.61.13-1.24.19-1.86.18h0Zm5.72-13.94c0-.97.54-1.45,1.62-1.45,1.08,0,1.62.48,1.62,1.45.02.4-.12.79-.4,1.08-.34.28-.78.42-1.22.39-1.08,0-1.62-.49-1.62-1.47h0Zm3.1,13.74h-2.98v-10.92h2.98v10.92Zm10.06,0l-.58-1.48h-.08c-.41.55-.94,1-1.55,1.31-.66.27-1.36.4-2.08.37-.91.05-1.81-.28-2.48-.9-.64-.69-.96-1.62-.9-2.56-.07-1.01.39-1.98,1.22-2.56,1.12-.63,2.38-.95,3.67-.91l1.9-.06v-.48c.11-.81-.47-1.56-1.28-1.67-.14-.02-.28-.02-.42,0-1.07.05-2.12.32-3.08.79l-.99-2.01c1.29-.67,2.73-1,4.18-.99,1.2-.08,2.39.26,3.37.96.82.73,1.26,1.81,1.17,2.91v7.27h-2.08Zm-.88-5.06l-1.15.04c-.68-.02-1.34.14-1.93.47-.43.29-.67.79-.63,1.31,0,.84.48,1.26,1.44,1.26.61.03,1.21-.19,1.65-.6.42-.42.65-.99.62-1.58v-.89Zm9,5.06h-2.98v-15.2h2.98v15.2Zm6.1,0h-2.98v-15.2h2.98v15.2Zm1.57-10.92h3.26l2.06,6.14c.19.62.31,1.25.36,1.89h.06c.07-.65.21-1.28.42-1.89l2.02-6.14h3.19l-4.61,12.32c-.33,1.01-.97,1.9-1.81,2.55-.8.57-1.77.87-2.75.85-.51,0-1.02-.06-1.51-.17v-2.36c.38.09.78.13,1.17.13.5,0,.99-.16,1.38-.48.44-.39.76-.9.92-1.46l.18-.54-4.34-10.84Zm30.22,3.64c.13,2-.6,3.97-2.01,5.4-1.62,1.35-3.69,2.02-5.8,1.88h-4.04v-14.28h4.48c1.98-.12,3.93.54,5.43,1.85,1.34,1.37,2.05,3.24,1.93,5.16Zm-3.14.08c0-3.07-1.35-4.6-4.06-4.6h-1.61v9.3h1.3c2.92,0,4.37-1.57,4.37-4.7Zm10.39-1.8c-.56-.03-1.1.19-1.48.6-.39.48-.61,1.08-.61,1.7h4.18c.03-.62-.18-1.22-.58-1.7-.39-.41-.94-.63-1.51-.6Zm.42,9.2c-1.51.09-3-.44-4.12-1.46-1.04-1.11-1.58-2.6-1.48-4.12-.1-1.54.39-3.05,1.37-4.24.99-1.03,2.37-1.58,3.79-1.5,1.33-.08,2.63.4,3.6,1.32.9.99,1.37,2.3,1.29,3.64v1.45h-7.04c-.01.73.26,1.44.75,1.98.53.5,1.25.76,1.97.71.63,0,1.25-.07,1.86-.2.63-.15,1.25-.37,1.84-.65v2.3c-.53.26-1.09.46-1.67.58-.71.14-1.44.21-2.17.2Zm14.49-3.44c.06.99-.38,1.95-1.17,2.56-1.04.66-2.26.97-3.49.88-.68,0-1.36-.05-2.03-.17-.54-.1-1.07-.26-1.57-.47v-2.46c.6.28,1.23.5,1.87.65.6.16,1.21.25,1.83.26,1.08,0,1.62-.31,1.62-.94,0-.21-.07-.42-.22-.57-.22-.2-.47-.37-.74-.5-.35-.19-.82-.4-1.41-.65-.65-.25-1.27-.58-1.85-.98-.37-.27-.66-.62-.86-1.03-.19-.45-.28-.94-.26-1.43-.04-.89.39-1.75,1.13-2.25.96-.59,2.08-.87,3.2-.8,1.33,0,2.64.3,3.84.86l-.9,2.15c-.55-.23-1.06-.43-1.53-.58-.47-.15-.96-.23-1.46-.23-.88,0-1.32.24-1.32.71.01.29.17.55.42.69.59.34,1.22.64,1.86.87.66.24,1.29.57,1.88.97.37.27.67.62.88,1.03.2.44.29.92.28,1.4Zm2.2-10.5c0-.97.54-1.46,1.62-1.45,1.08,0,1.62.48,1.62,1.45.02.4-.12.79-.4,1.08-.34.28-.78.42-1.22.39-1.08,0-1.62-.49-1.62-1.46h0Zm3.1,13.74h-2.98v-10.92h2.98v10.92Zm12.63-10.92v1.52l-1.71.43c.31.49.48,1.06.47,1.64.05,1.06-.4,2.07-1.23,2.74-.99.71-2.19,1.05-3.4.98l-.54-.03-.44-.05c-.27.17-.44.46-.46.78,0,.43.55.64,1.64.64h1.86c.97-.07,1.94.21,2.74.77.65.57,1,1.4.94,2.27.04,1.21-.57,2.34-1.6,2.97-1.39.78-2.98,1.15-4.58,1.05-1.22.07-2.43-.2-3.49-.8-.77-.47-1.23-1.32-1.21-2.22-.02-.61.2-1.2.62-1.65.49-.49,1.12-.82,1.81-.95-.32-.14-.59-.36-.8-.64-.22-.27-.34-.6-.34-.94-.01-.38.12-.75.36-1.04.3-.33.66-.6,1.04-.82-.57-.24-1.05-.66-1.36-1.19-.34-.59-.52-1.26-.5-1.93-.06-1.05.37-2.07,1.16-2.76.96-.71,2.13-1.05,3.32-.98.36,0,.73.03,1.09.08.42.06.69.1.81.12h3.81Zm-8.43,12.46c0,.41.23.78.59.97.51.26,1.08.38,1.65.35.86.04,1.72-.11,2.51-.44.52-.18.88-.65.91-1.2.03-.37-.19-.71-.54-.85-.53-.18-1.1-.26-1.66-.23h-1.55c-.49-.02-.97.12-1.37.39-.35.22-.55.61-.55,1.02Zm1.08-8.89c-.03.5.12,1,.4,1.41.3.36.76.55,1.23.52.47.04.93-.15,1.23-.52.28-.41.42-.91.39-1.41,0-1.32-.54-1.97-1.62-1.97-1.09,0-1.64.66-1.64,1.97Zm19.22,7.34h-2.98v-6.38c.04-.62-.1-1.24-.42-1.77-.32-.41-.82-.63-1.34-.59-.71-.06-1.39.26-1.81.84-.44.85-.63,1.81-.56,2.77v5.14h-2.98v-10.92h2.28l.4,1.4h.17c.33-.53.81-.94,1.37-1.2.62-.28,1.3-.42,1.99-.4,1.07-.08,2.11.3,2.89,1.03.71.82,1.06,1.89.99,2.97v7.12Zm7.59-9c-.56-.03-1.1.19-1.48.6-.39.48-.61,1.08-.61,1.7h4.18c.03-.62-.18-1.22-.58-1.7-.39-.41-.94-.63-1.51-.6Zm.42,9.2c-1.51.09-3-.44-4.12-1.46-1.04-1.11-1.58-2.6-1.48-4.12-.1-1.54.39-3.05,1.37-4.24.99-1.03,2.37-1.58,3.79-1.5,1.33-.08,2.63.4,3.6,1.32.9.99,1.37,2.3,1.29,3.64v1.45h-7.04c-.01.73.26,1.44.75,1.98.53.5,1.25.76,1.97.71.63,0,1.25-.07,1.86-.2.63-.15,1.25-.37,1.84-.65v2.3c-.53.26-1.09.46-1.67.58-.71.14-1.44.21-2.17.2h0Zm10.33,0c-1.2.04-2.33-.52-3.02-1.5-.8-1.23-1.18-2.68-1.1-4.14-.09-1.48.3-2.95,1.12-4.18.71-.98,1.87-1.55,3.08-1.5,1.26-.06,2.45.55,3.14,1.6h.1c-.14-.72-.22-1.45-.22-2.18v-3.5h2.99v15.2h-2.29l-.58-1.42h-.13c-.66,1.07-1.85,1.69-3.1,1.62Zm1.04-2.37c.63.05,1.25-.19,1.68-.66.42-.68.63-1.47.58-2.26v-.32c.07-.88-.12-1.75-.54-2.52-.42-.53-1.08-.82-1.76-.76-.63-.02-1.22.3-1.55.85-.41.75-.6,1.6-.55,2.45-.06.84.14,1.68.56,2.42.35.53.96.83,1.59.81h0Zm-145.98,16.62h1c.74.05,1.47-.14,2.09-.55.47-.39.73-.99.69-1.61.05-.58-.16-1.16-.58-1.57-.53-.38-1.17-.56-1.82-.51h-1.38v4.24Zm6.84-2.27c.08,1.33-.45,2.63-1.44,3.53-1.18.88-2.63,1.32-4.1,1.22h-1.3v5.08h-3.03v-14.28h4.56c1.41-.1,2.8.3,3.95,1.12.94.84,1.45,2.07,1.36,3.34h0Zm8.56-1.3c.34,0,.67.02,1.01.09l-.22,2.79c-.29-.07-.58-.1-.88-.1-.81-.05-1.6.21-2.22.73-.55.54-.84,1.28-.8,2.05v5.56h-2.98v-10.92h2.26l.44,1.84h.15c.33-.6.8-1.11,1.38-1.48.56-.37,1.21-.56,1.88-.56h0Zm5.36,5.64c-.05.85.13,1.7.53,2.45.38.57,1.05.89,1.73.83.68.06,1.34-.26,1.71-.83.4-.76.58-1.6.52-2.46.06-.84-.13-1.69-.53-2.43-.39-.56-1.05-.87-1.73-.81-.68-.06-1.33.25-1.72.81-.4.75-.58,1.59-.53,2.44h0Zm7.55,0c.09,1.52-.41,3.02-1.41,4.17-1.03,1.04-2.46,1.58-3.92,1.5-.97.02-1.93-.22-2.77-.69-.8-.46-1.44-1.15-1.85-1.98-.45-.94-.67-1.97-.65-3.01-.09-1.52.41-3.01,1.4-4.16,1.04-1.03,2.47-1.57,3.93-1.48.97-.02,1.92.22,2.77.68.8.45,1.44,1.14,1.85,1.96.45.94.67,1.96.64,3h0Zm11.96-5.44v1.52l-1.71.44c.31.49.48,1.06.47,1.64.05,1.06-.4,2.07-1.23,2.74-.99.71-2.19,1.05-3.4.98l-.54-.03-.44-.05c-.27.17-.44.46-.46.78,0,.43.55.65,1.64.65h1.85c.97-.07,1.94.21,2.74.77.65.57,1,1.4.94,2.27.04,1.21-.57,2.34-1.6,2.97-1.4.78-2.99,1.15-4.59,1.05-1.22.07-2.43-.2-3.49-.8-.77-.47-1.23-1.32-1.21-2.23-.02-.61.2-1.2.61-1.65.49-.49,1.12-.82,1.81-.95-.32-.14-.59-.36-.8-.64-.22-.27-.34-.6-.34-.94-.01-.38.12-.75.36-1.04.3-.33.66-.6,1.05-.82-.57-.24-1.04-.66-1.36-1.19-.34-.59-.52-1.26-.5-1.93-.06-1.05.37-2.07,1.16-2.76.96-.71,2.13-1.05,3.32-.98.36,0,.73.03,1.09.08.42.06.69.1.81.12h3.8Zm-8.43,12.47c0,.41.23.78.59.97.51.26,1.08.38,1.66.35.86.04,1.72-.11,2.51-.44.52-.18.88-.65.91-1.2.03-.37-.19-.71-.54-.85-.53-.18-1.1-.26-1.66-.23h-1.54c-.49-.02-.97.12-1.37.39-.35.22-.56.61-.55,1.02h0Zm1.08-8.89c-.03.5.12,1,.41,1.41.3.36.76.55,1.24.52.47.04.93-.15,1.23-.52.28-.41.42-.91.39-1.41,0-1.32-.54-1.97-1.62-1.97-1.09,0-1.64.66-1.64,1.97h0Zm15.23-3.78c.34,0,.67.02,1.01.09l-.23,2.79c-.29-.07-.58-.1-.88-.1-.81-.05-1.6.21-2.22.73-.55.54-.84,1.28-.8,2.05v5.56h-2.97v-10.92h2.26l.44,1.84h.15c.33-.6.8-1.11,1.37-1.48.56-.37,1.21-.56,1.88-.56h0Zm9.92,11.12l-.58-1.48h-.08c-.41.55-.94,1-1.55,1.31-.66.27-1.37.39-2.07.37-.91.05-1.81-.28-2.48-.9-.64-.69-.96-1.62-.9-2.56-.07-1.01.39-1.98,1.22-2.56,1.12-.63,2.38-.95,3.67-.91l1.89-.06v-.48c.11-.81-.47-1.56-1.28-1.67-.14-.02-.28-.02-.42,0-1.07.05-2.12.32-3.08.79l-.99-2.01c1.29-.67,2.73-1,4.18-.99,1.2-.08,2.39.26,3.37.96.82.73,1.26,1.81,1.17,2.91v7.28h-2.08Zm-.88-5.06l-1.15.04c-.68-.02-1.34.14-1.93.47-.43.29-.67.79-.64,1.31,0,.84.48,1.26,1.45,1.26.61.03,1.21-.19,1.65-.6.42-.42.65-.99.62-1.58v-.89Zm15.8,5.06h-2.98v-6.38c.04-.62-.1-1.23-.4-1.77-.28-.4-.75-.63-1.24-.59-.67-.05-1.31.27-1.66.84-.41.86-.59,1.81-.52,2.76v5.14h-2.97v-10.92h2.27l.4,1.4h.17c.3-.51.74-.92,1.27-1.18.59-.29,1.24-.44,1.9-.43,1.32-.16,2.62.47,3.32,1.6h.26c.3-.51.76-.92,1.3-1.18.6-.29,1.26-.43,1.93-.42,1.03-.08,2.04.27,2.81.95.71.85,1.05,1.95.95,3.05v7.12h-2.99v-6.38c.04-.62-.1-1.23-.4-1.77-.28-.4-.75-.63-1.24-.59-.64-.04-1.26.25-1.64.78-.42.76-.61,1.62-.54,2.48v5.48Zm17.48-3.24c.06.99-.38,1.95-1.17,2.56-1.04.66-2.26.97-3.49.88-.68,0-1.36-.04-2.03-.16-.54-.1-1.07-.26-1.57-.47v-2.46c.6.28,1.23.5,1.87.65.6.16,1.21.25,1.83.26,1.08,0,1.62-.31,1.62-.94,0-.21-.07-.42-.22-.57-.22-.2-.47-.37-.74-.5-.35-.19-.82-.4-1.41-.65-.65-.25-1.27-.58-1.85-.98-.37-.27-.66-.62-.86-1.03-.19-.45-.28-.94-.27-1.43-.04-.89.39-1.75,1.13-2.25.96-.59,2.08-.87,3.2-.8,1.33,0,2.64.3,3.84.86l-.9,2.15c-.55-.23-1.06-.43-1.53-.58-.47-.15-.96-.23-1.45-.23-.88,0-1.32.24-1.32.71.01.29.17.55.42.69.59.34,1.22.64,1.86.87.66.24,1.29.57,1.88.97.37.27.67.62.88,1.03.2.44.3.92.28,1.4Zm13.56-5.44h-2.58v8.68h-2.98v-8.68h-1.64v-1.43l1.64-.8v-.8c-.09-1,.24-1.99.92-2.72.84-.64,1.89-.95,2.94-.86.94-.02,1.87.14,2.74.46l-.76,2.19c-.54-.18-1.1-.27-1.66-.28-.35-.03-.69.11-.92.38-.2.28-.3.62-.28.96v.68h2.58v2.23Zm4.08,3.2c-.05.85.13,1.7.53,2.45.38.57,1.05.89,1.73.83.68.06,1.34-.26,1.71-.83.4-.76.58-1.6.52-2.46.06-.84-.13-1.69-.53-2.43-.79-.95-2.21-1.08-3.16-.29-.11.09-.2.18-.29.29-.4.75-.58,1.59-.53,2.43h0Zm7.55,0c.09,1.52-.41,3.02-1.41,4.17-1.03,1.04-2.46,1.58-3.92,1.5-.97.02-1.93-.22-2.77-.69-.8-.46-1.44-1.15-1.85-1.98-.45-.94-.67-1.97-.65-3.01-.09-1.52.41-3.01,1.4-4.16,1.04-1.03,2.47-1.57,3.93-1.48.97-.02,1.92.22,2.77.68.8.45,1.44,1.14,1.85,1.96.45.94.67,1.97.64,3h0Zm8.56-5.65c.34,0,.67.02,1.01.09l-.22,2.79c-.29-.07-.58-.1-.88-.1-.81-.05-1.6.21-2.22.73-.55.54-.84,1.28-.8,2.05v5.56h-2.97v-10.92h2.26l.44,1.84h.15c.33-.6.8-1.11,1.37-1.48.56-.37,1.21-.56,1.88-.56h0Zm-97.64,25.56h1c.74.05,1.47-.14,2.09-.55.47-.39.73-.99.69-1.61.05-.58-.16-1.16-.58-1.57-.53-.38-1.17-.56-1.82-.51h-1.38v4.24Zm6.83-2.27c.08,1.33-.45,2.63-1.44,3.53-1.18.88-2.63,1.32-4.1,1.22h-1.3v5.08h-3.03v-14.28h4.56c1.41-.1,2.8.3,3.95,1.12.94.84,1.45,2.07,1.36,3.33h0Zm9.39,9.82l-.58-1.48h-.08c-.41.55-.94,1-1.55,1.31-.66.27-1.37.39-2.08.37-.91.05-1.81-.28-2.48-.9-.64-.69-.96-1.62-.9-2.56-.07-1.01.39-1.98,1.22-2.56,1.12-.63,2.38-.95,3.67-.91l1.9-.06v-.48c.11-.81-.47-1.56-1.28-1.67-.14-.02-.28-.02-.42,0-1.07.05-2.12.32-3.08.79l-.99-2.01c1.29-.67,2.73-1,4.18-.99,1.2-.08,2.39.26,3.37.96.82.73,1.26,1.81,1.17,2.91v7.28h-2.09Zm-.88-5.06l-1.15.04c-.68-.02-1.34.14-1.93.47-.43.29-.67.79-.64,1.31,0,.84.48,1.26,1.44,1.26.61.03,1.21-.19,1.66-.6.42-.42.65-.99.62-1.58v-.9Zm12.12-6.06c.34,0,.67.02,1.01.09l-.22,2.79c-.29-.07-.58-.1-.88-.1-.81-.05-1.6.21-2.22.73-.55.54-.84,1.28-.8,2.05v5.56h-2.98v-10.92h2.26l.44,1.84h.15c.33-.6.8-1.11,1.37-1.48.56-.37,1.22-.57,1.89-.56h0Zm7.51,2.12c-.56-.03-1.1.19-1.48.6-.39.48-.61,1.08-.62,1.7h4.18c.03-.62-.18-1.22-.58-1.7-.39-.41-.94-.63-1.5-.6Zm.42,9.2c-1.51.09-3-.44-4.12-1.46-1.04-1.11-1.58-2.6-1.48-4.12-.1-1.54.39-3.05,1.37-4.24.99-1.03,2.37-1.58,3.79-1.5,1.33-.08,2.63.4,3.6,1.32.9.99,1.37,2.3,1.29,3.64v1.44h-7.04c-.01.73.26,1.44.75,1.98.53.5,1.25.76,1.97.71.63,0,1.25-.07,1.86-.21.63-.15,1.25-.37,1.84-.65v2.3c-.53.26-1.09.46-1.67.58-.71.14-1.44.21-2.17.2Zm16.95-.2h-2.98v-6.38c.04-.62-.1-1.24-.42-1.77-.32-.41-.82-.63-1.34-.59-.71-.06-1.39.26-1.81.83-.44.85-.63,1.81-.56,2.77v5.14h-2.98v-10.92h2.28l.4,1.4h.17c.33-.53.81-.94,1.37-1.2.62-.28,1.3-.42,1.99-.4,1.07-.08,2.11.3,2.89,1.03.71.82,1.06,1.89.99,2.97v7.12Zm7.67-2.18c.64-.02,1.27-.14,1.88-.34v2.22c-.87.36-1.8.53-2.73.5-.96.09-1.9-.24-2.6-.9-.6-.77-.89-1.74-.82-2.71v-5.27h-1.43v-1.26l1.64-1,.86-2.3h1.9v2.32h3.06v2.24h-3.05v5.26c-.03.35.1.7.36.94.27.21.6.32.94.3Zm11.7-1.06c.06.99-.38,1.95-1.17,2.56-1.04.66-2.26.97-3.49.88-.68,0-1.36-.04-2.03-.16-.54-.1-1.07-.26-1.57-.47v-2.46c.6.28,1.23.5,1.87.65.6.16,1.21.25,1.83.26,1.08,0,1.62-.31,1.62-.94,0-.21-.07-.42-.22-.57-.22-.2-.47-.37-.74-.5-.35-.19-.82-.4-1.41-.65-.65-.25-1.27-.58-1.85-.98-.37-.27-.66-.62-.86-1.03-.19-.45-.28-.94-.27-1.43-.04-.89.39-1.75,1.13-2.25.96-.59,2.08-.87,3.2-.8,1.33,0,2.64.3,3.84.86l-.9,2.15c-.55-.23-1.06-.43-1.53-.58-.47-.15-.96-.23-1.46-.22-.88,0-1.32.24-1.32.71.01.29.17.55.42.69.59.34,1.22.64,1.86.87.66.24,1.29.57,1.88.97.37.27.67.62.88,1.03.2.44.3.92.28,1.4Z"/></g></svg>