<?xml version="1.0" encoding="UTF-8"?><svg id="Layer_1" xmlns="http://www.w3.org/2000/svg" xmlns:xlink="http://www.w3.org/1999/xlink" viewBox="0 0 206.8 190"><defs><style>.cls-1{fill:#fff;}.cls-2{clip-path:url(#clippath-2);}.cls-3{clip-path:url(#clippath-1);}.cls-4{fill:#68427e;}.cls-5{stroke:#333;stroke-miterlimit:10;stroke-width:.75px;}.cls-5,.cls-6{fill:none;}.cls-7{clip-path:url(#clippath);}.cls-8{fill:#58595b;}</style><clipPath id="clippath"><rect class="cls-6" width="206.8" height="190"/></clipPath><clipPath id="clippath-1"><rect class="cls-6" width="206.8" height="190"/></clipPath><clipPath id="clippath-2"><rect class="cls-6" width="206.8" height="190"/></clipPath></defs><g id="_3333"><g id="Group_197"><g class="cls-7"><g id="Group_196"><path id="Path_200" class="cls-4" d="m5,0S0,0,0,5v180s0,5,5,5h196.8s5,0,5-5V5s0-5-5-5H5Z"/></g></g></g><g id="Group_199"><g class="cls-3"><g id="Group_198"><path id="Path_201" class="cls-1" d="m76.7,48.8c-5.2,2-9.1,6.7-1.3,15.2-7.4,2.8-11.7,10-11.7,12.7s19.5,1.3,19.5,1.3c0,0-2.6,11.3,4.8,12.5,8.3,1.3,31.2,0,31.2,0,3.24-2.74,4.57-7.12,3.4-11.2-.9-3.1,20.9.8,20.9-.1s-3.6-14.9-11.9-14.9c5-4,6.6-15.3-2.7-15.3s-11.4,6.2-4.9,14.3c-1.92,1.83-4.11,3.35-6.5,4.5-2.51-1.99-5.35-3.52-8.4-4.5-4.6-1.4,4.6-3.1,4.6-9.9s-4.1-9.9-10.5-10.1c-5.6-.2-15.9,6.2-7.5,17,7.5,3-6.2,8-6.2,8,0,0-6.2-4.3-7.4-4.7s7.4-4.5,4.6-9.9c-2-4.4-4.8-6.9-10-4.9"/></g></g></g><g id="Group_201"><g class="cls-2"><g id="Group_200"><path id="Path_202" class="cls-8" d="m123.3,78l-.2-.6c-.86-3.16-2.51-6.06-4.8-8.4l-.6-.6.6-.5c2.68-2.2,6.03-3.44,9.5-3.5h.2c7.5.1,13.8,5.5,14.5,12.7l.1.9h-19.3Zm-.5,5.5c-.06,3.75-3.15,6.75-6.9,6.7h-25.2c-3.75.05-6.84-2.95-6.9-6.7v-1.1c.04-4.95,2.01-9.69,5.5-13.2,3.58-3.54,8.37-5.58,13.4-5.7h1c5.03.12,9.82,2.16,13.4,5.7,3.56,3.47,5.54,8.23,5.5,13.2v1.1h.2Zm-39.5-5.5h-19.4l.1-.9c.89-7.31,7.14-12.78,14.5-12.7h.2c3.43,0,6.76,1.2,9.4,3.4l.6.5-.6.6c-2.31,2.37-3.97,5.3-4.8,8.5v.6Zm-12.3-21.9c-.11-4.2,3.2-7.69,7.4-7.8,4.2-.11,7.69,3.2,7.8,7.4.11,4.2-3.2,7.69-7.4,7.8-.03,0-.06,0-.1,0h-.3c-4.05-.1-7.3-3.35-7.4-7.4m22.1-3.3c-.16-5.58,4.24-10.22,9.81-10.38,5.58-.16,10.22,4.24,10.38,9.81.15,5.45-4.05,10.04-9.49,10.36h-1.1c-5.3-.2-9.51-4.5-9.6-9.8m29.5,8.5c-1.4-1.37-2.2-3.24-2.2-5.2,0-4.2,3.4-7.6,7.6-7.6s7.6,3.4,7.6,7.6c-.11,4.08-3.42,7.35-7.5,7.4h-.3c-1.93-.11-3.77-.89-5.2-2.2m21.2,17.4c-.07-6.58-4.34-12.38-10.6-14.4l-1.5-.5,1.3-.9c2.28-1.52,3.66-4.06,3.7-6.8-.16-4.75-4.14-8.47-8.89-8.31-4.52.15-8.15,3.78-8.31,8.31.04,2.74,1.42,5.28,3.7,6.8l1.3.9-1.5.5c-1.94.66-3.74,1.67-5.3,3l-.5.5-.5-.4c-2.15-1.78-4.63-3.11-7.3-3.9l-1.8-.5,1.6-.9c3.29-1.9,5.35-5.4,5.4-9.2-.22-6.13-5.36-10.92-11.49-10.71-5.82.21-10.5,4.88-10.71,10.71.05,3.8,2.11,7.3,5.4,9.2l1.6.9-1.8.5c-2.65.8-5.13,2.09-7.3,3.8l-.5.4-.5-.4c-1.52-1.31-3.29-2.3-5.2-2.9l-1.5-.5,1.3-.9c2.28-1.52,3.66-4.06,3.7-6.8-.16-4.75-4.14-8.47-8.89-8.31-4.52.15-8.15,3.78-8.31,8.31.04,2.74,1.42,5.28,3.7,6.8l1.3.9-1.5.5c-6.43,1.79-10.88,7.63-10.9,14.3v.3h20.1l-.1.9c-.12.86-.18,1.73-.2,2.6v1.1c.07,4.27,3.59,7.67,7.86,7.6.01,0,.03,0,.04,0h25.3c4.27.06,7.79-3.33,7.9-7.6v-1.1c-.02-.87-.09-1.74-.2-2.6l-.1-.9h20.3l-.1-.3Z"/></g></g></g><path id="Path_203" class="cls-5" d="m123.3,78l-.2-.6c-.86-3.16-2.51-6.06-4.8-8.4l-.6-.6.6-.5c2.68-2.2,6.03-3.44,9.5-3.5h.2c7.5.1,13.8,5.5,14.5,12.7l.1.9h-19.3Zm-.5,5.5c-.06,3.75-3.15,6.75-6.9,6.7h-25.2c-3.75.05-6.84-2.95-6.9-6.7v-1.1c.04-4.95,2.01-9.69,5.5-13.2,3.58-3.54,8.37-5.58,13.4-5.7h1c5.03.12,9.82,2.16,13.4,5.7,3.56,3.47,5.54,8.23,5.5,13.2v1.1h.2Zm-39.5-5.5h-19.4l.1-.9c.89-7.31,7.14-12.78,14.5-12.7h.2c3.43,0,6.76,1.2,9.4,3.4l.6.5-.6.6c-2.31,2.37-3.97,5.3-4.8,8.5v.6Zm-12.3-21.9c-.11-4.2,3.2-7.69,7.4-7.8,4.2-.11,7.69,3.2,7.8,7.4.11,4.2-3.2,7.69-7.4,7.8-.03,0-.06,0-.1,0h-.3c-4.05-.1-7.3-3.35-7.4-7.4Zm22.1-3.3c-.16-5.58,4.24-10.22,9.81-10.38,5.58-.16,10.22,4.24,10.38,9.81.15,5.45-4.05,10.04-9.49,10.36h-1.1c-5.3-.2-9.51-4.5-9.6-9.8Zm29.5,8.5c-1.4-1.37-2.2-3.24-2.2-5.2,0-4.2,3.4-7.6,7.6-7.6s7.6,3.4,7.6,7.6c-.11,4.08-3.42,7.35-7.5,7.4h-.3c-1.93-.11-3.77-.89-5.2-2.2Zm21.2,17.4c-.07-6.58-4.34-12.38-10.6-14.4l-1.5-.5,1.3-.9c2.28-1.52,3.66-4.06,3.7-6.8-.16-4.75-4.14-8.47-8.89-8.31-4.52.15-8.15,3.78-8.31,8.31.04,2.74,1.42,5.28,3.7,6.8l1.3.9-1.5.5c-1.94.66-3.74,1.67-5.3,3l-.5.5-.5-.4c-2.15-1.78-4.63-3.11-7.3-3.9l-1.8-.5,1.6-.9c3.29-1.9,5.35-5.4,5.4-9.2-.22-6.13-5.36-10.92-11.49-10.71-5.82.21-10.5,4.88-10.71,10.71.05,3.8,2.11,7.3,5.4,9.2l1.6.9-1.8.5c-2.65.8-5.13,2.09-7.3,3.8l-.5.4-.5-.4c-1.52-1.31-3.29-2.3-5.2-2.9l-1.5-.5,1.3-.9c2.28-1.52,3.66-4.06,3.7-6.8-.16-4.75-4.14-8.47-8.89-8.31-4.52.15-8.15,3.78-8.31,8.31.04,2.74,1.42,5.28,3.7,6.8l1.3.9-1.5.5c-6.43,1.79-10.88,7.63-10.9,14.3v.3h20.1l-.1.9c-.12.86-.18,1.73-.2,2.6v1.1c.07,4.27,3.59,7.67,7.86,7.6.01,0,.03,0,.04,0h25.3c4.27.06,7.79-3.33,7.9-7.6v-1.1c-.02-.87-.09-1.74-.2-2.6l-.1-.9h20.3l-.1-.3Z"/><path id="Path_223" class="cls-1" d="m21.45,120h-1.98v-10.43h-3.57v-1.7h9.12v1.7h-3.57v10.43Zm13.36-4.61c.08,1.27-.34,2.53-1.15,3.51-.83.87-2.01,1.33-3.21,1.27-.8.02-1.58-.19-2.27-.58-.66-.39-1.19-.97-1.52-1.67-.37-.79-.55-1.65-.53-2.52-.08-1.27.33-2.51,1.15-3.49.84-.87,2.02-1.33,3.23-1.26,1.19-.06,2.34.41,3.15,1.28.81.96,1.23,2.2,1.16,3.46Zm-6.68,0c0,2.12.78,3.18,2.35,3.18s2.32-1.06,2.32-3.18-.78-3.15-2.34-3.15c-.69-.06-1.37.25-1.78.81-.41.71-.6,1.52-.55,2.33Zm18.79,4.61l-3.52-10.14h-.07c.09,1.51.14,2.92.14,4.23v5.9h-1.8v-12.14h2.8l3.37,9.65h.05l3.47-9.65h2.81v12.14h-1.91v-6c0-.6.02-1.39.05-2.36.03-.97.06-1.56.08-1.76h-.07l-3.65,10.12h-1.75Zm15.98,0l-.39-1.28h-.07c-.35.48-.81.87-1.34,1.14-.55.22-1.14.32-1.73.3-.77.05-1.53-.22-2.11-.73-.53-.55-.81-1.3-.76-2.07-.05-.85.35-1.66,1.06-2.14.98-.55,2.09-.83,3.21-.79l1.58-.05v-.49c.04-.48-.11-.95-.41-1.32-.35-.32-.81-.48-1.27-.44-.46,0-.92.07-1.35.21-.43.14-.84.3-1.24.49l-.63-1.4c.52-.27,1.07-.47,1.63-.59.55-.13,1.11-.2,1.68-.2.94-.07,1.88.2,2.64.76.64.63.97,1.51.89,2.4v6.18h-1.39Zm-2.91-1.33c.62.03,1.24-.18,1.71-.59.45-.44.68-1.04.64-1.66v-.8l-1.18.05c-.7-.02-1.38.14-2,.46-.42.28-.66.76-.63,1.26-.02.35.11.7.37.95.31.25.7.37,1.09.34Zm8.91-3.52l1.1-1.38,2.77-2.95h2.25l-3.69,3.94,3.93,5.24h-2.29l-2.95-4.03-1.07.88v3.15h-1.93v-12.92h1.93v6.3l-.1,1.77h.05Zm11.85,5.01c-1.24.07-2.46-.38-3.35-1.25-.84-.94-1.27-2.18-1.2-3.44-.07-1.28.32-2.53,1.12-3.54.78-.87,1.91-1.35,3.08-1.29,1.07-.06,2.11.34,2.87,1.1.74.84,1.12,1.93,1.05,3.05v1.05h-6.12c-.02.75.24,1.48.72,2.05.51.5,1.21.76,1.92.72.51,0,1.02-.05,1.51-.15.52-.12,1.02-.29,1.51-.51v1.59c-.46.22-.94.38-1.44.48-.55.1-1.11.15-1.67.14Zm-.35-8.03c-.56-.02-1.1.19-1.49.59-.41.48-.64,1.09-.67,1.72h4.17c.03-.62-.16-1.23-.55-1.72-.38-.4-.91-.61-1.46-.59Zm14.96,7.87h-1.98v-10.43h-3.57v-1.7h9.12v1.7h-3.57v10.43Zm13.3,0h-1.96v-5.64c.04-.56-.11-1.12-.43-1.59-.35-.37-.85-.57-1.36-.52-.69-.06-1.36.22-1.81.74-.45.74-.65,1.6-.57,2.46v4.56h-1.95v-12.92h1.95v3.28c0,.56-.04,1.13-.1,1.68h.12c.26-.44.65-.8,1.11-1.03.51-.25,1.08-.38,1.66-.36,2.22,0,3.34,1.12,3.34,3.36v5.98Zm4.67,0h-1.95v-9.18h1.95v9.18Zm-2.07-11.61c-.02-.3.08-.59.29-.81.22-.2.52-.3.82-.28.29-.02.58.08.8.28.2.22.31.51.29.81.02.29-.09.57-.29.78-.22.2-.51.3-.8.29-.3.02-.6-.08-.82-.29-.2-.21-.3-.49-.29-.78Zm11.02,9c.04.81-.33,1.58-.98,2.06-.84.53-1.82.78-2.81.72-1.01.04-2.02-.15-2.95-.56v-1.69c.94.46,1.97.72,3.01.75,1.2,0,1.8-.36,1.8-1.09,0-.21-.06-.42-.2-.58-.19-.2-.41-.36-.66-.48-.41-.21-.84-.4-1.27-.56-.79-.25-1.53-.67-2.15-1.23-.38-.44-.59-1.01-.56-1.59-.03-.73.33-1.43.95-1.83.78-.47,1.68-.7,2.59-.65,1.06,0,2.1.22,3.06.66l-.63,1.47c-.78-.36-1.63-.57-2.49-.61-1.03,0-1.54.29-1.54.88,0,.29.15.57.4.73.55.34,1.14.62,1.75.83.58.2,1.13.47,1.65.8.32.22.58.5.76.84.17.35.26.74.25,1.14h0Zm14.77-5.85c.07,1.11-.39,2.19-1.24,2.91-1.03.74-2.28,1.09-3.54,1.01h-1.27v4.54h-1.98v-12.14h3.49c1.21-.09,2.41.24,3.41.93.79.69,1.21,1.7,1.13,2.74Zm-6.05,2.26h1.05c.78.06,1.57-.13,2.24-.53.5-.4.77-1.02.72-1.66.04-.59-.19-1.17-.64-1.56-.59-.39-1.29-.57-1.99-.52h-1.38v4.27Zm12.93-3.14c.33,0,.65.02.97.08l-.19,1.82c-.28-.07-.57-.1-.86-.1-.71-.03-1.4.25-1.9.76-.49.54-.75,1.25-.72,1.98v4.8h-1.95v-9.18h1.53l.26,1.62h.1c.28-.52.69-.97,1.19-1.3.47-.32,1.02-.48,1.58-.49Zm10.81,4.74c.08,1.27-.34,2.53-1.15,3.51-.84.87-2.01,1.33-3.21,1.27-.8.02-1.58-.19-2.27-.58-.66-.39-1.19-.97-1.52-1.67-.37-.79-.55-1.65-.53-2.52-.08-1.27.33-2.51,1.15-3.49.84-.87,2.02-1.33,3.23-1.25,1.19-.06,2.34.41,3.15,1.28.81.96,1.23,2.2,1.16,3.46Zm-6.68,0c0,2.12.78,3.18,2.35,3.18s2.32-1.06,2.32-3.18c0-2.1-.78-3.15-2.34-3.15-.69-.06-1.37.25-1.78.81-.41.71-.6,1.52-.55,2.33Zm12.63,4.77c-1.18.08-2.34-.36-3.17-1.22-.78-.99-1.17-2.23-1.08-3.49-.09-1.29.32-2.56,1.13-3.56.86-.87,2.05-1.33,3.28-1.24.9-.01,1.79.17,2.62.54l-.59,1.57c-.65-.28-1.34-.44-2.04-.48-1.59,0-2.38,1.05-2.38,3.16-.06.82.15,1.63.59,2.32.42.53,1.07.82,1.74.78.86,0,1.71-.22,2.47-.65v1.7c-.35.2-.72.35-1.12.44-.47.1-.96.14-1.44.13Zm8.72,0c-1.24.07-2.46-.38-3.35-1.25-.85-.94-1.28-2.18-1.21-3.44-.07-1.28.32-2.54,1.12-3.54.78-.87,1.91-1.35,3.08-1.29,1.07-.06,2.11.34,2.87,1.1.74.84,1.12,1.93,1.05,3.05v1.05h-6.12c-.02.75.23,1.48.72,2.05.51.5,1.21.76,1.92.72.51,0,1.01-.05,1.51-.15.52-.12,1.02-.29,1.51-.51v1.58c-.46.22-.94.38-1.44.48-.55.1-1.11.15-1.66.14h0Zm-.36-8.03c-.56-.02-1.1.19-1.49.59-.41.48-.64,1.09-.67,1.72h4.17c.03-.62-.16-1.23-.55-1.72-.38-.4-.91-.61-1.46-.59Zm12.31,5.25c.04.81-.33,1.58-.98,2.06-.84.53-1.82.78-2.81.72-1.01.04-2.02-.15-2.95-.56v-1.69c.94.46,1.97.72,3.01.75,1.2,0,1.8-.36,1.8-1.09,0-.21-.06-.42-.2-.58-.19-.2-.41-.36-.66-.48-.41-.21-.84-.4-1.27-.56-.79-.25-1.53-.67-2.15-1.23-.38-.44-.59-1.01-.56-1.59-.03-.73.33-1.43.95-1.83.78-.47,1.68-.7,2.59-.65,1.06,0,2.1.22,3.06.66l-.63,1.47c-.79-.36-1.64-.57-2.5-.61-1.03,0-1.54.29-1.54.88,0,.29.15.57.4.73.55.34,1.14.61,1.76.82.58.2,1.13.47,1.65.8.32.22.58.5.76.84.18.35.26.74.25,1.14Zm8.28,0c.04.81-.33,1.58-.98,2.06-.84.53-1.82.78-2.81.72-1.01.04-2.02-.15-2.94-.56v-1.69c.94.46,1.97.72,3.01.75,1.2,0,1.8-.36,1.8-1.09,0-.21-.07-.42-.2-.59-.19-.2-.41-.36-.66-.48-.41-.21-.84-.4-1.27-.56-.79-.25-1.53-.67-2.15-1.23-.38-.44-.59-1.01-.56-1.59-.03-.73.33-1.43.95-1.83.78-.47,1.68-.7,2.59-.65,1.06,0,2.1.22,3.06.66l-.63,1.47c-.79-.36-1.64-.57-2.5-.61-1.03,0-1.54.29-1.54.88,0,.29.15.57.4.73.55.34,1.14.61,1.76.82.58.2,1.13.47,1.65.8.32.22.58.5.76.84.18.36.26.75.25,1.14Zm-133.5,22.61h-6.86v-12.14h6.86v1.68h-4.88v3.3h4.57v1.66h-4.57v3.81h4.88v1.69Zm8.16,0l-.39-1.28h-.07c-.35.48-.81.87-1.34,1.14-.55.22-1.14.32-1.73.3-.77.05-1.53-.22-2.11-.73-.53-.55-.81-1.3-.76-2.07-.05-.85.35-1.66,1.05-2.14.98-.55,2.09-.83,3.21-.79l1.58-.05v-.49c.04-.48-.11-.95-.41-1.32-.35-.32-.81-.48-1.27-.44-.46,0-.92.07-1.35.21-.43.14-.84.3-1.24.49l-.63-1.39c.52-.27,1.07-.47,1.63-.59.55-.13,1.11-.2,1.68-.2.94-.07,1.88.2,2.64.76.64.63.97,1.51.89,2.4v6.18h-1.39Zm-2.9-1.33c.62.03,1.24-.18,1.71-.59.45-.44.68-1.04.64-1.66v-.8l-1.18.05c-.7-.02-1.38.14-2,.46-.42.28-.66.76-.63,1.26-.02.35.11.7.37.95.31.25.7.37,1.09.34Zm13.19-1.29c.04.81-.33,1.58-.98,2.06-.84.53-1.82.78-2.81.72-1.01.04-2.02-.15-2.95-.56v-1.69c.94.46,1.97.72,3.01.75,1.2,0,1.8-.36,1.8-1.09,0-.21-.06-.42-.2-.58-.19-.2-.41-.36-.66-.48-.41-.21-.84-.4-1.27-.56-.79-.25-1.53-.67-2.15-1.23-.38-.44-.59-1.01-.56-1.59-.03-.73.33-1.43.95-1.83.78-.47,1.68-.7,2.59-.65,1.06,0,2.1.22,3.06.66l-.63,1.47c-.79-.36-1.64-.57-2.5-.61-1.03,0-1.54.29-1.54.88,0,.29.15.57.4.73.55.34,1.14.61,1.76.82.58.2,1.13.47,1.65.81.32.22.58.5.76.84.18.35.26.74.25,1.14Zm.71-6.57h2.12l1.87,5.2c.26.67.45,1.38.56,2.09h.07c.07-.37.16-.75.27-1.11.13-.43.84-2.5,2.11-6.19h2.11l-3.93,10.4c-.72,1.91-1.91,2.87-3.57,2.87-.42,0-.85-.05-1.26-.14v-1.54c.33.07.66.1,1,.1.96-.01,1.79-.69,1.98-1.64l.34-.86-3.68-9.18Zm20.67,9.18l-.39-1.28h-.06c-.35.48-.81.87-1.34,1.14-.55.22-1.14.32-1.73.3-.77.05-1.53-.22-2.11-.73-.53-.55-.81-1.3-.76-2.07-.05-.85.35-1.66,1.05-2.14.98-.55,2.09-.83,3.21-.79l1.59-.05v-.49c.04-.48-.11-.95-.41-1.32-.35-.32-.81-.48-1.27-.44-.46,0-.92.07-1.35.21-.43.14-.84.3-1.24.49l-.63-1.4c.52-.27,1.07-.47,1.64-.59.55-.13,1.11-.2,1.68-.2.94-.07,1.88.2,2.64.76.64.63.97,1.51.89,2.4v6.18h-1.4Zm-2.9-1.33c.62.03,1.24-.18,1.71-.59.45-.43.68-1.04.65-1.66v-.8l-1.18.05c-.7-.02-1.38.14-2,.46-.42.28-.66.76-.63,1.26-.02.35.11.7.36.95.31.25.7.37,1.09.34h0Zm15.1,1.33h-1.96v-5.65c.04-.56-.11-1.12-.43-1.58-.35-.38-.85-.57-1.36-.52-.69-.06-1.36.21-1.81.73-.45.73-.65,1.59-.57,2.45v4.57h-1.95v-9.18h1.53l.27,1.2h.1c.29-.44.69-.79,1.17-1.01.53-.24,1.11-.36,1.69-.36,2.2,0,3.3,1.12,3.3,3.36v5.99Zm5.81.17c-1.04.05-2.04-.42-2.68-1.25-.7-1.03-1.04-2.26-.96-3.49-.08-1.25.27-2.48.97-3.52.64-.83,1.65-1.3,2.7-1.26,1.09-.06,2.13.45,2.76,1.34h.1c-.08-.52-.13-1.04-.14-1.56v-3.34h1.96v12.92h-1.53l-.34-1.2h-.1c-.61.9-1.65,1.42-2.74,1.37Zm.52-1.58c.66.06,1.3-.19,1.75-.68.42-.65.62-1.42.56-2.2v-.27c.08-.86-.12-1.72-.56-2.47-.44-.51-1.1-.79-1.77-.73-.64-.02-1.24.29-1.59.83-.41.72-.61,1.55-.56,2.38-.05.81.14,1.62.54,2.33.36.54.97.84,1.62.81Zm13.56,1.41h-1.97v-12.14h6.85v1.68h-4.88v3.79h4.57v1.69h-4.57v4.98Zm12.62,0l-.39-1.28h-.07c-.35.48-.81.87-1.34,1.14-.55.22-1.14.32-1.73.3-.77.05-1.53-.22-2.11-.73-.53-.55-.81-1.3-.76-2.07-.05-.85.35-1.66,1.05-2.14.98-.55,2.09-.83,3.21-.79l1.58-.05v-.49c.04-.48-.11-.95-.41-1.32-.35-.32-.81-.48-1.27-.44-.46,0-.92.07-1.35.21-.43.14-.84.3-1.24.49l-.63-1.39c.52-.27,1.07-.47,1.63-.59.55-.13,1.11-.2,1.68-.2.94-.07,1.88.2,2.64.76.64.63.97,1.51.89,2.4v6.18h-1.39Zm-2.9-1.33c.62.03,1.24-.18,1.71-.59.45-.44.68-1.04.64-1.66v-.8l-1.18.05c-.7-.02-1.38.14-2,.46-.42.28-.66.76-.63,1.26-.02.35.11.7.37.95.31.25.7.37,1.09.34Zm13.19-1.29c.04.81-.33,1.58-.98,2.06-.84.53-1.82.78-2.81.72-1.01.04-2.02-.15-2.95-.56v-1.69c.94.46,1.97.72,3.01.75,1.2,0,1.8-.36,1.8-1.09,0-.21-.06-.42-.2-.58-.19-.2-.41-.36-.66-.48-.41-.21-.84-.4-1.27-.56-.79-.25-1.53-.67-2.15-1.23-.38-.44-.59-1.01-.56-1.59-.03-.73.33-1.43.95-1.83.78-.47,1.68-.7,2.59-.65,1.06,0,2.1.22,3.06.66l-.63,1.47c-.79-.36-1.64-.57-2.5-.61-1.03,0-1.54.29-1.54.88,0,.29.15.57.4.73.55.34,1.14.61,1.76.82.58.2,1.13.47,1.65.81.32.22.58.5.76.84.18.35.26.74.25,1.14Zm5.53,1.2c.48,0,.97-.08,1.43-.22v1.47c-.27.11-.55.19-.83.24-.35.07-.7.1-1.06.1-1.85,0-2.77-.97-2.77-2.92v-4.94h-1.25v-.86l1.35-.71.66-1.94h1.2v2.04h2.62v1.48h-2.61v4.91c-.03.38.1.76.35,1.04.25.23.58.35.92.33h0Zm-111.65,18.11c.04.99-.39,1.93-1.17,2.54-.94.66-2.08.99-3.23.92-1.16.04-2.31-.18-3.37-.64v-1.87c.57.26,1.16.47,1.76.61.57.14,1.15.22,1.74.22.61.05,1.23-.11,1.74-.45.37-.29.58-.73.56-1.2,0-.44-.18-.86-.51-1.15-.65-.48-1.36-.86-2.12-1.12-.9-.31-1.7-.83-2.34-1.54-.46-.59-.7-1.33-.68-2.08-.04-.92.36-1.81,1.08-2.39.84-.62,1.86-.93,2.9-.87,1.2,0,2.38.27,3.47.76l-.63,1.62c-.91-.42-1.89-.65-2.89-.68-.52-.04-1.04.11-1.46.42-.33.27-.51.68-.5,1.11,0,.28.06.56.2.81.17.26.39.48.66.64.53.31,1.08.57,1.64.79.69.26,1.35.61,1.96,1.04.39.29.7.66.91,1.09.2.45.3.93.29,1.42Zm6.8,3.46c-1.05.05-2.06-.42-2.71-1.25h-.12c.08.77.12,1.24.12,1.41v3.76h-1.95v-13.26h1.58c.04.17.14.58.27,1.23h.1c.6-.92,1.64-1.46,2.74-1.4,1.04-.05,2.04.42,2.68,1.25.7,1.03,1.03,2.26.96,3.5.07,1.24-.27,2.48-.98,3.51-.64.84-1.64,1.31-2.69,1.27h0Zm-.47-7.92c-.64-.06-1.27.2-1.7.68-.41.65-.6,1.41-.53,2.18v.29c-.07.84.12,1.69.53,2.43.41.53,1.07.81,1.74.75.63.02,1.23-.29,1.56-.83.41-.72.6-1.54.55-2.37.05-.82-.14-1.63-.54-2.34-.36-.52-.96-.82-1.6-.79h0Zm10.42,7.91c-1.24.07-2.46-.38-3.35-1.25-.85-.94-1.28-2.18-1.21-3.44-.07-1.28.33-2.54,1.12-3.54.78-.87,1.91-1.35,3.08-1.29,1.07-.06,2.11.34,2.87,1.1.74.84,1.12,1.94,1.05,3.05v1.05h-6.12c-.02.75.23,1.48.72,2.05.51.5,1.21.76,1.92.72.51,0,1.02-.05,1.51-.15.52-.12,1.02-.29,1.51-.51v1.58c-.46.22-.94.38-1.44.48-.55.1-1.11.15-1.67.14h0Zm-.36-8.04c-.56-.02-1.1.19-1.49.59-.41.48-.64,1.09-.67,1.72h4.17c.03-.62-.16-1.23-.55-1.72-.38-.4-.91-.61-1.46-.58h0Zm9.85,8.03c-1.18.08-2.34-.36-3.17-1.22-.78-.99-1.17-2.23-1.08-3.49-.08-1.29.32-2.56,1.13-3.55.86-.87,2.05-1.33,3.27-1.25.9-.01,1.79.17,2.61.54l-.59,1.57c-.65-.28-1.34-.45-2.04-.48-1.59,0-2.38,1.05-2.38,3.16-.06.82.15,1.63.59,2.32.42.53,1.07.82,1.74.78.86,0,1.71-.22,2.47-.65v1.7c-.35.2-.72.35-1.12.44-.47.1-.96.14-1.44.13h0Zm6.66-.17h-1.95v-9.18h1.95v9.18Zm-2.07-11.61c-.02-.3.08-.59.29-.81.22-.2.52-.3.82-.28.29-.02.58.08.8.28.2.22.31.51.29.81.02.29-.09.57-.29.78-.22.2-.51.3-.8.29-.3.02-.6-.08-.82-.29-.2-.21-.3-.49-.29-.78Zm10.6,11.61l-.39-1.28h-.07c-.35.48-.81.87-1.34,1.14-.55.22-1.14.32-1.73.3-.77.05-1.53-.22-2.11-.73-.53-.55-.81-1.3-.76-2.07-.05-.85.35-1.66,1.05-2.14.98-.55,2.09-.83,3.21-.79l1.58-.05v-.48c.04-.48-.11-.95-.41-1.32-.35-.32-.81-.48-1.27-.44-.46,0-.92.07-1.35.21-.43.14-.84.3-1.25.49l-.63-1.4c.52-.27,1.07-.47,1.64-.59.55-.13,1.11-.2,1.68-.2.94-.07,1.88.2,2.64.76.64.63.97,1.51.89,2.4v6.18h-1.39Zm-2.91-1.33c.62.03,1.24-.18,1.71-.59.44-.44.68-1.04.64-1.66v-.8l-1.18.05c-.7-.02-1.38.14-2,.46-.42.28-.66.76-.63,1.26-.02.35.11.7.36.95.31.25.7.37,1.09.34Zm8.97,1.33h-1.95v-12.92h1.95v12.92Zm15.45-8.47c.07,1.11-.39,2.19-1.24,2.91-1.03.74-2.28,1.09-3.54,1.01h-1.26v4.54h-1.98v-12.14h3.49c1.21-.09,2.41.24,3.41.93.79.69,1.2,1.7,1.13,2.74Zm-6.05,2.26h1.05c.78.06,1.57-.13,2.24-.53.5-.4.77-1.02.71-1.66.04-.59-.19-1.17-.64-1.56-.59-.39-1.29-.57-1.99-.52h-1.38v4.27Zm12.28,6.38c-1.24.07-2.46-.38-3.35-1.25-.85-.94-1.28-2.18-1.21-3.44-.07-1.28.32-2.53,1.12-3.54.78-.87,1.91-1.35,3.08-1.29,1.07-.06,2.11.34,2.87,1.1.74.84,1.12,1.93,1.05,3.05v1.05h-6.12c-.02.75.23,1.48.72,2.05.51.5,1.21.76,1.92.72.51,0,1.02-.05,1.52-.15.52-.12,1.02-.29,1.51-.51v1.58c-.46.22-.94.38-1.44.48-.55.1-1.11.15-1.67.15Zm-.36-8.03c-.56-.02-1.1.19-1.49.59-.41.48-.64,1.09-.67,1.72h4.16c.03-.62-.16-1.23-.55-1.72-.38-.4-.91-.61-1.46-.58h0Zm10.8-1.48c.33,0,.65.02.97.08l-.19,1.82c-.28-.07-.57-.1-.86-.1-.71-.03-1.4.25-1.9.76-.5.54-.76,1.25-.73,1.98v4.8h-1.95v-9.18h1.53l.26,1.62h.1c.28-.52.69-.97,1.19-1.3.47-.32,1.02-.48,1.58-.49h0Zm8.84,6.73c.04.81-.33,1.58-.98,2.06-.84.53-1.82.78-2.81.72-1.01.04-2.02-.15-2.95-.56v-1.68c.94.46,1.97.72,3.01.75,1.2,0,1.8-.36,1.8-1.09,0-.21-.06-.42-.2-.58-.19-.2-.41-.36-.66-.48-.41-.21-.84-.4-1.27-.56-.79-.25-1.53-.67-2.15-1.23-.38-.44-.59-1.01-.56-1.59-.03-.73.33-1.43.95-1.83.78-.47,1.68-.7,2.59-.65,1.06,0,2.1.22,3.06.66l-.63,1.47c-.79-.36-1.64-.57-2.5-.61-1.03,0-1.54.29-1.54.88,0,.29.15.57.4.73.55.34,1.14.61,1.76.82.58.2,1.13.47,1.65.81.32.22.58.5.76.84.18.35.26.75.25,1.14h0Zm10.25-1.99c.08,1.27-.34,2.53-1.15,3.51-.84.87-2.01,1.33-3.21,1.26-.8.02-1.58-.19-2.27-.58-.66-.39-1.19-.97-1.52-1.67-.37-.79-.55-1.65-.53-2.52-.08-1.27.33-2.51,1.15-3.49.84-.87,2.02-1.33,3.23-1.25,1.19-.06,2.34.41,3.15,1.28.81.96,1.23,2.2,1.16,3.46h0Zm-6.68,0c0,2.12.78,3.18,2.35,3.18s2.32-1.06,2.32-3.18-.78-3.15-2.34-3.15c-.69-.06-1.37.25-1.78.81-.41.71-.6,1.52-.55,2.33h0Zm17,4.61h-1.96v-5.64c.04-.56-.11-1.12-.43-1.58-.35-.37-.85-.57-1.36-.52-.69-.06-1.36.21-1.81.73-.45.73-.65,1.59-.57,2.45v4.57h-1.95v-9.18h1.53l.27,1.2h.1c.29-.45.7-.8,1.18-1.01.53-.24,1.11-.36,1.69-.36,2.2,0,3.3,1.12,3.3,3.36v5.99Zm8.46,0l-.39-1.28h-.07c-.35.48-.81.87-1.34,1.14-.55.22-1.14.32-1.73.3-.77.05-1.53-.22-2.11-.73-.53-.55-.81-1.3-.76-2.07-.05-.85.35-1.66,1.05-2.14.98-.55,2.09-.83,3.21-.79l1.58-.05v-.48c.04-.48-.11-.95-.41-1.32-.35-.32-.81-.48-1.27-.44-.46,0-.92.07-1.35.21-.43.14-.84.3-1.24.49l-.63-1.4c.52-.27,1.07-.47,1.63-.59.55-.13,1.11-.2,1.68-.2.94-.07,1.88.2,2.64.76.64.63.97,1.51.89,2.4v6.18h-1.39Zm-2.91-1.33c.62.03,1.24-.18,1.71-.59.45-.44.68-1.04.64-1.66v-.8l-1.18.05c-.7-.02-1.38.14-2,.46-.42.28-.66.76-.63,1.26-.02.35.11.7.37.95.31.25.7.37,1.09.34Zm8.98,1.33h-1.95v-12.92h1.95v12.92Zm-130.49,13.42h4.47v6.09c-.68.23-1.39.4-2.1.51-.72.1-1.45.15-2.18.15-1.59.1-3.14-.5-4.25-1.63-1.06-1.29-1.6-2.93-1.49-4.6-.1-1.7.51-3.36,1.68-4.59,1.26-1.16,2.93-1.75,4.64-1.66,1.24,0,2.46.24,3.6.73l-.7,1.65c-.92-.44-1.93-.67-2.95-.68-1.15-.06-2.27.39-3.07,1.22-.79.92-1.2,2.12-1.13,3.34-.09,1.21.28,2.42,1.02,3.38.75.8,1.83,1.23,2.93,1.16.69,0,1.38-.09,2.06-.24v-3.13h-2.51v-1.7Zm13.65,6.58l-.27-1.2h-.1c-.29.44-.69.78-1.16,1-.54.25-1.12.38-1.71.37-.91.07-1.81-.23-2.49-.83-.6-.7-.89-1.6-.82-2.51v-6h1.97v5.66c-.04.56.11,1.12.43,1.58.35.38.84.57,1.35.53.68.06,1.35-.22,1.81-.74.45-.74.65-1.6.58-2.46v-4.57h1.96v9.18h-1.53Zm6.27,0h-1.95v-9.18h1.95v9.18Zm-2.06-11.61c-.02-.3.08-.59.29-.81.22-.2.52-.3.82-.28.29-.02.58.08.8.28.2.22.31.51.29.81.02.29-.09.57-.29.78-.22.2-.51.3-.8.29-.3.02-.6-.08-.82-.29-.2-.21-.3-.49-.29-.78Zm7.95,11.78c-1.04.05-2.04-.42-2.68-1.24-.7-1.03-1.04-2.26-.96-3.49-.08-1.25.27-2.48.97-3.51.64-.83,1.65-1.3,2.7-1.26,1.09-.06,2.13.45,2.76,1.34h.1c-.08-.52-.13-1.04-.14-1.56v-3.34h1.96v12.92h-1.53l-.34-1.2h-.09c-.61.91-1.65,1.42-2.75,1.37h0Zm.52-1.58c.66.06,1.3-.19,1.75-.68.42-.65.62-1.42.56-2.2v-.27c.08-.86-.12-1.72-.56-2.47-.44-.51-1.1-.79-1.77-.73-.64-.02-1.24.29-1.58.83-.41.72-.61,1.55-.56,2.38-.05.81.14,1.62.54,2.33.36.54.97.84,1.62.81Zm12.72,1.41l-.39-1.28h-.07c-.35.48-.81.87-1.34,1.14-.55.22-1.14.32-1.73.3-.77.05-1.53-.22-2.11-.73-.53-.55-.81-1.3-.76-2.07-.05-.85.35-1.66,1.05-2.14.98-.55,2.09-.83,3.21-.79l1.59-.05v-.48c.04-.48-.11-.95-.41-1.32-.35-.32-.81-.48-1.27-.44-.46,0-.92.07-1.35.21-.43.14-.84.3-1.25.49l-.63-1.4c.52-.27,1.07-.47,1.64-.59.55-.13,1.11-.2,1.68-.2.94-.07,1.88.2,2.64.76.64.63.97,1.51.89,2.4v6.18h-1.39Zm-2.91-1.33c.62.03,1.24-.18,1.71-.59.44-.44.68-1.04.64-1.66v-.8l-1.18.05c-.7-.02-1.38.14-2,.46-.42.28-.66.76-.63,1.26-.02.35.11.7.36.95.31.25.7.37,1.09.34Zm15.1,1.33h-1.96v-5.65c.04-.56-.11-1.12-.43-1.58-.35-.37-.85-.57-1.36-.52-.69-.06-1.36.21-1.81.73-.45.73-.64,1.59-.57,2.45v4.57h-1.95v-9.18h1.53l.27,1.2h.1c.29-.45.7-.8,1.18-1.01.53-.24,1.11-.36,1.69-.36,2.2,0,3.3,1.12,3.3,3.36v5.99Zm6.42.17c-1.18.08-2.34-.36-3.17-1.22-.78-.99-1.17-2.23-1.08-3.49-.09-1.29.32-2.56,1.13-3.56.86-.87,2.06-1.33,3.28-1.25.9-.01,1.79.17,2.61.54l-.59,1.57c-.65-.28-1.34-.44-2.04-.48-1.59,0-2.38,1.05-2.38,3.16-.06.82.15,1.63.59,2.32.42.53,1.07.82,1.74.78.86,0,1.71-.22,2.46-.65v1.7c-.35.2-.72.35-1.12.44-.48.1-.96.14-1.45.13Zm8.72,0c-1.24.07-2.46-.38-3.35-1.25-.85-.94-1.28-2.18-1.21-3.44-.07-1.28.33-2.54,1.12-3.54.78-.87,1.91-1.34,3.07-1.29,1.07-.06,2.11.34,2.87,1.1.74.84,1.12,1.93,1.06,3.05v1.05h-6.12c-.02.75.24,1.48.72,2.05.51.5,1.21.76,1.92.72.51,0,1.02-.05,1.51-.15.52-.12,1.02-.29,1.51-.51v1.58c-.46.22-.94.38-1.44.48-.55.1-1.11.15-1.67.15Zm-.36-8.03c-.56-.02-1.1.19-1.49.59-.41.48-.64,1.09-.67,1.72h4.17c.03-.62-.16-1.23-.55-1.72-.38-.4-.92-.62-1.47-.58Zm17.77,4.57c.04.99-.39,1.93-1.17,2.54-.94.66-2.08.99-3.23.92-1.16.04-2.31-.18-3.37-.64v-1.87c.57.26,1.16.47,1.76.61.57.14,1.15.22,1.74.22.61.05,1.23-.11,1.74-.45.37-.29.58-.73.56-1.2,0-.44-.18-.86-.51-1.15-.65-.48-1.36-.86-2.12-1.12-.9-.31-1.7-.83-2.34-1.54-.46-.59-.7-1.33-.68-2.08-.04-.92.36-1.81,1.08-2.39.84-.62,1.86-.93,2.9-.87,1.2,0,2.38.27,3.47.76l-.63,1.62c-.91-.42-1.89-.65-2.89-.68-.52-.04-1.04.11-1.46.42-.33.27-.51.68-.5,1.11,0,.28.06.56.2.81.17.26.39.48.66.63.53.31,1.08.57,1.64.79.69.26,1.35.61,1.96,1.04.39.29.7.66.91,1.09.2.45.3.93.29,1.42Zm6.15,3.46c-1.24.07-2.46-.38-3.35-1.25-.85-.94-1.28-2.18-1.21-3.44-.07-1.28.33-2.54,1.12-3.54.78-.87,1.91-1.35,3.08-1.29,1.07-.06,2.11.34,2.87,1.1.74.84,1.12,1.94,1.05,3.05v1.05h-6.12c-.02.75.23,1.48.72,2.05.51.5,1.21.76,1.92.72.51,0,1.02-.05,1.51-.15.52-.12,1.02-.29,1.51-.51v1.58c-.46.22-.94.38-1.44.48-.55.1-1.11.15-1.67.14h0Zm-.36-8.04c-.56-.02-1.1.19-1.49.59-.41.48-.64,1.09-.67,1.72h4.17c.03-.62-.16-1.23-.55-1.72-.38-.4-.91-.61-1.46-.58h0Zm12.31,5.25c.04.81-.33,1.58-.98,2.06-.84.53-1.82.78-2.81.72-1.01.04-2.02-.15-2.95-.56v-1.68c.94.46,1.97.72,3.01.75,1.2,0,1.8-.36,1.8-1.09,0-.21-.06-.42-.2-.58-.19-.2-.41-.36-.65-.48-.41-.21-.84-.4-1.27-.56-.79-.25-1.53-.67-2.15-1.23-.38-.44-.59-1.01-.56-1.59-.03-.73.33-1.43.95-1.83.78-.47,1.68-.7,2.59-.65,1.06,0,2.1.22,3.06.66l-.63,1.47c-.79-.36-1.64-.57-2.5-.61-1.03,0-1.54.29-1.54.88,0,.29.15.57.4.73.55.34,1.14.61,1.76.82.58.2,1.13.47,1.65.81.32.22.58.5.76.84.18.35.26.75.25,1.14h0Zm8.28,0c.04.81-.33,1.58-.98,2.06-.84.53-1.82.78-2.81.72-1.01.04-2.02-.15-2.95-.56v-1.68c.94.46,1.97.72,3.01.75,1.2,0,1.8-.36,1.8-1.09,0-.21-.06-.42-.2-.58-.19-.2-.41-.36-.66-.48-.41-.21-.84-.4-1.27-.56-.79-.25-1.53-.67-2.15-1.23-.38-.44-.59-1.01-.56-1.59-.03-.73.33-1.43.95-1.83.78-.47,1.68-.7,2.59-.65,1.06,0,2.1.22,3.06.66l-.63,1.47c-.79-.36-1.64-.57-2.5-.61-1.03,0-1.54.29-1.54.88,0,.29.15.57.4.73.55.34,1.14.61,1.76.82.58.2,1.13.47,1.65.81.32.22.58.5.76.84.18.35.26.74.25,1.14h0Zm4.06,2.62h-1.95v-9.18h1.95v9.18Zm-2.07-11.61c-.02-.3.08-.59.29-.81.22-.2.52-.3.82-.28.29-.02.58.08.8.28.2.22.31.51.29.81.02.29-.09.57-.29.78-.22.2-.51.3-.8.29-.3.02-.6-.08-.82-.29-.2-.21-.3-.49-.29-.78Zm13,7.01c.08,1.27-.34,2.53-1.15,3.51-.84.87-2.01,1.33-3.21,1.26-.8.02-1.58-.19-2.27-.58-.66-.39-1.19-.97-1.52-1.67-.37-.79-.55-1.65-.53-2.52-.08-1.27.33-2.51,1.15-3.49.84-.87,2.02-1.33,3.23-1.25,1.19-.06,2.34.41,3.15,1.28.81.96,1.23,2.2,1.16,3.46h0Zm-6.68,0c0,2.12.78,3.18,2.35,3.18s2.32-1.06,2.32-3.18-.78-3.15-2.34-3.15c-.69-.06-1.37.25-1.78.81-.41.71-.6,1.52-.55,2.33h0Zm17,4.61h-1.96v-5.65c.04-.56-.11-1.12-.43-1.58-.35-.37-.85-.57-1.36-.52-.69-.06-1.36.21-1.81.73-.45.73-.65,1.59-.57,2.45v4.57h-1.95v-9.18h1.53l.27,1.2h.1c.29-.44.7-.79,1.18-1.01.53-.24,1.11-.36,1.69-.36,2.2,0,3.3,1.12,3.3,3.36v5.99Z"/></g></svg>