<?xml version="1.0" encoding="utf-8"?>
<!-- Generator: Adobe Illustrator 22.1.0, SVG Export Plug-In . SVG Version: 6.00 Build 0)  -->
<svg version="1.1" id="Layer_1" xmlns="http://www.w3.org/2000/svg" xmlns:xlink="http://www.w3.org/1999/xlink" x="0px" y="0px"
	 viewBox="0 0 1280 302.1" style="enable-background:new 0 0 1280 302.1;" xml:space="preserve">
<style type="text/css">
	.st0{opacity:0.1;fill:#521F70;}
	.st1{opacity:0.1;fill:none;stroke:#FFFFFF;stroke-miterlimit:10;}
	.st2{display:none;opacity:0.1;}
	.st3{display:inline;}
	.st4{clip-path:url(#SVGID_2_);fill:#521F70;}
	.st5{clip-path:url(#SVGID_2_);fill:none;stroke:#FFFFFF;stroke-miterlimit:10;}
	.st6{clip-path:url(#SVGID_4_);fill:#301E6E;}
	.st7{display:inline;fill:#521F70;}
</style>
<path class="st0" d="M52.2,175.8c-14.2,0-25.7-11.5-25.7-25.7c0-14.2,11.5-25.7,25.7-25.7c14.2,0,25.7,11.5,25.7,25.7
	C77.9,164.3,66.4,175.8,52.2,175.8 M52.2,118.4c-17.5,0-31.7,14.2-31.7,31.7c0,17.5,14.2,31.7,31.7,31.7c17.5,0,31.7-14.2,31.7-31.7
	C83.9,132.6,69.7,118.4,52.2,118.4"/>
<path class="st1" d="M52.2,175.8c-14.2,0-25.7-11.5-25.7-25.7c0-14.2,11.5-25.7,25.7-25.7c14.2,0,25.7,11.5,25.7,25.7
	C77.9,164.3,66.4,175.8,52.2,175.8z M52.2,118.4c-17.5,0-31.7,14.2-31.7,31.7c0,17.5,14.2,31.7,31.7,31.7
	c17.5,0,31.7-14.2,31.7-31.7C83.9,132.6,69.7,118.4,52.2,118.4z"/>
<g class="st2">
	<g class="st3">
		<defs>
			<rect id="SVGID_1_" x="1167.2" y="80.9" width="229.7" height="209.5"/>
		</defs>
		<clipPath id="SVGID_2_">
			<use xlink:href="#SVGID_1_"  style="overflow:visible;"/>
		</clipPath>
		<path class="st4" d="M1282.1,224.8c-18.3,0-33.1-14.8-33.1-33.1c0-18.2,14.9-33.1,33.1-33.1c18.3,0,33.1,14.8,33.1,33.1
			C1315.2,209.9,1300.3,224.8,1282.1,224.8 M1282.1,154.9c-20.3,0-36.9,16.5-36.9,36.8c0,20.3,16.5,36.8,36.9,36.8
			c20.3,0,36.9-16.5,36.9-36.8C1318.9,171.4,1302.4,154.9,1282.1,154.9"/>
		<path class="st5" d="M1282.1,224.8c-18.3,0-33.1-14.8-33.1-33.1c0-18.2,14.9-33.1,33.1-33.1c18.3,0,33.1,14.8,33.1,33.1
			C1315.2,209.9,1300.3,224.8,1282.1,224.8z M1282.1,154.9c-20.3,0-36.9,16.5-36.9,36.8c0,20.3,16.5,36.8,36.9,36.8
			c20.3,0,36.9-16.5,36.9-36.8C1318.9,171.4,1302.4,154.9,1282.1,154.9z"/>
		<path class="st4" d="M1282.1,206.3c-8.1,0-14.7-6.6-14.7-14.6c0-8.1,6.6-14.6,14.7-14.6c8.1,0,14.7,6.6,14.7,14.6
			C1296.7,199.8,1290.2,206.3,1282.1,206.3 M1282.1,173.6c-10,0-18.1,8.1-18.1,18.1s8.1,18.1,18.1,18.1c10,0,18.1-8.1,18.1-18.1
			S1292,173.6,1282.1,173.6"/>
		<path class="st5" d="M1282.1,206.3c-8.1,0-14.7-6.6-14.7-14.6c0-8.1,6.6-14.6,14.7-14.6c8.1,0,14.7,6.6,14.7,14.6
			C1296.7,199.8,1290.2,206.3,1282.1,206.3z M1282.1,173.6c-10,0-18.1,8.1-18.1,18.1s8.1,18.1,18.1,18.1c10,0,18.1-8.1,18.1-18.1
			S1292,173.6,1282.1,173.6z"/>
		<path class="st4" d="M1351.8,207.3c-2.8-5.4-5.8-10.7-8.9-15.5l0.1-0.1l-0.1-0.1c3.2-4.8,6.2-10.1,8.9-15.5
			c9.5,6.4,17.7,12.8,21.2,15.6C1369.5,194.5,1361.2,200.9,1351.8,207.3 M1360.8,237.1c-4.5,0.7-14.8,2.1-26.2,2.9
			c0.3-6,0.4-12.2,0-17.8l0.2-0.1l-0.1-0.2c5.1-2.5,10.4-5.7,15.5-8.9C1355.3,223.2,1359.2,232.9,1360.8,237.1 M1337.5,191.7
			c-2.3,2.1-5,4-6.3,4c-2.2,0-4-1.8-4-4c0-2.2,1.8-4,4-4C1332.4,187.7,1335.1,189.6,1337.5,191.7 M1330,164c-0.9,3-2.3,6-3.4,6.6
			c-0.6,0.4-1.3,0.5-2,0.5c-1.4,0-2.8-0.8-3.5-2c-0.5-0.9-0.7-2-0.4-3c0.3-1,0.9-1.9,1.9-2.4c0.2-0.1,0.7-0.3,2.2-0.3
			C1326.5,163.3,1328.6,163.7,1330,164 M1234.1,164c1.5-0.3,3.5-0.7,5.3-0.7c1.4,0,2,0.2,2.2,0.3c0.9,0.5,1.6,1.4,1.9,2.5
			c0.3,1,0.1,2.1-0.4,3c-0.7,1.2-2.1,2-3.5,2c-0.7,0-1.4-0.2-2-0.5C1236.4,170,1235,167,1234.1,164 M1226.7,191.7c2.3-2.1,5-4,6.3-4
			c2.2,0,4,1.8,4,4c0,2.2-1.8,4-4,4C1231.7,195.7,1229,193.8,1226.7,191.7 M1234.1,219.4c0.9-3,2.3-6,3.4-6.6c0.6-0.4,1.3-0.5,2-0.5
			c1.4,0,2.8,0.8,3.5,2c0.5,0.9,0.7,2,0.4,3c-0.3,1-1,1.9-1.9,2.4c-0.2,0.1-0.7,0.3-2.2,0.3C1237.6,220,1235.6,219.7,1234.1,219.4
			 M1330,219.4c-1.5,0.3-3.5,0.7-5.3,0.7c-1.4,0-2-0.2-2.2-0.3c-0.9-0.5-1.6-1.4-1.9-2.5c-0.3-1-0.1-2.1,0.4-3c0.7-1.2,2.1-2,3.5-2
			c0.7,0,1.4,0.2,2,0.5C1327.7,213.4,1329.1,216.4,1330,219.4 M1333.7,218.1c-0.9-2.8-2.7-7.3-5.2-8.7c-1.2-0.7-2.6-1.1-4-1.1
			c-2.8,0-5.5,1.5-6.9,4c-1.1,1.8-1.3,4-0.8,6c0.6,2,1.9,3.7,3.7,4.8c1,0.6,2.4,0.9,4.1,0.9c2.1,0,4.4-0.4,6.1-0.8
			c0.3,5.4,0.2,11.3-0.1,17.1c-3.3,0.2-6.7,0.3-10,0.3c-2.5,0-4.9-0.1-7.1-0.2c0.6-2.9,1.3-7.6-0.1-10.1c-1.4-2.5-4-4-6.9-4
			c-1.4,0-2.8,0.4-4,1.1c-1.8,1.1-3.2,2.8-3.7,4.8c-0.5,2-0.3,4.2,0.8,6c1.4,2.5,5.9,4.3,8.7,5.2c-2.5,4.8-5.5,9.9-8.6,14.7
			c-5.1-2.6-10.3-5.5-14.8-8.5c2-2.2,5-5.9,5-8.8c0-4.4-3.6-7.9-7.9-7.9c-4.4,0-7.9,3.6-7.9,7.9c0,2.9,3,6.6,5,8.8
			c-4.5,3-9.7,5.8-14.8,8.5c-3.1-4.8-6.2-9.9-8.6-14.7c2.8-0.9,7.3-2.7,8.7-5.2c1.1-1.8,1.3-3.9,0.8-6c-0.5-2-1.9-3.8-3.7-4.8
			c-1.2-0.7-2.6-1.1-4-1.1c-2.8,0-5.5,1.5-6.8,4c-1.5,2.5-0.7,7.2-0.1,10.1c-2.2,0.1-4.6,0.2-7.2,0.2c-3.3,0-6.6-0.1-10-0.3
			c-0.3-5.8-0.4-11.7-0.1-17.1c1.7,0.4,4,0.8,6.1,0.8c1.8,0,3.1-0.3,4.1-0.9c1.8-1.1,3.1-2.8,3.7-4.8c0.6-2,0.3-4.2-0.8-6
			c-1.4-2.5-4-4-6.9-4c-1.4,0-2.8,0.4-4,1.1c-2.5,1.5-4.3,5.9-5.2,8.7c-4.9-2.5-9.9-5.5-14.8-8.6c2.6-5.1,5.5-10.3,8.5-14.8
			c2.2,2,5.9,5,8.9,5c4.4,0,7.9-3.5,7.9-7.9c0-4.4-3.6-7.9-7.9-7.9c-2.9,0-6.7,3-8.9,5c-3-4.5-5.8-9.7-8.5-14.8
			c4.9-3.1,9.9-6.2,14.8-8.6c0.9,2.8,2.7,7.3,5.2,8.7c1.2,0.7,2.6,1.1,4,1.1c2.8,0,5.5-1.5,6.9-4c1.1-1.8,1.3-3.9,0.8-6
			c-0.5-2.1-1.9-3.8-3.7-4.8c-1-0.6-2.4-0.9-4.1-0.9c-2.1,0-4.4,0.4-6,0.8c-0.3-5.4-0.2-11.3,0.1-17.1c3.3-0.2,6.7-0.3,10-0.3
			c2.5,0,4.9,0.1,7.2,0.2c-0.6,2.9-1.3,7.6,0.1,10.1c1.4,2.4,4,4,6.9,4c1.4,0,2.8-0.4,4-1.1c1.8-1.1,3.2-2.8,3.7-4.8
			c0.5-2,0.3-4.2-0.8-6c-1.4-2.5-5.9-4.3-8.7-5.2c2.5-4.8,5.5-9.9,8.6-14.7c5.1,2.6,10.3,5.5,14.8,8.5c-2,2.2-5,5.9-5,8.8
			c0,4.4,3.6,7.9,7.9,7.9c4.4,0,7.9-3.6,7.9-7.9c0-2.9-3-6.6-5-8.8c4.5-3,9.7-5.8,14.8-8.5c3.1,4.8,6.2,9.9,8.6,14.7
			c-2.8,0.9-7.3,2.7-8.7,5.2c-1.1,1.8-1.3,3.9-0.8,6c0.5,2,1.9,3.8,3.7,4.8c1.2,0.7,2.6,1.1,4,1.1c2.8,0,5.5-1.5,6.8-4
			c1.5-2.5,0.8-7.2,0.1-10.1c2.2-0.1,4.6-0.2,7.2-0.2c3.3,0,6.6,0.1,9.9,0.3c0.3,5.8,0.4,11.7,0.1,17.1c-1.7-0.4-4-0.8-6-0.8
			c-1.8,0-3.1,0.3-4.1,0.9c-1.8,1.1-3.1,2.8-3.7,4.8c-0.6,2-0.3,4.2,0.8,6c1.4,2.5,4,4,6.9,4c1.4,0,2.8-0.4,4-1.1
			c2.5-1.5,4.3-5.9,5.2-8.7c4.9,2.5,9.9,5.5,14.8,8.6c-2.6,5.1-5.5,10.3-8.5,14.8c-2.2-2-5.9-5-8.9-5c-4.4,0-7.9,3.5-7.9,7.9
			c0,4.4,3.6,7.9,7.9,7.9c2.9,0,6.7-3,8.9-5c3,4.6,5.8,9.7,8.5,14.8C1343.6,212.6,1338.6,215.6,1333.7,218.1 M1309.8,239.6
			c-3-1-6-2.4-6.6-3.5c-0.5-0.9-0.7-2-0.4-3c0.3-1,0.9-1.9,1.9-2.4c0.6-0.4,1.3-0.6,2-0.6c1.5,0,2.8,0.8,3.5,2
			C1310.7,233.2,1310.4,236.5,1309.8,239.6 M1327.5,270.4c-4.2-1.7-13.9-5.6-24.2-10.6c3.3-5.1,6.4-10.3,8.9-15.4l0.2,0.1l0.1-0.2
			c2.5,0.2,5.3,0.2,8.2,0.2h0c3.2,0,6.5-0.1,9.7-0.3C1329.7,255.6,1328.2,265.9,1327.5,270.4 M1278,240.8c0-2.2,1.8-4.1,4-4.1
			c2.2,0,4,1.8,4,4.1c0,1.2-1.9,3.9-4,6.3C1279.9,244.7,1278,242,1278,240.8 M1282.1,282.5c-2.8-3.5-9.3-11.8-15.6-21.2
			c5.4-2.8,10.7-5.8,15.5-8.9l0.1,0.1l0.1-0.1c4.8,3.2,10.1,6.2,15.5,8.9C1291.3,270.8,1284.9,279,1282.1,282.5 M1254,232.2
			c0.7-1.3,2-2,3.5-2c0.7,0,1.4,0.2,2,0.6c0.9,0.5,1.6,1.4,1.9,2.4c0.3,1,0.1,2.1-0.4,3c-0.6,1.1-3.6,2.5-6.6,3.4
			C1253.8,236.7,1253.4,233.3,1254,232.2 M1236.6,270.4c-0.7-4.5-2.1-14.8-2.9-26.2c3.2,0.2,6.5,0.3,9.7,0.3c2.9,0,5.6-0.1,8.2-0.2
			l0.1,0.2l0.2-0.1c2.5,5.1,5.7,10.4,8.9,15.4C1250.5,264.8,1240.8,268.7,1236.6,270.4 M1203.3,237.1c1.6-4.2,5.6-13.9,10.6-24.1
			c5.1,3.3,10.4,6.4,15.5,8.9l-0.1,0.2l0.2,0.1c-0.4,5.7-0.3,11.8,0,17.9C1218.2,239.3,1207.8,237.8,1203.3,237.1 M1191.1,191.7
			c3.5-2.8,11.8-9.3,21.2-15.6c2.8,5.4,5.8,10.7,8.9,15.5l-0.1,0.1l0.1,0.1c-3.2,4.8-6.2,10.1-8.9,15.5
			C1202.9,200.9,1194.7,194.5,1191.1,191.7 M1203.3,146.3c4.5-0.7,14.8-2.1,26.2-2.9c-0.3,6-0.4,12.2,0,17.8l-0.2,0.1l0.1,0.2
			c-5.1,2.5-10.4,5.7-15.5,8.9C1208.9,160.2,1205,150.5,1203.3,146.3 M1254.4,143.7c3,0.9,6,2.4,6.6,3.5c0.5,0.9,0.7,2,0.4,3
			c-0.3,1-0.9,1.9-1.9,2.4c-0.6,0.4-1.3,0.5-2,0.5c-1.5,0-2.8-0.8-3.5-2C1253.4,150.2,1253.7,146.8,1254.4,143.7 M1236.6,113
			c4.2,1.7,13.9,5.6,24.2,10.6c-3.3,5.1-6.4,10.3-8.9,15.4l-0.2-0.1l-0.1,0.2c-2.5-0.2-5.3-0.2-8.2-0.2c-3.2,0-6.5,0.1-9.7,0.3
			C1234.5,127.8,1235.9,117.5,1236.6,113 M1286.1,142.6c0,2.2-1.8,4.1-4,4.1c-2.2,0-4-1.8-4-4.1c0-1.2,1.9-3.9,4-6.3
			C1284.2,138.7,1286.1,141.4,1286.1,142.6 M1282.1,100.8c2.8,3.5,9.3,11.8,15.6,21.2c-5.4,2.8-10.7,5.8-15.5,8.9l-0.1-0.1l-0.1,0.1
			c-4.8-3.2-10.1-6.2-15.5-8.9C1272.8,112.6,1279.2,104.4,1282.1,100.8 M1310.1,151.2c-0.7,1.3-2,2-3.5,2c-0.7,0-1.4-0.2-2-0.5
			c-0.9-0.5-1.6-1.4-1.9-2.4c-0.3-1-0.1-2.1,0.4-3c0.6-1.1,3.6-2.5,6.6-3.5C1310.4,146.6,1310.8,150.1,1310.1,151.2 M1327.5,113
			c0.7,4.5,2.1,14.8,2.9,26.2c-3.2-0.2-6.5-0.3-9.7-0.3c-2.9,0-5.6,0.1-8.2,0.2l-0.1-0.2l-0.2,0.1c-2.5-5.1-5.7-10.4-8.9-15.4
			C1313.6,118.6,1323.3,114.7,1327.5,113 M1360.8,146.3c-1.6,4.2-5.6,13.9-10.6,24.1c-5.1-3.3-10.4-6.4-15.5-8.9l0.1-0.2l-0.2-0.1
			c0.4-5.7,0.3-11.8,0-17.8C1346,144.1,1356.3,145.6,1360.8,146.3 M1379.1,191.7l-1.8-1.5c-0.7-0.5-11.1-9.2-23.8-17.6
			c6.4-13,11-25.2,11.7-27l0.8-2.5l-3.8-0.5c-4.1-0.6-15.4-2.3-27.8-3.1c-0.8-12.5-2.5-23.7-3.1-27.8l-0.8-3.9l-2.3,0.8l0,0
			c-1.8,0.7-13.9,5.3-27,11.7c-8.5-12.7-17.1-23.1-17.7-23.8l-1.5-1.8l-1.5,1.8c-0.5,0.6-9.2,11.1-17.7,23.8
			c-13-6.4-25.1-11-27-11.7l-2.6-0.9l-0.5,3.9c-0.7,4.1-2.3,15.3-3.1,27.8c-12.4,0.8-23.7,2.5-27.8,3.1l-3.7,0.9l0.7,2.2
			c0.7,1.8,5.3,13.9,11.7,27c-12.7,8.5-23.2,17.1-23.8,17.6l-1.8,1.5l1.8,1.5c0.7,0.5,11.1,9.1,23.8,17.6c-6.4,13-11,25.2-11.7,27
			l-0.8,2.3l3.8,0.7c4.1,0.6,15.4,2.3,27.8,3.1c0.8,12.5,2.5,23.7,3.1,27.8l0,0.1l0,0.1l0.8,3.8l2.2-1c1.8-0.7,13.9-5.3,27-11.7
			c8.5,12.7,17.1,23.1,17.7,23.8l1.5,1.8l1.5-1.8c0.5-0.6,9.2-11.1,17.7-23.8c13,6.4,25.1,11,27,11.7l2.4,0.8l0.6-3.6l0-0.2
			c0.7-4.1,2.3-15.3,3.1-27.8c12.4-0.8,23.7-2.5,27.8-3.1l3.9-0.6l-0.8-2.4c-0.7-1.8-5.3-13.9-11.7-27c12.7-8.5,23.2-17.1,23.8-17.6
			L1379.1,191.7z"/>
		<path class="st5" d="M1351.8,207.3c-2.8-5.4-5.8-10.7-8.9-15.5l0.1-0.1l-0.1-0.1c3.2-4.8,6.2-10.1,8.9-15.5
			c9.5,6.4,17.7,12.8,21.2,15.6C1369.5,194.5,1361.2,200.9,1351.8,207.3z M1360.8,237.1c-4.5,0.7-14.8,2.1-26.2,2.9
			c0.3-6,0.4-12.2,0-17.8l0.2-0.1l-0.1-0.2c5.1-2.5,10.4-5.7,15.5-8.9C1355.3,223.2,1359.2,232.9,1360.8,237.1z M1337.5,191.7
			c-2.3,2.1-5,4-6.3,4c-2.2,0-4-1.8-4-4c0-2.2,1.8-4,4-4C1332.4,187.7,1335.1,189.6,1337.5,191.7z M1330,164c-0.9,3-2.3,6-3.4,6.6
			c-0.6,0.4-1.3,0.5-2,0.5c-1.4,0-2.8-0.8-3.5-2c-0.5-0.9-0.7-2-0.4-3c0.3-1,0.9-1.9,1.9-2.4c0.2-0.1,0.7-0.3,2.2-0.3
			C1326.5,163.3,1328.6,163.7,1330,164z M1234.1,164c1.5-0.3,3.5-0.7,5.3-0.7c1.4,0,2,0.2,2.2,0.3c0.9,0.5,1.6,1.4,1.9,2.5
			c0.3,1,0.1,2.1-0.4,3c-0.7,1.2-2.1,2-3.5,2c-0.7,0-1.4-0.2-2-0.5C1236.4,170,1235,167,1234.1,164z M1226.7,191.7
			c2.3-2.1,5-4,6.3-4c2.2,0,4,1.8,4,4c0,2.2-1.8,4-4,4C1231.7,195.7,1229,193.8,1226.7,191.7z M1234.1,219.4c0.9-3,2.3-6,3.4-6.6
			c0.6-0.4,1.3-0.5,2-0.5c1.4,0,2.8,0.8,3.5,2c0.5,0.9,0.7,2,0.4,3c-0.3,1-1,1.9-1.9,2.4c-0.2,0.1-0.7,0.3-2.2,0.3
			C1237.6,220,1235.6,219.7,1234.1,219.4z M1330,219.4c-1.5,0.3-3.5,0.7-5.3,0.7c-1.4,0-2-0.2-2.2-0.3c-0.9-0.5-1.6-1.4-1.9-2.5
			c-0.3-1-0.1-2.1,0.4-3c0.7-1.2,2.1-2,3.5-2c0.7,0,1.4,0.2,2,0.5C1327.7,213.4,1329.1,216.4,1330,219.4z M1333.7,218.1
			c-0.9-2.8-2.7-7.3-5.2-8.7c-1.2-0.7-2.6-1.1-4-1.1c-2.8,0-5.5,1.5-6.9,4c-1.1,1.8-1.3,4-0.8,6c0.6,2,1.9,3.7,3.7,4.8
			c1,0.6,2.4,0.9,4.1,0.9c2.1,0,4.4-0.4,6.1-0.8c0.3,5.4,0.2,11.3-0.1,17.1c-3.3,0.2-6.7,0.3-10,0.3c-2.5,0-4.9-0.1-7.1-0.2
			c0.6-2.9,1.3-7.6-0.1-10.1c-1.4-2.5-4-4-6.9-4c-1.4,0-2.8,0.4-4,1.1c-1.8,1.1-3.2,2.8-3.7,4.8c-0.5,2-0.3,4.2,0.8,6
			c1.4,2.5,5.9,4.3,8.7,5.2c-2.5,4.8-5.5,9.9-8.6,14.7c-5.1-2.6-10.3-5.5-14.8-8.5c2-2.2,5-5.9,5-8.8c0-4.4-3.6-7.9-7.9-7.9
			c-4.4,0-7.9,3.6-7.9,7.9c0,2.9,3,6.6,5,8.8c-4.5,3-9.7,5.8-14.8,8.5c-3.1-4.8-6.2-9.9-8.6-14.7c2.8-0.9,7.3-2.7,8.7-5.2
			c1.1-1.8,1.3-3.9,0.8-6c-0.5-2-1.9-3.8-3.7-4.8c-1.2-0.7-2.6-1.1-4-1.1c-2.8,0-5.5,1.5-6.8,4c-1.5,2.5-0.7,7.2-0.1,10.1
			c-2.2,0.1-4.6,0.2-7.2,0.2c-3.3,0-6.6-0.1-10-0.3c-0.3-5.8-0.4-11.7-0.1-17.1c1.7,0.4,4,0.8,6.1,0.8c1.8,0,3.1-0.3,4.1-0.9
			c1.8-1.1,3.1-2.8,3.7-4.8c0.6-2,0.3-4.2-0.8-6c-1.4-2.5-4-4-6.9-4c-1.4,0-2.8,0.4-4,1.1c-2.5,1.5-4.3,5.9-5.2,8.7
			c-4.9-2.5-9.9-5.5-14.8-8.6c2.6-5.1,5.5-10.3,8.5-14.8c2.2,2,5.9,5,8.9,5c4.4,0,7.9-3.5,7.9-7.9c0-4.4-3.6-7.9-7.9-7.9
			c-2.9,0-6.7,3-8.9,5c-3-4.5-5.8-9.7-8.5-14.8c4.9-3.1,9.9-6.2,14.8-8.6c0.9,2.8,2.7,7.3,5.2,8.7c1.2,0.7,2.6,1.1,4,1.1
			c2.8,0,5.5-1.5,6.9-4c1.1-1.8,1.3-3.9,0.8-6c-0.5-2.1-1.9-3.8-3.7-4.8c-1-0.6-2.4-0.9-4.1-0.9c-2.1,0-4.4,0.4-6,0.8
			c-0.3-5.4-0.2-11.3,0.1-17.1c3.3-0.2,6.7-0.3,10-0.3c2.5,0,4.9,0.1,7.2,0.2c-0.6,2.9-1.3,7.6,0.1,10.1c1.4,2.4,4,4,6.9,4
			c1.4,0,2.8-0.4,4-1.1c1.8-1.1,3.2-2.8,3.7-4.8c0.5-2,0.3-4.2-0.8-6c-1.4-2.5-5.9-4.3-8.7-5.2c2.5-4.8,5.5-9.9,8.6-14.7
			c5.1,2.6,10.3,5.5,14.8,8.5c-2,2.2-5,5.9-5,8.8c0,4.4,3.6,7.9,7.9,7.9c4.4,0,7.9-3.6,7.9-7.9c0-2.9-3-6.6-5-8.8
			c4.5-3,9.7-5.8,14.8-8.5c3.1,4.8,6.2,9.9,8.6,14.7c-2.8,0.9-7.3,2.7-8.7,5.2c-1.1,1.8-1.3,3.9-0.8,6c0.5,2,1.9,3.8,3.7,4.8
			c1.2,0.7,2.6,1.1,4,1.1c2.8,0,5.5-1.5,6.8-4c1.5-2.5,0.8-7.2,0.1-10.1c2.2-0.1,4.6-0.2,7.2-0.2c3.3,0,6.6,0.1,9.9,0.3
			c0.3,5.8,0.4,11.7,0.1,17.1c-1.7-0.4-4-0.8-6-0.8c-1.8,0-3.1,0.3-4.1,0.9c-1.8,1.1-3.1,2.8-3.7,4.8c-0.6,2-0.3,4.2,0.8,6
			c1.4,2.5,4,4,6.9,4c1.4,0,2.8-0.4,4-1.1c2.5-1.5,4.3-5.9,5.2-8.7c4.9,2.5,9.9,5.5,14.8,8.6c-2.6,5.1-5.5,10.3-8.5,14.8
			c-2.2-2-5.9-5-8.9-5c-4.4,0-7.9,3.5-7.9,7.9c0,4.4,3.6,7.9,7.9,7.9c2.9,0,6.7-3,8.9-5c3,4.6,5.8,9.7,8.5,14.8
			C1343.6,212.6,1338.6,215.6,1333.7,218.1z M1309.8,239.6c-3-1-6-2.4-6.6-3.5c-0.5-0.9-0.7-2-0.4-3c0.3-1,0.9-1.9,1.9-2.4
			c0.6-0.4,1.3-0.6,2-0.6c1.5,0,2.8,0.8,3.5,2C1310.7,233.2,1310.4,236.5,1309.8,239.6z M1327.5,270.4c-4.2-1.7-13.9-5.6-24.2-10.6
			c3.3-5.1,6.4-10.3,8.9-15.4l0.2,0.1l0.1-0.2c2.5,0.2,5.3,0.2,8.2,0.2h0c3.2,0,6.5-0.1,9.7-0.3
			C1329.7,255.6,1328.2,265.9,1327.5,270.4z M1278,240.8c0-2.2,1.8-4.1,4-4.1c2.2,0,4,1.8,4,4.1c0,1.2-1.9,3.9-4,6.3
			C1279.9,244.7,1278,242,1278,240.8z M1282.1,282.5c-2.8-3.5-9.3-11.8-15.6-21.2c5.4-2.8,10.7-5.8,15.5-8.9l0.1,0.1l0.1-0.1
			c4.8,3.2,10.1,6.2,15.5,8.9C1291.3,270.8,1284.9,279,1282.1,282.5z M1254,232.2c0.7-1.3,2-2,3.5-2c0.7,0,1.4,0.2,2,0.6
			c0.9,0.5,1.6,1.4,1.9,2.4c0.3,1,0.1,2.1-0.4,3c-0.6,1.1-3.6,2.5-6.6,3.4C1253.8,236.7,1253.4,233.3,1254,232.2z M1236.6,270.4
			c-0.7-4.5-2.1-14.8-2.9-26.2c3.2,0.2,6.5,0.3,9.7,0.3c2.9,0,5.6-0.1,8.2-0.2l0.1,0.2l0.2-0.1c2.5,5.1,5.7,10.4,8.9,15.4
			C1250.5,264.8,1240.8,268.7,1236.6,270.4z M1203.3,237.1c1.6-4.2,5.6-13.9,10.6-24.1c5.1,3.3,10.4,6.4,15.5,8.9l-0.1,0.2l0.2,0.1
			c-0.4,5.7-0.3,11.8,0,17.9C1218.2,239.3,1207.8,237.8,1203.3,237.1z M1191.1,191.7c3.5-2.8,11.8-9.3,21.2-15.6
			c2.8,5.4,5.8,10.7,8.9,15.5l-0.1,0.1l0.1,0.1c-3.2,4.8-6.2,10.1-8.9,15.5C1202.9,200.9,1194.7,194.5,1191.1,191.7z M1203.3,146.3
			c4.5-0.7,14.8-2.1,26.2-2.9c-0.3,6-0.4,12.2,0,17.8l-0.2,0.1l0.1,0.2c-5.1,2.5-10.4,5.7-15.5,8.9
			C1208.9,160.2,1205,150.5,1203.3,146.3z M1254.4,143.7c3,0.9,6,2.4,6.6,3.5c0.5,0.9,0.7,2,0.4,3c-0.3,1-0.9,1.9-1.9,2.4
			c-0.6,0.4-1.3,0.5-2,0.5c-1.5,0-2.8-0.8-3.5-2C1253.4,150.2,1253.7,146.8,1254.4,143.7z M1236.6,113c4.2,1.7,13.9,5.6,24.2,10.6
			c-3.3,5.1-6.4,10.3-8.9,15.4l-0.2-0.1l-0.1,0.2c-2.5-0.2-5.3-0.2-8.2-0.2c-3.2,0-6.5,0.1-9.7,0.3
			C1234.5,127.8,1235.9,117.5,1236.6,113z M1286.1,142.6c0,2.2-1.8,4.1-4,4.1c-2.2,0-4-1.8-4-4.1c0-1.2,1.9-3.9,4-6.3
			C1284.2,138.7,1286.1,141.4,1286.1,142.6z M1282.1,100.8c2.8,3.5,9.3,11.8,15.6,21.2c-5.4,2.8-10.7,5.8-15.5,8.9l-0.1-0.1
			l-0.1,0.1c-4.8-3.2-10.1-6.2-15.5-8.9C1272.8,112.6,1279.2,104.4,1282.1,100.8z M1310.1,151.2c-0.7,1.3-2,2-3.5,2
			c-0.7,0-1.4-0.2-2-0.5c-0.9-0.5-1.6-1.4-1.9-2.4c-0.3-1-0.1-2.1,0.4-3c0.6-1.1,3.6-2.5,6.6-3.5
			C1310.4,146.6,1310.8,150.1,1310.1,151.2z M1327.5,113c0.7,4.5,2.1,14.8,2.9,26.2c-3.2-0.2-6.5-0.3-9.7-0.3
			c-2.9,0-5.6,0.1-8.2,0.2l-0.1-0.2l-0.2,0.1c-2.5-5.1-5.7-10.4-8.9-15.4C1313.6,118.6,1323.3,114.7,1327.5,113z M1360.8,146.3
			c-1.6,4.2-5.6,13.9-10.6,24.1c-5.1-3.3-10.4-6.4-15.5-8.9l0.1-0.2l-0.2-0.1c0.4-5.7,0.3-11.8,0-17.8
			C1346,144.1,1356.3,145.6,1360.8,146.3z M1379.1,191.7l-1.8-1.5c-0.7-0.5-11.1-9.2-23.8-17.6c6.4-13,11-25.2,11.7-27l0.8-2.5
			l-3.8-0.5c-4.1-0.6-15.4-2.3-27.8-3.1c-0.8-12.5-2.5-23.7-3.1-27.8l-0.8-3.9l-2.3,0.8l0,0c-1.8,0.7-13.9,5.3-27,11.7
			c-8.5-12.7-17.1-23.1-17.7-23.8l-1.5-1.8l-1.5,1.8c-0.5,0.6-9.2,11.1-17.7,23.8c-13-6.4-25.1-11-27-11.7l-2.6-0.9l-0.5,3.9
			c-0.7,4.1-2.3,15.3-3.1,27.8c-12.4,0.8-23.7,2.5-27.8,3.1l-3.7,0.9l0.7,2.2c0.7,1.8,5.3,13.9,11.7,27
			c-12.7,8.5-23.2,17.1-23.8,17.6l-1.8,1.5l1.8,1.5c0.7,0.5,11.1,9.1,23.8,17.6c-6.4,13-11,25.2-11.7,27l-0.8,2.3l3.8,0.7
			c4.1,0.6,15.4,2.3,27.8,3.1c0.8,12.5,2.5,23.7,3.1,27.8l0,0.1l0,0.1l0.8,3.8l2.2-1c1.8-0.7,13.9-5.3,27-11.7
			c8.5,12.7,17.1,23.1,17.7,23.8l1.5,1.8l1.5-1.8c0.5-0.6,9.2-11.1,17.7-23.8c13,6.4,25.1,11,27,11.7l2.4,0.8l0.6-3.6l0-0.2
			c0.7-4.1,2.3-15.3,3.1-27.8c12.4-0.8,23.7-2.5,27.8-3.1l3.9-0.6l-0.8-2.4c-0.7-1.8-5.3-13.9-11.7-27c12.7-8.5,23.2-17.1,23.8-17.6
			L1379.1,191.7z"/>
	</g>
</g>
<g class="st2">
	<g class="st3">
		<defs>
			<rect id="SVGID_3_" x="1013" y="-2.7" width="178.2" height="158.1"/>
		</defs>
		<clipPath id="SVGID_4_">
			<use xlink:href="#SVGID_3_"  style="overflow:visible;"/>
		</clipPath>
		<path class="st6" d="M1102.1,106.9c-13.5,0-24.6-11-24.6-24.5c0-13.5,11-24.5,24.6-24.5c13.5,0,24.6,11,24.6,24.5
			C1126.6,95.9,1115.6,106.9,1102.1,106.9 M1102.1,55c-15.1,0-27.3,12.2-27.3,27.3c0,15.1,12.3,27.3,27.3,27.3
			c15.1,0,27.3-12.2,27.3-27.3C1129.4,67.3,1117.1,55,1102.1,55"/>
		<path class="st6" d="M1102.1,93.1c-6,0-10.8-4.8-10.8-10.8c0-6,4.8-10.8,10.8-10.8c6,0,10.8,4.8,10.8,10.8
			C1112.9,88.3,1108,93.1,1102.1,93.1 M1102.1,69c-7.4,0-13.3,6-13.3,13.3c0,7.3,6,13.3,13.3,13.3c7.4,0,13.3-6,13.3-13.3
			C1115.4,75,1109.4,69,1102.1,69"/>
		<path class="st6" d="M1153.8,93.9c-2-4-4.3-8-6.6-11.5l0.1-0.1l-0.1-0.1c2.3-3.5,4.6-7.5,6.6-11.5c7,4.7,13.1,9.5,15.8,11.6
			C1167,84.4,1160.9,89.2,1153.8,93.9 M1160.5,116.1c-3.3,0.5-11,1.6-19.5,2.2c0.2-4.5,0.3-9,0-13.3l0.1,0l0-0.2
			c3.8-1.9,7.7-4.2,11.5-6.6C1156.4,105.8,1159.3,112.9,1160.5,116.1 M1143.2,82.3c-1.7,1.6-3.7,3-4.7,3c-1.7,0-3-1.3-3-3
			c0-1.6,1.3-3,3-3C1139.5,79.4,1141.5,80.8,1143.2,82.3 M1137.7,61.8c-0.7,2.2-1.7,4.5-2.6,4.9c-0.5,0.3-1,0.4-1.5,0.4
			c-1.1,0-2.1-0.6-2.6-1.5c-0.4-0.7-0.5-1.5-0.3-2.3c0.2-0.8,0.7-1.4,1.4-1.8c0.1-0.1,0.6-0.3,1.6-0.3
			C1135.1,61.3,1136.6,61.6,1137.7,61.8 M1066.4,61.8c1.1-0.2,2.6-0.5,3.9-0.5c1.1,0,1.5,0.2,1.6,0.3c0.7,0.4,1.2,1.1,1.4,1.8
			c0.2,0.8,0.1,1.6-0.3,2.2c-0.5,0.9-1.5,1.5-2.6,1.5c-0.5,0-1-0.1-1.5-0.4C1068.2,66.3,1067.1,64,1066.4,61.8 M1060.9,82.3
			c1.7-1.6,3.7-3,4.7-3c1.7,0,3,1.3,3,3c0,1.6-1.3,3-3,3C1064.7,85.3,1062.6,83.9,1060.9,82.3 M1066.4,102.9
			c0.7-2.2,1.7-4.5,2.6-4.9c0.5-0.3,1-0.4,1.5-0.4c1.1,0,2.1,0.6,2.6,1.5c0.4,0.7,0.5,1.5,0.3,2.3c-0.2,0.8-0.7,1.4-1.4,1.8
			c-0.1,0.1-0.6,0.3-1.6,0.3C1069.1,103.4,1067.5,103.1,1066.4,102.9 M1137.7,102.9c-1.1,0.2-2.6,0.5-3.9,0.5
			c-1.1,0-1.5-0.2-1.6-0.3c-0.7-0.4-1.2-1-1.4-1.8c-0.2-0.8-0.1-1.6,0.3-2.3c0.5-0.9,1.5-1.5,2.6-1.5c0.5,0,1,0.1,1.5,0.4
			C1135.9,98.4,1137,100.7,1137.7,102.9 M1140.4,102c-0.7-2.1-2-5.4-3.8-6.5c-0.9-0.5-1.9-0.8-2.9-0.8c-2.1,0-4.1,1.1-5.1,2.9
			c-0.8,1.4-1,2.9-0.6,4.5c0.4,1.5,1.4,2.8,2.7,3.6c0.7,0.4,1.7,0.6,3.1,0.6c1.5,0,3.3-0.3,4.5-0.6c0.2,4,0.2,8.4-0.1,12.7
			c-2.5,0.1-5,0.2-7.4,0.2c-1.9,0-3.7,0-5.3-0.1c0.5-2.2,1-5.7-0.1-7.5c-1-1.8-3-3-5.1-3c-1,0-2.1,0.3-3,0.8
			c-1.4,0.8-2.3,2.1-2.7,3.6c-0.4,1.5-0.2,3.1,0.6,4.4c1.1,1.9,4.4,3.2,6.5,3.9c-1.8,3.6-4.1,7.3-6.4,10.9c-3.8-1.9-7.6-4.1-11-6.3
			c1.5-1.6,3.7-4.4,3.7-6.5c0-3.3-2.6-5.9-5.9-5.9c-3.2,0-5.9,2.7-5.9,5.9c0,2.2,2.2,4.9,3.7,6.5c-3.4,2.2-7.2,4.3-11,6.3
			c-2.3-3.6-4.6-7.3-6.4-10.9c2.1-0.7,5.4-2,6.5-3.8c0.8-1.4,1-2.9,0.6-4.5c-0.4-1.5-1.4-2.8-2.7-3.6c-0.9-0.5-1.9-0.8-3-0.8
			c-2.1,0-4.1,1.1-5.1,2.9c-1.1,1.9-0.6,5.4-0.1,7.5c-1.7,0.1-3.4,0.1-5.3,0.1c-2.4,0-4.9-0.1-7.4-0.2c-0.2-4.3-0.3-8.7-0.1-12.7
			c1.2,0.3,3,0.6,4.5,0.6c1.3,0,2.3-0.2,3.1-0.6c1.4-0.8,2.3-2.1,2.7-3.6c0.4-1.5,0.2-3.1-0.6-4.5c-1-1.8-3-3-5.1-3
			c-1,0-2,0.3-2.9,0.8c-1.9,1.1-3.2,4.4-3.8,6.5c-3.6-1.8-7.4-4.1-11-6.4c1.9-3.8,4.1-7.6,6.3-11c1.6,1.5,4.4,3.7,6.6,3.7
			c3.2,0,5.9-2.6,5.9-5.9c0-3.2-2.6-5.9-5.9-5.9c-2.2,0-4.9,2.2-6.6,3.7c-2.2-3.4-4.3-7.2-6.3-11c3.6-2.3,7.4-4.6,11-6.4
			c0.7,2.1,2,5.4,3.8,6.5c0.9,0.5,1.9,0.8,2.9,0.8c2.1,0,4.1-1.1,5.1-2.9c0.8-1.3,1-2.9,0.6-4.4c-0.4-1.5-1.4-2.8-2.8-3.6
			c-0.7-0.4-1.7-0.6-3.1-0.6c-1.5,0-3.3,0.3-4.5,0.6c-0.2-4-0.2-8.4,0.1-12.7c2.5-0.1,5-0.2,7.4-0.2c1.9,0,3.7,0,5.3,0.1
			c-0.5,2.2-1,5.7,0.1,7.5c1,1.8,3,2.9,5.1,2.9c1,0,2.1-0.3,3-0.8c1.4-0.8,2.3-2.1,2.7-3.6c0.4-1.5,0.2-3.1-0.6-4.4
			c-1.1-1.9-4.4-3.2-6.5-3.9c1.8-3.6,4.1-7.3,6.4-10.9c3.8,1.9,7.6,4.1,11,6.3c-1.5,1.6-3.7,4.4-3.7,6.5c0,3.3,2.6,5.9,5.9,5.9
			c3.2,0,5.9-2.6,5.9-5.9c0-2.2-2.2-4.9-3.7-6.5c3.4-2.2,7.2-4.3,11-6.3c2.3,3.6,4.6,7.3,6.4,10.9c-2.1,0.7-5.4,2-6.5,3.8
			c-0.8,1.4-1,2.9-0.6,4.4c0.4,1.5,1.4,2.8,2.7,3.6c0.9,0.5,1.9,0.8,3,0.8c2.1,0,4-1.1,5.1-2.9c1.1-1.9,0.6-5.4,0.1-7.5
			c1.7-0.1,3.4-0.1,5.3-0.1c2.4,0,4.9,0.1,7.4,0.2c0.2,4.3,0.3,8.7,0.1,12.7c-1.2-0.3-2.9-0.6-4.5-0.6c-1.3,0-2.3,0.2-3.1,0.6
			c-1.4,0.8-2.3,2.1-2.7,3.6c-0.4,1.5-0.2,3.1,0.6,4.4c1,1.8,3,3,5.1,3c1,0,2-0.3,2.9-0.8c1.9-1.1,3.2-4.4,3.8-6.5
			c3.6,1.8,7.4,4.1,11,6.4c-1.9,3.8-4.1,7.6-6.3,11c-1.6-1.5-4.4-3.7-6.6-3.7c-3.2,0-5.9,2.6-5.9,5.9c0,3.2,2.6,5.9,5.9,5.9
			c2.2,0,4.9-2.2,6.6-3.7c2.2,3.4,4.3,7.2,6.3,11C1147.8,97.9,1144,100.1,1140.4,102 M1122.6,118c-2.2-0.7-4.5-1.7-4.9-2.6
			c-0.4-0.7-0.5-1.5-0.3-2.3c0.2-0.8,0.7-1.4,1.4-1.8c0.5-0.3,1-0.4,1.5-0.4c1.1,0,2,0.6,2.6,1.5
			C1123.3,113.2,1123.1,115.7,1122.6,118 M1135.8,140.8c-3.1-1.2-10.3-4.1-17.9-7.9c2.4-3.8,4.8-7.7,6.6-11.5l0.1,0l0-0.1
			c1.9,0.1,3.9,0.2,6.1,0.2h0c2.4,0,4.8-0.1,7.2-0.2C1137.4,129.8,1136.3,137.5,1135.8,140.8 M1099.1,118.8c0-1.7,1.3-3,3-3
			c1.7,0,3,1.4,3,3c0,0.9-1.4,2.9-3,4.7C1100.5,121.7,1099.1,119.7,1099.1,118.8 M1102.1,149.8c-2.1-2.6-6.9-8.7-11.6-15.8
			c4-2,8-4.3,11.5-6.6l0.1,0.1l0.1-0.1c3.5,2.3,7.5,4.6,11.5,6.6C1108.9,141.1,1104.2,147.2,1102.1,149.8 M1081.2,112.4
			c0.5-0.9,1.5-1.5,2.6-1.5c0.5,0,1.1,0.1,1.5,0.4c0.7,0.4,1.2,1,1.4,1.8c0.2,0.8,0.1,1.6-0.3,2.3c-0.5,0.8-2.7,1.9-4.9,2.6
			C1081,115.8,1080.7,113.2,1081.2,112.4 M1068.3,140.8c-0.5-3.3-1.6-11-2.2-19.5c2.4,0.1,4.8,0.2,7.2,0.2c2.2,0,4.2-0.1,6.1-0.2
			l0,0.1l0.2,0c1.9,3.8,4.2,7.7,6.6,11.5C1078.6,136.7,1071.4,139.6,1068.3,140.8 M1043.6,116.1c1.2-3.1,4.1-10.3,7.9-17.9
			c3.8,2.4,7.7,4.8,11.5,6.6l0,0.2l0.1,0c-0.3,4.2-0.2,8.8,0,13.3C1054.6,117.7,1046.9,116.6,1043.6,116.1 M1034.5,82.3
			c2.6-2.1,8.7-6.9,15.8-11.6c2,4,4.3,8,6.6,11.5l-0.1,0.1l0.1,0.1c-2.3,3.5-4.6,7.5-6.6,11.5C1043.3,89.2,1037.1,84.4,1034.5,82.3
			 M1043.6,48.6c3.3-0.5,11-1.6,19.5-2.2c-0.2,4.5-0.3,9,0,13.3l-0.1,0l0,0.2c-3.8,1.9-7.7,4.2-11.5,6.6
			C1047.7,58.9,1044.8,51.7,1043.6,48.6 M1081.5,46.7c2.2,0.7,4.5,1.7,4.9,2.6c0.4,0.7,0.5,1.5,0.3,2.3c-0.2,0.8-0.7,1.4-1.4,1.8
			c-0.5,0.3-1,0.4-1.5,0.4c-1.1,0-2-0.6-2.6-1.5C1080.8,51.5,1081,49,1081.5,46.7 M1068.3,23.9c3.1,1.2,10.3,4.1,17.9,7.9
			c-2.4,3.8-4.8,7.7-6.6,11.5l-0.2,0l0,0.1c-1.9-0.1-3.9-0.2-6.1-0.2c-2.4,0-4.8,0.1-7.2,0.2C1066.7,34.9,1067.8,27.2,1068.3,23.9
			 M1105.1,45.9c0,1.7-1.3,3-3,3c-1.7,0-3-1.4-3-3c0-0.9,1.4-2.9,3-4.7C1103.6,43,1105.1,45,1105.1,45.9 M1102.1,14.9
			c2.1,2.6,6.9,8.7,11.6,15.8c-4,2-8,4.3-11.5,6.6l-0.1-0.1l-0.1,0.1c-3.5-2.3-7.5-4.6-11.5-6.6C1095.2,23.6,1100,17.5,1102.1,14.9
			 M1122.9,52.3c-0.5,0.9-1.5,1.5-2.6,1.5c-0.5,0-1.1-0.1-1.5-0.4c-0.7-0.4-1.2-1-1.4-1.8c-0.2-0.8-0.1-1.6,0.3-2.3
			c0.5-0.8,2.7-1.9,4.9-2.6C1123.1,48.9,1123.4,51.4,1122.9,52.3 M1135.8,23.9c0.5,3.3,1.6,11,2.2,19.5c-2.4-0.1-4.8-0.2-7.2-0.2
			c-2.2,0-4.2,0.1-6.1,0.2l0-0.1l-0.2,0c-1.9-3.8-4.2-7.7-6.6-11.5C1125.5,28,1132.7,25.1,1135.8,23.9 M1160.5,48.6
			c-1.2,3.1-4.1,10.3-7.9,17.9c-3.8-2.4-7.7-4.8-11.5-6.6l0-0.2l-0.1,0c0.3-4.2,0.2-8.8,0-13.3C1149.5,47,1157.2,48.1,1160.5,48.6
			 M1174.2,82.3l-1.3-1.1c-0.5-0.4-8.2-6.8-17.7-13.1c4.8-9.7,8.2-18.7,8.7-20l0.6-1.9l-2.8-0.4c-3-0.5-11.4-1.7-20.7-2.3
			c-0.6-9.3-1.8-17.6-2.3-20.6L1138,20l-1.7,0.6l0,0c-1.4,0.5-10.4,3.9-20,8.7c-6.3-9.4-12.7-17.2-13.1-17.7l-1.1-1.3l-1.1,1.3
			c-0.4,0.5-6.8,8.2-13.1,17.7c-9.7-4.8-18.7-8.2-20-8.7l-1.9-0.6l-0.4,2.9c-0.5,3.1-1.7,11.4-2.3,20.6c-9.2,0.6-17.6,1.8-20.7,2.3
			l-2.8,0.6l0.5,1.6c0.5,1.3,3.9,10.3,8.7,20c-9.4,6.3-17.2,12.7-17.7,13.1l-1.3,1.1l1.3,1.1c0.5,0.4,8.2,6.8,17.7,13.1
			c-4.8,9.7-8.2,18.7-8.7,20l-0.6,1.7l2.8,0.5c3,0.5,11.4,1.7,20.7,2.3c0.6,9.3,1.8,17.6,2.3,20.6l0,0.1l0,0.1l0.6,2.8l1.6-0.7
			c1.4-0.5,10.4-3.9,20-8.7c6.3,9.4,12.7,17.2,13.1,17.7l1.1,1.3l1.1-1.3c0.4-0.5,6.8-8.2,13.1-17.7c9.7,4.8,18.7,8.2,20,8.7
			l1.8,0.6l0.5-2.7l0-0.1c0.5-3.1,1.7-11.4,2.3-20.6c9.2-0.6,17.6-1.8,20.7-2.3l2.9-0.5l-0.6-1.8c-0.5-1.3-3.9-10.3-8.7-20
			c9.4-6.3,17.2-12.7,17.7-13.1L1174.2,82.3z"/>
	</g>
</g>
<g class="st2">
	<path class="st7" d="M1124,296c-13.5,0-24.4-11.2-24.4-25s10.9-25,24.4-25c13.5,0,24.4,11.2,24.4,25S1137.4,296,1124,296
		 M1124,243.2c-15,0-27.2,12.5-27.2,27.8c0,15.3,12.2,27.8,27.2,27.8c15,0,27.2-12.5,27.2-27.8C1151.1,255.7,1139,243.2,1124,243.2"
		/>
	<path class="st7" d="M1124,282.2c-6,0-10.9-5-10.9-11.1c0-6.1,4.9-11.1,10.9-11.1c6,0,10.9,5,10.9,11.1
		C1134.9,277.2,1130,282.2,1124,282.2 M1124,257.3c-7.4,0-13.4,6.2-13.4,13.8s6,13.8,13.4,13.8c7.4,0,13.4-6.2,13.4-13.8
		S1131.4,257.3,1124,257.3"/>
	<path class="st7" d="M1175.2,282.8c-2-4-4.2-8.1-6.6-11.7l0.1-0.1l-0.1-0.1c2.3-3.6,4.5-7.6,6.6-11.7c7,4.8,13,9.6,15.6,11.8
		C1188.2,273.2,1182.2,278,1175.2,282.8 M1181.9,305.3c-3.3,0.5-10.9,1.6-19.3,2.2c0.2-4.5,0.3-9.2,0-13.5l0.1,0l0-0.2
		c3.8-1.9,7.7-4.3,11.4-6.7C1177.8,294.8,1180.6,302.1,1181.9,305.3 M1164.7,271c-1.7,1.6-3.7,3-4.6,3c-1.6,0-3-1.4-3-3
		c0-1.7,1.3-3,3-3C1161,268,1163,269.4,1164.7,271 M1159.2,250.2c-0.7,2.3-1.7,4.5-2.5,5c-0.5,0.3-1,0.4-1.5,0.4
		c-1.1,0-2-0.6-2.6-1.5c-0.4-0.7-0.5-1.5-0.3-2.3c0.2-0.8,0.7-1.4,1.4-1.8c0.1-0.1,0.5-0.3,1.6-0.3
		C1156.6,249.7,1158.2,250,1159.2,250.2 M1088.7,250.2c1.1-0.2,2.6-0.5,3.9-0.5c1,0,1.5,0.2,1.6,0.3c0.7,0.4,1.2,1.1,1.4,1.9
		c0.2,0.8,0.1,1.6-0.3,2.3c-0.5,0.9-1.5,1.5-2.6,1.5c-0.5,0-1-0.1-1.5-0.4C1090.5,254.7,1089.4,252.5,1088.7,250.2 M1083.3,271
		c1.7-1.6,3.7-3,4.6-3c1.6,0,3,1.4,3,3c0,1.7-1.3,3-3,3C1087,274.1,1085,272.6,1083.3,271 M1088.7,291.9c0.7-2.3,1.7-4.5,2.5-5
		c0.5-0.3,1-0.4,1.5-0.4c1.1,0,2,0.6,2.6,1.5c0.4,0.7,0.5,1.5,0.3,2.3c-0.2,0.8-0.7,1.4-1.4,1.8c-0.1,0.1-0.5,0.3-1.6,0.3
		C1091.3,292.4,1089.8,292.1,1088.7,291.9 M1159.2,291.9c-1.1,0.2-2.6,0.5-3.9,0.5c-1,0-1.5-0.2-1.6-0.3c-0.7-0.4-1.2-1.1-1.4-1.8
		c-0.2-0.8-0.1-1.6,0.3-2.3c0.5-0.9,1.5-1.5,2.6-1.5c0.5,0,1,0.1,1.5,0.4C1157.5,287.4,1158.5,289.6,1159.2,291.9 M1161.9,290.9
		c-0.7-2.1-2-5.5-3.8-6.6c-0.9-0.5-1.9-0.8-2.9-0.8c-2.1,0-4,1.1-5,3c-0.8,1.4-1,3-0.6,4.5c0.4,1.5,1.4,2.8,2.7,3.6
		c0.7,0.4,1.7,0.7,3,0.7c1.5,0,3.2-0.3,4.4-0.6c0.2,4.1,0.2,8.5-0.1,12.9c-2.4,0.1-4.9,0.2-7.3,0.2c-1.9,0-3.6,0-5.2-0.1
		c0.5-2.2,1-5.8-0.1-7.6c-1-1.8-3-3-5-3c-1,0-2,0.3-2.9,0.8c-1.4,0.8-2.3,2.1-2.7,3.6c-0.4,1.5-0.2,3.1,0.6,4.5
		c1.1,1.9,4.3,3.2,6.4,3.9c-1.8,3.6-4,7.4-6.3,11.1c-3.8-2-7.6-4.1-10.9-6.4c1.5-1.6,3.7-4.5,3.7-6.6c0-3.3-2.6-6-5.8-6
		c-3.2,0-5.8,2.7-5.8,6c0,2.2,2.2,5,3.7,6.6c-3.3,2.2-7.1,4.4-10.9,6.4c-2.3-3.6-4.5-7.4-6.3-11.1c2.1-0.7,5.4-2,6.4-3.9
		c0.8-1.4,1-3,0.6-4.5c-0.4-1.5-1.4-2.8-2.7-3.6c-0.9-0.5-1.9-0.8-2.9-0.8c-2.1,0-4,1.1-5,3c-1.1,1.9-0.6,5.5-0.1,7.6
		c-1.6,0.1-3.4,0.1-5.3,0.1c-2.4,0-4.9-0.1-7.3-0.2c-0.2-4.3-0.3-8.8-0.1-12.9c1.2,0.3,2.9,0.6,4.4,0.6c1.3,0,2.3-0.2,3-0.7
		c1.3-0.8,2.3-2.1,2.7-3.6c0.4-1.5,0.2-3.1-0.6-4.5c-1-1.8-3-3-5.1-3c-1,0-2,0.3-2.9,0.8c-1.8,1.1-3.1,4.4-3.8,6.6
		c-3.6-1.8-7.3-4.1-10.8-6.5c1.9-3.9,4-7.8,6.2-11.2c1.6,1.5,4.4,3.7,6.5,3.7c3.2,0,5.8-2.7,5.8-6c0-3.3-2.6-6-5.8-6
		c-2.1,0-4.9,2.2-6.5,3.8c-2.2-3.4-4.3-7.3-6.2-11.2c3.6-2.4,7.3-4.6,10.9-6.5c0.7,2.1,2,5.5,3.8,6.6c0.9,0.5,1.9,0.8,2.9,0.8
		c2.1,0,4-1.1,5-3c0.8-1.4,1-3,0.6-4.5c-0.4-1.5-1.4-2.8-2.7-3.6c-0.7-0.4-1.7-0.7-3-0.7c-1.5,0-3.2,0.3-4.4,0.6
		c-0.2-4.1-0.2-8.5,0.1-12.9c2.4-0.1,4.9-0.2,7.3-0.2c1.9,0,3.6,0,5.3,0.1c-0.5,2.2-1,5.8,0.1,7.6c1,1.8,3,3,5,3c1,0,2-0.3,2.9-0.8
		c1.3-0.8,2.3-2.1,2.7-3.6c0.4-1.5,0.2-3.1-0.6-4.5c-1.1-1.9-4.3-3.2-6.4-3.9c1.8-3.6,4-7.4,6.3-11.1c3.8,2,7.6,4.1,10.9,6.4
		c-1.5,1.7-3.7,4.5-3.7,6.6c0,3.3,2.6,6,5.8,6c3.2,0,5.8-2.7,5.8-6c0-2.2-2.2-5-3.7-6.6c3.3-2.2,7.1-4.4,10.9-6.4
		c2.3,3.6,4.5,7.4,6.3,11.1c-2.1,0.7-5.4,2-6.4,3.9c-0.8,1.4-1,3-0.6,4.5c0.4,1.5,1.4,2.8,2.7,3.6c0.9,0.5,1.9,0.8,2.9,0.8
		c2.1,0,4-1.1,5-3c1.1-1.9,0.6-5.5,0.1-7.6c1.6-0.1,3.4-0.1,5.3-0.1c2.4,0,4.9,0.1,7.3,0.2c0.2,4.3,0.3,8.8,0.1,12.9
		c-1.2-0.3-2.9-0.6-4.4-0.6c-1.3,0-2.3,0.2-3,0.7c-1.3,0.8-2.3,2.1-2.7,3.6c-0.4,1.5-0.2,3.1,0.6,4.5c1,1.9,3,3,5.1,3
		c1,0,2-0.3,2.9-0.8c1.8-1.1,3.1-4.4,3.8-6.6c3.6,1.8,7.3,4.1,10.9,6.5c-1.9,3.9-4,7.8-6.2,11.2c-1.6-1.5-4.4-3.8-6.5-3.8
		c-3.2,0-5.8,2.7-5.8,6c0,3.3,2.6,6,5.8,6c2.1,0,4.9-2.2,6.5-3.8c2.2,3.4,4.3,7.3,6.2,11.2C1169.2,286.8,1165.5,289.1,1161.9,290.9
		 M1144.3,307.2c-2.2-0.7-4.4-1.8-4.9-2.6c-0.4-0.7-0.5-1.5-0.3-2.3c0.2-0.8,0.7-1.4,1.4-1.8c0.5-0.3,1-0.4,1.5-0.4
		c1.1,0,2,0.6,2.6,1.5C1145,302.3,1144.8,304.8,1144.3,307.2 M1157.4,330.3c-3.1-1.2-10.2-4.2-17.8-8c2.4-3.8,4.7-7.8,6.6-11.6
		l0.1,0l0-0.1c1.9,0.1,3.9,0.2,6,0.2h0c2.4,0,4.8-0.1,7.1-0.2C1159,319.2,1157.9,327,1157.4,330.3 M1121,308c0-1.7,1.3-3.1,3-3.1
		c1.6,0,3,1.4,3,3.1c0,0.9-1.4,3-3,4.7C1122.4,311,1121,308.9,1121,308 M1124,339.5c-2.1-2.7-6.8-8.9-11.5-16
		c3.9-2.1,7.9-4.4,11.4-6.7l0.1,0.1l0.1-0.1c3.5,2.4,7.4,4.7,11.4,6.7C1130.8,330.6,1126.1,336.8,1124,339.5 M1103.4,301.5
		c0.5-0.9,1.5-1.5,2.6-1.5c0.5,0,1,0.1,1.5,0.4c0.7,0.4,1.2,1.1,1.4,1.8c0.2,0.8,0.1,1.6-0.3,2.3c-0.5,0.8-2.7,1.9-4.9,2.6
		C1103.2,305,1102.9,302.4,1103.4,301.5 M1090.6,330.3c-0.5-3.4-1.6-11.2-2.1-19.7c2.4,0.1,4.8,0.2,7.1,0.2c2.1,0,4.1-0.1,6-0.2
		l0,0.1l0.2,0c1.9,3.8,4.2,7.8,6.6,11.6C1100.8,326.1,1093.7,329.1,1090.6,330.3 M1066.1,305.3c1.2-3.2,4.1-10.5,7.8-18.2
		c3.7,2.5,7.6,4.8,11.4,6.7l0,0.2l0.1,0c-0.3,4.3-0.2,8.9,0,13.5C1077,306.9,1069.4,305.8,1066.1,305.3 M1057.2,271
		c2.6-2.1,8.6-7,15.6-11.8c2,4,4.2,8.1,6.6,11.7l-0.1,0.1l0.1,0.1c-2.3,3.6-4.5,7.6-6.6,11.7C1065.8,278,1059.8,273.2,1057.2,271
		 M1066.1,236.8c3.3-0.5,10.9-1.6,19.3-2.2c-0.2,4.5-0.3,9.2,0,13.4l-0.1,0l0,0.2c-3.8,1.9-7.7,4.3-11.4,6.7
		C1070.2,247.3,1067.3,240,1066.1,236.8 M1103.6,234.9c2.2,0.7,4.4,1.8,4.9,2.6c0.4,0.7,0.5,1.5,0.3,2.3c-0.2,0.8-0.7,1.4-1.4,1.8
		c-0.5,0.3-1,0.4-1.5,0.4c-1.1,0-2-0.6-2.6-1.5C1102.9,239.8,1103.1,237.2,1103.6,234.9 M1090.6,211.8c3.1,1.2,10.2,4.2,17.8,8
		c-2.4,3.8-4.7,7.8-6.6,11.6l-0.2,0l0,0.2c-1.9-0.1-3.9-0.2-6-0.2c-2.4,0-4.8,0.1-7.1,0.2C1089,222.9,1090.1,215.1,1090.6,211.8
		 M1127,234.1c0,1.7-1.3,3.1-3,3.1c-1.6,0-3-1.4-3-3.1c0-0.9,1.4-3,3-4.7C1125.6,231.1,1127,233.1,1127,234.1 M1124,202.6
		c2.1,2.7,6.8,8.9,11.5,16c-3.9,2.1-7.9,4.3-11.4,6.7l-0.1-0.1l-0.1,0.1c-3.5-2.4-7.4-4.7-11.4-6.7
		C1117.2,211.5,1121.9,205.3,1124,202.6 M1144.6,240.5c-0.5,0.9-1.5,1.5-2.6,1.5c-0.5,0-1-0.1-1.5-0.4c-0.7-0.4-1.2-1.1-1.4-1.8
		c-0.2-0.8-0.1-1.6,0.3-2.3c0.5-0.8,2.7-1.9,4.9-2.6C1144.8,237.1,1145.1,239.7,1144.6,240.5 M1157.4,211.8
		c0.5,3.4,1.6,11.2,2.1,19.7c-2.4-0.1-4.8-0.2-7.1-0.2c-2.1,0-4.1,0.1-6,0.2l0-0.2l-0.2,0c-1.9-3.8-4.2-7.8-6.6-11.6
		C1147.2,215.9,1154.3,213,1157.4,211.8 M1181.9,236.8c-1.2,3.2-4.1,10.5-7.8,18.2c-3.7-2.5-7.6-4.8-11.4-6.7l0-0.2l-0.1,0
		c0.3-4.3,0.2-8.9,0-13.4C1171,235.2,1178.6,236.3,1181.9,236.8 M1195.3,271l-1.3-1.1c-0.5-0.4-8.2-6.9-17.5-13.3
		c4.7-9.8,8.1-19,8.6-20.3l0.6-1.9l-2.8-0.4c-3-0.5-11.3-1.7-20.4-2.3c-0.6-9.4-1.8-17.8-2.3-20.9l-0.6-2.9l-1.7,0.6l0,0
		c-1.3,0.5-10.2,4-19.8,8.8c-6.2-9.6-12.6-17.4-13-17.9l-1.1-1.4l-1.1,1.4c-0.4,0.5-6.7,8.4-13,17.9c-9.6-4.8-18.5-8.3-19.8-8.8
		l-1.9-0.7l-0.4,3c-0.5,3.1-1.7,11.6-2.3,20.9c-9.1,0.6-17.4,1.9-20.4,2.3l-2.8,0.7l0.5,1.6c0.5,1.4,3.9,10.5,8.6,20.3
		c-9.3,6.4-17,12.9-17.5,13.3l-1.3,1.1l1.3,1.1c0.5,0.4,8.2,6.9,17.5,13.3c-4.7,9.8-8.1,19-8.6,20.3l-0.6,1.8l2.8,0.5
		c3,0.5,11.3,1.7,20.4,2.3c0.6,9.4,1.8,17.8,2.3,20.9l0,0.1l0,0.1l0.6,2.9l1.6-0.7c1.3-0.5,10.2-4,19.8-8.8
		c6.2,9.6,12.6,17.4,13,17.9l1.1,1.4l1.1-1.4c0.4-0.5,6.7-8.4,13-17.9c9.6,4.8,18.5,8.3,19.8,8.8l1.8,0.6l0.5-2.7l0-0.1
		c0.5-3.1,1.7-11.5,2.3-20.9c9.1-0.6,17.4-1.9,20.4-2.3l2.8-0.5l-0.6-1.8c-0.5-1.4-3.9-10.5-8.6-20.3c9.3-6.4,17-12.9,17.5-13.3
		L1195.3,271z"/>
</g>
<path class="st1" d="M19,43.8C13.9,51.7,9,60,5.1,67.9l-0.3-0.1l-0.1,0.3 M4.6,232.1l0.1,0.3l0.3-0.1c4,8,8.8,16.2,13.9,24.1
	c-6.7,3.3-13.2,6.2-19,8.8v6.6c6.6-2.9,14.4-6.4,22.4-10.3c13.2,19.8,26.7,36.1,27.5,37.1l2.3,2.8l2.3-2.8
	c0.8-1,14.3-17.3,27.5-37.1c20.3,10,39.2,17.2,42.1,18.3l3.8,1.2l1-5.7l0-0.3c1-6.4,3.6-23.9,4.9-43.4c19.4-1.3,37-3.9,43.4-4.8l6-1
	l-1.3-3.8c-1.1-2.8-8.2-21.7-18.3-42.1c19.8-13.2,36.1-26.7,37.1-27.5l2.8-2.3l-2.8-2.3c-1-0.8-17.3-14.3-37.1-27.5
	c10-20.4,17.2-39.3,18.3-42.1l1.2-4l-5.9-0.8c-6.4-1-24-3.6-43.4-4.8c-1.3-19.5-3.8-36.9-4.9-43.4l-1.2-6.1l-3.6,1.3l0,0
	c-2.9,1.1-21.7,8.3-42.1,18.3C68.8,18.9,55.4,2.6,54.5,1.6l-2.3-2.8l-2.3,2.8c-0.8,1-14.3,17.3-27.5,37.1 M0,74c1,0,2.1,0.1,3.1,0.1
	C2.1,78.7,1,86.1,3.2,90c2.2,3.8,6.3,6.2,10.7,6.2c2.2,0,4.3-0.6,6.2-1.7c2.9-1.6,4.9-4.3,5.8-7.5c0.8-3.2,0.4-6.5-1.2-9.3
	c-2.3-3.9-9.2-6.7-13.6-8.1c3.8-7.6,8.5-15.4,13.4-23c8,4.1,16.1,8.6,23.1,13.2c-3.1,3.4-7.8,9.2-7.8,13.8c0,6.8,5.5,12.4,12.4,12.4
	c6.8,0,12.4-5.6,12.4-12.4c0-4.5-4.6-10.3-7.8-13.8c7.1-4.6,15.1-9.1,23.1-13.2c4.9,7.5,9.6,15.4,13.4,23C89,71,82,73.7,79.8,77.6
	c-1.7,2.8-2.1,6.2-1.2,9.3c0.9,3.2,2.9,5.9,5.8,7.5c1.9,1.1,4,1.7,6.2,1.7c4.4,0,8.5-2.4,10.7-6.2c2.3-3.9,1.2-11.3,0.2-15.8
	c3.5-0.2,7.2-0.3,11.2-0.3c5.1,0,10.3,0.2,15.5,0.4c0.5,9,0.6,18.2,0.1,26.7c-2.6-0.6-6.2-1.2-9.4-1.2c-2.7,0-4.8,0.4-6.4,1.3
	c-2.9,1.7-4.9,4.3-5.8,7.5c-0.9,3.2-0.4,6.5,1.2,9.3c2.2,3.8,6.3,6.2,10.7,6.2c2.2,0,4.3-0.6,6.2-1.7c3.9-2.3,6.7-9.2,8.1-13.6
	c7.6,3.8,15.5,8.5,23,13.5c-4.1,8-8.6,16.1-13.2,23.2c-3.4-3.1-9.3-7.8-13.8-7.8c-6.8,0-12.4,5.5-12.4,12.3
	c0,6.8,5.5,12.3,12.4,12.3c4.5,0,10.4-4.6,13.8-7.8c4.6,7.1,9.1,15.1,13.2,23.2c-7.6,4.9-15.5,9.6-23,13.5
	c-1.4-4.4-4.1-11.4-8.1-13.6c-1.9-1.1-4-1.7-6.2-1.7c-4.4,0-8.5,2.4-10.7,6.2c-1.7,2.8-2.1,6.2-1.2,9.4c0.9,3.2,2.9,5.8,5.8,7.5
	c1.6,0.9,3.7,1.3,6.4,1.3c3.2,0,6.9-0.6,9.4-1.2c0.5,8.5,0.3,17.7-0.2,26.7c-5.2,0.3-10.4,0.4-15.5,0.4c-3.9,0-7.7-0.1-11.1-0.3
	c1-4.5,2.1-11.9-0.2-15.8c-2.2-3.8-6.3-6.2-10.7-6.2c-2.2,0-4.3,0.6-6.2,1.7c-2.9,1.7-4.9,4.3-5.8,7.5c-0.8,3.2-0.4,6.5,1.2,9.3
	c2.3,3.9,9.2,6.7,13.6,8.1c-3.8,7.5-8.5,15.4-13.4,23c-8-4.1-16.1-8.6-23.1-13.2c3.1-3.4,7.8-9.2,7.8-13.8c0-6.8-5.6-12.4-12.4-12.4
	c-6.8,0-12.4,5.6-12.4,12.4c0,4.5,4.6,10.3,7.8,13.8c-7.1,4.6-15.1,9.1-23.2,13.2c-4.9-7.6-9.6-15.4-13.4-23
	c4.4-1.4,11.4-4.2,13.6-8.1c1.7-2.8,2.1-6.2,1.2-9.3c-0.9-3.2-2.9-5.9-5.8-7.5c-1.9-1.1-4-1.7-6.2-1.7c-4.4,0-8.5,2.4-10.7,6.2
	c-2.3,3.9-1.2,11.3-0.2,15.8 M19.4,80.7c0.8,1.4,1.1,3.1,0.6,4.7c-0.4,1.6-1.5,3-2.9,3.8c-1,0.6-2.1,0.9-3.2,0.9
	c-2.3,0-4.3-1.2-5.4-3.2C7.5,85.3,8,80.1,9,75.3C13.7,76.8,18.4,79,19.4,80.7z M58.5,73.5c0,3.5-2.8,6.3-6.3,6.3
	c-3.5,0-6.3-2.8-6.3-6.3c0-1.9,3-6.2,6.3-9.8C55.5,67.4,58.5,71.6,58.5,73.5z M52.4,55.4l-0.2-0.2L52,55.4
	c-7.4-4.9-15.8-9.6-24.2-13.9c9.9-14.8,20-27.6,24.4-33.1c4.4,5.5,14.4,18.4,24.4,33.1C68.2,45.8,59.8,50.5,52.4,55.4z M95.9,87
	c-1.1,2-3.1,3.1-5.4,3.1c-1.1,0-2.2-0.3-3.2-0.9c-1.5-0.8-2.5-2.2-2.9-3.8c-0.4-1.6-0.2-3.3,0.6-4.8c1-1.7,5.7-3.9,10.3-5.4
	C96.4,79.8,97,85.2,95.9,87z M112.5,67.8c-4.5,0-8.8,0.1-12.7,0.4l-0.1-0.3l-0.3,0.1c-4-8-8.8-16.2-13.9-24.1
	c16-7.8,31.1-13.9,37.7-16.5c1.1,7,3.3,23.1,4.6,40.9C122.6,68,117.5,67.8,112.5,67.8z M121.6,117.3c-1,0.6-2,0.8-3.1,0.8
	c-2.2,0-4.3-1.2-5.5-3.2c-0.8-1.4-1.1-3.1-0.6-4.7c0.4-1.6,1.5-3,2.9-3.8c0.3-0.2,1.2-0.5,3.4-0.5c2.7,0,6,0.6,8.3,1.1
	C125.5,111.6,123.3,116.3,121.6,117.3z M128.8,156.4c-3.5,0-6.3-2.8-6.3-6.3c0-3.5,2.8-6.3,6.3-6.3c2,0,6.2,3,9.8,6.3
	C135,153.4,130.7,156.4,128.8,156.4z M118.7,194.4c-2.2,0-3.1-0.4-3.4-0.5c-1.5-0.8-2.5-2.2-2.9-3.8c-0.4-1.6-0.2-3.3,0.6-4.8
	c1.1-1.9,3.2-3.2,5.5-3.2c1.1,0,2.2,0.3,3.1,0.8c1.7,1,3.9,5.7,5.4,10.4C124.7,193.8,121.5,194.4,118.7,194.4z M8.5,213.3
	c1.1-2,3.1-3.1,5.4-3.1c1.1,0,2.2,0.3,3.2,0.9c1.5,0.8,2.5,2.2,2.9,3.8c0.4,1.6,0.2,3.3-0.6,4.8c-1,1.7-5.7,3.9-10.3,5.4
	C8.1,220.5,7.5,215.1,8.5,213.3z M45.9,226.7c0-3.5,2.8-6.3,6.3-6.3c3.5,0,6.3,2.8,6.3,6.3c0,1.9-3,6.2-6.3,9.8
	C48.9,232.9,45.9,228.6,45.9,226.7z M52.2,291.9c-4.4-5.5-14.4-18.4-24.4-33.1c8.4-4.3,16.7-9,24.2-13.9l0.2,0.2l0.2-0.2
	c7.4,4.9,15.8,9.6,24.2,13.9C66.7,273.6,56.6,286.4,52.2,291.9z M85,219.5c-0.8-1.4-1.1-3.1-0.6-4.7c0.4-1.6,1.5-3,2.9-3.8
	c1-0.6,2.1-0.9,3.2-0.9c2.3,0,4.3,1.2,5.4,3.2c0.9,1.6,0.5,6.8-0.5,11.6C90.7,223.5,86,221.3,85,219.5z M123.1,272.9
	c-6.6-2.6-21.7-8.7-37.7-16.5c5.1-7.9,10-16.1,13.9-24.1l0.3,0.1l0.1-0.3c3.9,0.2,8.2,0.4,12.7,0.4h0c5,0,10.1-0.2,15.2-0.4
	C126.4,249.8,124.2,265.9,123.1,272.9z M134.4,102.9l0.1-0.3l-0.3-0.1c0.6-8.9,0.4-18.5,0-27.9c17.7,1.2,33.9,3.5,40.9,4.5
	c-2.6,6.6-8.7,21.7-16.5,37.7C150.6,111.8,142.3,106.9,134.4,102.9z M175,221c-7,1.1-23.1,3.3-40.8,4.5c0.5-9.4,0.6-19,0-27.9
	l0.3-0.1l-0.1-0.3c8-4,16.2-8.9,24.1-14C166.3,199.3,172.4,214.4,175,221z M160.9,174.5c-4.3-8.4-9-16.7-13.9-24.2l0.2-0.2l-0.2-0.2
	c4.9-7.4,9.6-15.8,13.9-24.2c14.8,9.9,27.6,20,33.1,24.4C188.5,154.5,175.6,164.6,160.9,174.5z"/>
<path class="st0" d="M203.6,150.1l-2.8-2.3c-1-0.8-17.3-14.3-37.1-27.5c10-20.4,17.2-39.3,18.3-42.1l1.2-4l-5.9-0.8
	c-6.4-1-24-3.6-43.4-4.8c-1.3-19.5-3.8-36.9-4.9-43.4l-1.2-6.1l-3.6,1.3l0,0c-2.9,1.1-21.7,8.3-42.1,18.3
	C68.8,18.9,55.4,2.6,54.5,1.6l-2.3-2.8l-2.3,2.8c-0.8,1-14.3,17.3-27.5,37.1c-8-3.9-15.7-7.4-22.3-10.3v6.6c5.8,2.5,12.3,5.5,19,8.8
	C13.9,51.7,9,60,5.1,67.9l-0.3-0.1l-0.1,0.3C3.1,68.1,1.6,68,0,68V74c1,0,2.1,0.1,3.1,0.1C2.1,78.7,1,86.1,3.2,90
	c2.2,3.8,6.3,6.2,10.7,6.2c2.2,0,4.3-0.6,6.2-1.7c2.9-1.6,4.9-4.3,5.8-7.5c0.8-3.2,0.4-6.5-1.2-9.3c-2.3-3.9-9.2-6.7-13.6-8.1
	c3.8-7.6,8.5-15.4,13.4-23c8,4.1,16.1,8.6,23.1,13.2c-3.1,3.4-7.8,9.2-7.8,13.8c0,6.8,5.5,12.4,12.4,12.4c6.8,0,12.4-5.6,12.4-12.4
	c0-4.5-4.6-10.3-7.8-13.8c7.1-4.6,15.1-9.1,23.1-13.2c4.9,7.5,9.6,15.4,13.4,23C89,71,82,73.7,79.8,77.6c-1.7,2.8-2.1,6.2-1.2,9.3
	c0.9,3.2,2.9,5.9,5.8,7.5c1.9,1.1,4,1.7,6.2,1.7c4.4,0,8.5-2.4,10.7-6.2c2.3-3.9,1.2-11.3,0.2-15.8c3.5-0.2,7.2-0.3,11.2-0.3
	c5.1,0,10.3,0.2,15.5,0.4c0.5,9,0.6,18.2,0.1,26.7c-2.6-0.6-6.2-1.2-9.4-1.2c-2.7,0-4.8,0.4-6.4,1.3c-2.9,1.7-4.9,4.3-5.8,7.5
	c-0.9,3.2-0.4,6.5,1.2,9.3c2.2,3.8,6.3,6.2,10.7,6.2c2.2,0,4.3-0.6,6.2-1.7c3.9-2.3,6.7-9.2,8.1-13.6c7.6,3.8,15.5,8.5,23,13.5
	c-4.1,8-8.6,16.1-13.2,23.2c-3.4-3.1-9.3-7.8-13.8-7.8c-6.8,0-12.4,5.5-12.4,12.3c0,6.8,5.5,12.3,12.4,12.3c4.5,0,10.4-4.6,13.8-7.8
	c4.6,7.1,9.1,15.1,13.2,23.2c-7.6,4.9-15.5,9.6-23,13.5c-1.4-4.4-4.1-11.4-8.1-13.6c-1.9-1.1-4-1.7-6.2-1.7c-4.4,0-8.5,2.4-10.7,6.2
	c-1.7,2.8-2.1,6.2-1.2,9.4c0.9,3.2,2.9,5.8,5.8,7.5c1.6,0.9,3.7,1.3,6.4,1.3c3.2,0,6.9-0.6,9.4-1.2c0.5,8.5,0.3,17.7-0.2,26.7
	c-5.2,0.3-10.4,0.4-15.5,0.4c-3.9,0-7.7-0.1-11.1-0.3c1-4.5,2.1-11.9-0.2-15.8c-2.2-3.8-6.3-6.2-10.7-6.2c-2.2,0-4.3,0.6-6.2,1.7
	c-2.9,1.7-4.9,4.3-5.8,7.5c-0.8,3.2-0.4,6.5,1.2,9.3c2.3,3.9,9.2,6.7,13.6,8.1c-3.8,7.5-8.5,15.4-13.4,23c-8-4.1-16.1-8.6-23.1-13.2
	c3.1-3.4,7.8-9.2,7.8-13.8c0-6.8-5.6-12.4-12.4-12.4c-6.8,0-12.4,5.6-12.4,12.4c0,4.5,4.6,10.3,7.8,13.8
	c-7.1,4.6-15.1,9.1-23.2,13.2c-4.9-7.6-9.6-15.4-13.4-23c4.4-1.4,11.4-4.2,13.6-8.1c1.7-2.8,2.1-6.2,1.2-9.3
	c-0.9-3.2-2.9-5.9-5.8-7.5c-1.9-1.1-4-1.7-6.2-1.7c-4.4,0-8.5,2.4-10.7,6.2c-2.3,3.9-1.2,11.3-0.2,15.8c-1,0.1-2,0.1-3.1,0.1v6.1
	c1.6-0.1,3.1-0.1,4.6-0.2l0.1,0.3l0.3-0.1c4,8,8.8,16.2,13.9,24.1c-6.7,3.3-13.2,6.2-19,8.8v6.6c6.6-2.9,14.4-6.4,22.4-10.3
	c13.2,19.8,26.7,36.1,27.5,37.1l2.3,2.8l2.3-2.8c0.8-1,14.3-17.3,27.5-37.1c20.3,10,39.2,17.2,42.1,18.3l3.8,1.2l1-5.7l0-0.3
	c1-6.4,3.6-23.9,4.9-43.4c19.4-1.3,37-3.9,43.4-4.8l6-1l-1.3-3.8c-1.1-2.8-8.2-21.7-18.3-42.1c19.8-13.2,36.1-26.7,37.1-27.5
	L203.6,150.1z M19.4,80.7c0.8,1.4,1.1,3.1,0.6,4.7c-0.4,1.6-1.5,3-2.9,3.8c-1,0.6-2.1,0.9-3.2,0.9c-2.3,0-4.3-1.2-5.4-3.2
	C7.5,85.3,8,80.1,9,75.3C13.7,76.8,18.4,79,19.4,80.7z M58.5,73.5c0,3.5-2.8,6.3-6.3,6.3c-3.5,0-6.3-2.8-6.3-6.3
	c0-1.9,3-6.2,6.3-9.8C55.5,67.4,58.5,71.6,58.5,73.5z M52.4,55.4l-0.2-0.2L52,55.4c-7.4-4.9-15.8-9.6-24.2-13.9
	c9.9-14.8,20-27.6,24.4-33.1c4.4,5.5,14.4,18.4,24.4,33.1C68.2,45.8,59.8,50.5,52.4,55.4z M95.9,87c-1.1,2-3.1,3.1-5.4,3.1
	c-1.1,0-2.2-0.3-3.2-0.9c-1.5-0.8-2.5-2.2-2.9-3.8c-0.4-1.6-0.2-3.3,0.6-4.8c1-1.7,5.7-3.9,10.3-5.4C96.4,79.8,97,85.2,95.9,87z
	 M112.5,67.8c-4.5,0-8.8,0.1-12.7,0.4l-0.1-0.3l-0.3,0.1c-4-8-8.8-16.2-13.9-24.1c16-7.8,31.1-13.9,37.7-16.5
	c1.1,7,3.3,23.1,4.6,40.9C122.6,68,117.5,67.8,112.5,67.8z M121.6,117.3c-1,0.6-2,0.8-3.1,0.8c-2.2,0-4.3-1.2-5.5-3.2
	c-0.8-1.4-1.1-3.1-0.6-4.7c0.4-1.6,1.5-3,2.9-3.8c0.3-0.2,1.2-0.5,3.4-0.5c2.7,0,6,0.6,8.3,1.1C125.5,111.6,123.3,116.3,121.6,117.3
	z M128.8,156.4c-3.5,0-6.3-2.8-6.3-6.3c0-3.5,2.8-6.3,6.3-6.3c2,0,6.2,3,9.8,6.3C135,153.4,130.7,156.4,128.8,156.4z M118.7,194.4
	c-2.2,0-3.1-0.4-3.4-0.5c-1.5-0.8-2.5-2.2-2.9-3.8c-0.4-1.6-0.2-3.3,0.6-4.8c1.1-1.9,3.2-3.2,5.5-3.2c1.1,0,2.2,0.3,3.1,0.8
	c1.7,1,3.9,5.7,5.4,10.4C124.7,193.8,121.5,194.4,118.7,194.4z M8.5,213.3c1.1-2,3.1-3.1,5.4-3.1c1.1,0,2.2,0.3,3.2,0.9
	c1.5,0.8,2.5,2.2,2.9,3.8c0.4,1.6,0.2,3.3-0.6,4.8c-1,1.7-5.7,3.9-10.3,5.4C8.1,220.5,7.5,215.1,8.5,213.3z M45.9,226.7
	c0-3.5,2.8-6.3,6.3-6.3c3.5,0,6.3,2.8,6.3,6.3c0,1.9-3,6.2-6.3,9.8C48.9,232.9,45.9,228.6,45.9,226.7z M52.2,291.9
	c-4.4-5.5-14.4-18.4-24.4-33.1c8.4-4.3,16.7-9,24.2-13.9l0.2,0.2l0.2-0.2c7.4,4.9,15.8,9.6,24.2,13.9
	C66.7,273.6,56.6,286.4,52.2,291.9z M85,219.5c-0.8-1.4-1.1-3.1-0.6-4.7c0.4-1.6,1.5-3,2.9-3.8c1-0.6,2.1-0.9,3.2-0.9
	c2.3,0,4.3,1.2,5.4,3.2c0.9,1.6,0.5,6.8-0.5,11.6C90.7,223.5,86,221.3,85,219.5z M123.1,272.9c-6.6-2.6-21.7-8.7-37.7-16.5
	c5.1-7.9,10-16.1,13.9-24.1l0.3,0.1l0.1-0.3c3.9,0.2,8.2,0.4,12.7,0.4h0c5,0,10.1-0.2,15.2-0.4C126.4,249.8,124.2,265.9,123.1,272.9
	z M134.4,102.9l0.1-0.3l-0.3-0.1c0.6-8.9,0.4-18.5,0-27.9c17.7,1.2,33.9,3.5,40.9,4.5c-2.6,6.6-8.7,21.7-16.5,37.7
	C150.6,111.8,142.3,106.9,134.4,102.9z M175,221c-7,1.1-23.1,3.3-40.8,4.5c0.5-9.4,0.6-19,0-27.9l0.3-0.1l-0.1-0.3
	c8-4,16.2-8.9,24.1-14C166.3,199.3,172.4,214.4,175,221z M160.9,174.5c-4.3-8.4-9-16.7-13.9-24.2l0.2-0.2l-0.2-0.2
	c4.9-7.4,9.6-15.8,13.9-24.2c14.8,9.9,27.6,20,33.1,24.4C188.5,154.5,175.6,164.6,160.9,174.5z"/>
<path class="st0" d="M52.2,90.6c-22.5,0-42.1,12.5-52.2,31v17.1c5.2-24,26.6-42.1,52.2-42.1c29.5,0,53.4,24,53.4,53.4
	c0,29.5-24,53.4-53.4,53.4c-25.6,0-47-18.1-52.2-42.1v17.1c10.1,18.5,29.7,31,52.2,31c32.8,0,59.5-26.7,59.5-59.5
	C111.7,117.3,85,90.6,52.2,90.6z"/>
</svg>
