<?xml version="1.0" encoding="UTF-8"?>
<!DOCTYPE svg PUBLIC "-//W3C//DTD SVG 1.1//EN" "http://www.w3.org/Graphics/SVG/1.1/DTD/svg11.dtd">
<!-- Creator: CorelDRAW 2020 (64-Bit) -->
<svg xmlns="http://www.w3.org/2000/svg" xml:space="preserve" width="210mm" height="184.8mm" version="1.1" style="shape-rendering:geometricPrecision; text-rendering:geometricPrecision; image-rendering:optimizeQuality; fill-rule:evenodd; clip-rule:evenodd"
viewBox="0 0 20900.59 18392.52"
 xmlns:xlink="http://www.w3.org/1999/xlink"
 xmlns:xodm="http://www.corel.com/coreldraw/odm/2003">
 <defs>
  <style type="text/css">
   <![CDATA[
    .fil3 {fill:#FEFEFE;fill-rule:nonzero}
    .fil2 {fill:#521F70;fill-rule:nonzero}
    .fil0 {fill:#FF9E43;fill-rule:nonzero}
    .fil1 {fill:white;fill-rule:nonzero}
   ]]>
  </style>
 </defs>
 <g id="Layer_x0020_1">
  <metadata id="CorelCorpID_0Corel-Layer"/>
  <g id="_1603101838848">
   <path class="fil0" d="M557.35 0c0,0 -557.35,0 -557.35,557.35l0 17277.82c0,0 0,557.35 557.35,557.35l19785.89 0c0,0 557.35,0 557.35,-557.35l0 -17277.82c0,0 0,-557.35 -557.35,-557.35l-19785.89 0z"/>
   <path class="fil1" d="M8705.79 3477.86c0,0 -111.47,0 -111.47,111.47l0 679.97c0,0 0,111.47 111.47,111.47l334.41 0c0,0 111.47,0 111.47,-111.47l0 -679.97c0,0 0,-111.47 -111.47,-111.47l-334.41 0z"/>
   <path class="fil1" d="M11826.95 3477.86c0,0 -111.47,0 -111.47,111.47l0 679.97c0,0 0,111.47 111.47,111.47l334.41 0c0,0 111.47,0 111.47,-111.47l0 -679.97c0,0 0,-111.47 -111.47,-111.47l-334.41 0z"/>
   <path class="fil1" d="M7947.8 4057.5c0,0 -557.35,0 -557.35,557.35l0 4068.65c0,0 0,557.35 557.35,557.35l5005 0c0,0 557.35,0 557.35,-557.35l0 -4068.65c0,0 0,-557.35 -557.35,-557.35l-5005 0z"/>
   <g>
    <path class="fil2" d="M13276.06 5462.02l-5651.52 0 0 3299.51c0,256.38 211.79,468.17 468.17,468.17l4715.17 0c256.38,0 468.17,-211.79 468.17,-468.17l0 -3299.51 0 0zm-5651.52 -245.23l5662.67 0 0 -713.41c0,-256.38 -211.79,-468.17 -468.17,-468.17l-445.88 0 0 234.09c0,211.79 -167.2,379 -379,379l0 0c-211.79,0 -379,-167.2 -379,-379l0 -234.09 -2318.57 0 0 234.09c0,211.79 -167.2,379 -379,379 -211.79,0 -379,-167.2 -379,-379l0 -234.09 -434.73 0c-256.38,0 -468.17,211.79 -468.17,468.17l0 713.41 -11.15 0zm1136.99 -1415.67l0 0 0 468.17c0,78.03 66.88,144.91 144.91,144.91 78.03,0 144.91,-66.88 144.91,-144.91l0 -579.64c0,-78.03 -66.88,-144.91 -144.91,-144.91 -78.03,0 -144.91,66.88 -144.91,144.91l0 111.47 0 0zm3076.57 0l0 468.17c0,78.03 66.88,144.91 144.91,144.91 78.03,0 144.91,-66.88 144.91,-144.91l0 -468.17 0 -100.32c0,-78.03 -66.88,-144.91 -144.91,-144.91 -78.03,0 -144.91,66.88 -144.91,144.91l0 100.32zm1683.19 713.41l0 947.49 0 0 0 3299.51c0,390.14 -323.26,713.41 -713.41,713.41l-4715.17 0c-390.14,0 -713.41,-323.26 -713.41,-713.41l0 -3299.51 0 -234.09 0 -713.41c0,-390.14 323.26,-713.41 713.41,-713.41l434.73 0 0 -100.32c0,-211.79 167.2,-379 379,-379 211.79,0 379,167.2 379,379l0 100.32 2307.43 0 0 -100.32c0,-211.79 167.2,-379 379,-379 211.79,0 379,167.2 379,379l0 100.32 434.73 0c412.44,0 735.7,323.26 735.7,713.41l0 0zm-2006.46 3667.36c66.88,-22.29 133.76,-66.88 189.5,-111.47 55.73,-44.59 100.32,-111.47 122.62,-178.35 33.44,-66.88 44.59,-156.06 44.59,-245.23 0,-89.18 -11.15,-167.2 -44.59,-245.23 -33.44,-66.88 -78.03,-133.76 -122.62,-178.35 -55.73,-44.59 -111.47,-89.18 -189.5,-111.47 -66.88,-22.29 -144.91,-44.59 -222.94,-44.59l-334.41 0 33.44 -312.12 802.58 0 0 -367.85 -1125.85 0 -111.47 1058.96 746.85 0c22.29,0 44.59,0 78.03,11.15 22.29,11.15 44.59,22.29 66.88,44.59 22.29,22.29 33.44,44.59 44.59,66.88 11.15,22.29 22.29,55.73 22.29,89.18 0,33.44 -11.15,66.88 -22.29,100.32 -11.15,22.29 -33.44,44.59 -44.59,66.88 -22.29,22.29 -44.59,33.44 -66.88,33.44 -22.29,11.15 -55.73,11.15 -78.03,11.15l-746.85 0 0 367.85 746.85 0c78.03,-22.29 144.91,-33.44 211.79,-55.73l0 0zm-1237.32 33.44l-1237.32 0 0 -557.35c0,-78.03 11.15,-144.91 44.59,-211.79 33.44,-66.88 66.88,-122.62 122.62,-178.35 44.59,-44.59 111.47,-89.18 178.35,-122.62 66.88,-33.44 133.76,-44.59 211.79,-44.59l189.5 0c22.29,0 44.59,0 66.88,-11.15 22.29,-11.15 44.59,-22.29 55.73,-44.59 22.29,-22.29 33.44,-33.44 44.59,-55.73 11.15,-22.29 11.15,-44.59 11.15,-78.03 0,-22.29 0,-44.59 -11.15,-66.88 -11.15,-22.29 -33.44,-33.44 -44.59,-44.59 -22.29,-11.15 -33.44,-33.44 -55.73,-33.44 -22.29,-11.15 -44.59,-11.15 -66.88,-11.15l-657.67 0 0 -367.85 657.67 0c78.03,0 144.91,11.15 211.79,44.59 66.88,33.44 122.62,66.88 178.35,122.62 55.73,44.59 89.18,111.47 122.62,178.35 33.44,66.88 44.59,133.76 44.59,211.79 0,78.03 -11.15,144.91 -44.59,211.79 -33.44,66.88 -66.88,122.62 -122.62,178.35 -44.59,55.73 -111.47,89.18 -178.35,122.62 -66.88,33.44 -133.76,44.59 -211.79,44.59l-189.5 0c-22.29,0 -44.59,0 -66.88,11.15 -22.29,11.15 -44.59,22.29 -55.73,44.59 -22.29,22.29 -33.44,33.44 -44.59,55.73 -11.15,22.29 -11.15,44.59 -11.15,66.88l0 178.35 869.46 0 0 356.7 -11.15 0z"/>
   </g>
   <path class="fil3" d="M2461.27 11719.6l252.05 0 0 876.36c0,87.89 -11.63,163.51 -34.9,226.84 -23.26,63.34 -55.58,115.69 -96.94,157.05 -41.36,41.36 -91.77,71.74 -151.23,91.13 -59.46,19.39 -124.73,29.08 -195.82,29.08 -343.82,0 -515.74,-157.05 -515.74,-471.14l0 -909.33 265.63 0 0 856.97c0,53 4.85,97.91 14.54,134.75 9.69,36.83 24.88,66.56 45.56,89.19 20.68,22.62 46.53,38.78 77.55,48.47 31.02,9.69 67.21,14.54 108.57,14.54 81.43,0 140.24,-22.62 176.43,-67.86 36.2,-45.24 54.29,-118.27 54.29,-219.09l0 -856.97zm1066.37 1357.19l0 -550.63c0,-78.84 -11.31,-135.72 -33.93,-170.62 -22.62,-34.9 -61.08,-52.35 -115.36,-52.35 -47.82,0 -88.22,13.89 -121.18,41.68 -32.95,27.8 -56.55,62.37 -70.76,103.74l0 628.18 -252.05 0 0 -969.42 199.7 0 29.08 127.96 7.75 0c29.73,-41.36 69.16,-77.56 118.28,-108.57 49.12,-31.02 112.45,-46.54 190.01,-46.54 47.82,0 90.48,6.47 127.96,19.39 37.48,12.93 69.15,34.26 95.01,63.99 25.85,29.73 45.23,70.12 58.16,121.17 12.92,51.06 19.39,114.07 19.39,189.04l0 602.98 -252.05 0zm723.19 -325.73c0,45.24 5.82,78.21 17.45,98.89 11.63,20.68 30.38,31.01 56.23,31.01 15.51,0 30.69,-1.28 45.56,-3.87 14.86,-2.59 33.28,-8.4 55.26,-17.45l27.14 197.76c-20.68,10.34 -52.35,20.68 -95,31.02 -42.66,10.34 -86.61,15.51 -131.84,15.51 -73.68,0 -129.9,-17.12 -168.69,-51.38 -38.78,-34.26 -58.16,-90.81 -58.16,-169.65l0 -1163.31 252.05 0 0 1031.46zm331.54 -643.69l252.05 0 0 969.42 -252.05 0 0 -969.42zm-36.83 -273.38c0,-37.49 13.89,-69.48 41.68,-95.97 27.79,-26.5 66.24,-39.75 115.36,-39.75 49.12,0 88.87,13.25 119.24,39.75 30.38,26.49 45.56,58.48 45.56,95.97 0,37.48 -15.19,68.82 -45.56,94.03 -30.38,25.2 -70.13,37.81 -119.24,37.81 -49.12,0 -87.57,-12.61 -115.36,-37.81 -27.79,-25.21 -41.68,-56.55 -41.68,-94.03zm1087.69 1242.8l0 -527.37c0,-89.19 -8.4,-152.51 -25.2,-190.01 -16.81,-37.48 -51.7,-56.22 -104.7,-56.22 -43.95,0 -79.49,11.95 -106.63,35.87 -27.15,23.92 -47.83,54.61 -62.04,92.09l0 645.64 -252.05 0 0 -969.42 195.83 0 29.08 127.96 7.75 0c29.73,-41.36 67.54,-77.56 113.42,-108.57 45.88,-31.02 105.02,-46.54 177.41,-46.54 62.04,0 112.77,12.6 152.2,37.81 39.42,25.2 70.13,67.54 92.1,127 29.73,-50.41 67.86,-90.48 114.39,-120.21 46.54,-29.73 102.76,-44.6 168.68,-44.6 54.29,0 100.5,6.47 138.63,19.39 38.13,12.93 69.15,35.22 93.07,66.89 23.91,31.67 41.68,74 53.32,127 11.63,53 17.45,120.21 17.45,201.64l0 581.65 -252.05 0 0 -544.82c0,-76.26 -8.07,-133.46 -24.23,-171.58 -16.15,-38.13 -52.02,-57.2 -107.61,-57.2 -45.23,0 -81.1,12.28 -107.6,36.83 -26.5,24.56 -46.21,58.17 -59.14,100.82l0 635.95 -252.05 0zm1031.47 -969.42l252.05 0 0 969.42 -252.05 0 0 -969.42zm-36.83 -273.38c0,-37.49 13.89,-69.48 41.68,-95.97 27.79,-26.5 66.24,-39.75 115.36,-39.75 49.12,0 88.87,13.25 119.24,39.75 30.38,26.49 45.56,58.48 45.56,95.97 0,37.48 -15.19,68.82 -45.56,94.03 -30.38,25.2 -70.13,37.81 -119.24,37.81 -49.12,0 -87.57,-12.61 -115.36,-37.81 -27.79,-25.21 -41.68,-56.55 -41.68,-94.03zm436.24 273.38l133.78 0 0 -182.25 252.05 -71.74 0 253.99 236.53 0 0 213.27 -236.53 0 0 372.26c0,67.22 6.78,115.36 20.35,144.44 13.58,29.08 39.1,43.62 76.59,43.62 25.85,0 48.15,-2.58 66.89,-7.75 18.74,-5.17 39.74,-12.92 63.01,-23.26l44.6 193.88c-34.9,16.81 -75.62,31.02 -122.15,42.66 -46.54,11.63 -93.71,17.45 -141.54,17.45 -89.19,0 -154.78,-22.94 -196.79,-68.82 -42.01,-45.89 -63.01,-121.18 -63.01,-225.88l0 -488.6 -133.78 0 0 -213.27zm1543.33 886.05c-38.78,31.02 -91.46,57.2 -158.02,78.53 -66.56,21.33 -137.34,31.99 -212.3,31.99 -156.41,0 -270.79,-45.56 -343.18,-136.69 -72.39,-91.13 -108.57,-216.18 -108.57,-375.17 0,-170.62 40.72,-298.58 122.14,-383.89 81.43,-85.3 195.83,-127.96 343.18,-127.96 49.12,0 96.95,6.47 143.48,19.39 46.53,12.93 87.89,34.26 124.09,63.99 36.19,29.73 65.27,69.8 87.25,120.21 21.98,50.41 32.96,113.1 32.96,188.07 0,27.15 -1.62,56.23 -4.85,87.25 -3.23,31.01 -8.08,63.33 -14.54,96.94l-579.72 0c3.88,81.43 24.88,142.83 62.69,184.19 38.13,41.35 99.53,62.03 184.51,62.03 53,0 100.17,-8.07 142.18,-24.23 41.68,-16.15 73.68,-32.63 95.66,-49.43l83.05 164.8zm-359.66 -711.56c-65.6,0 -114.4,19.72 -145.74,59.14 -31.34,39.42 -50.41,92.09 -56.87,158.02l358.68 0c5.18,-69.81 -5.49,-123.44 -31.67,-160.92 -26.49,-37.49 -67.86,-56.23 -124.41,-56.23zm1393.06 453.69c0,54.29 0.65,108.57 1.94,162.87 1.29,54.28 7.11,114.39 17.45,180.31l-180.31 0 -34.9 -126.03 -7.75 0c-25.85,45.24 -63.01,81.76 -111.48,109.55 -48.47,27.79 -105.67,41.68 -171.59,41.68 -121.49,0 -215.85,-40.07 -283.06,-120.21 -67.22,-80.14 -100.82,-205.51 -100.82,-376.13 0,-165.45 37.48,-294.06 112.45,-385.83 74.97,-91.77 184.84,-137.66 329.61,-137.66 40.07,0 73.02,2.26 98.88,6.79 25.85,4.52 51.7,11.95 77.55,22.29l0 -393.59 252.05 0 0 1015.96zm-428.48 155.11c49.12,0 87.89,-11.96 116.33,-35.87 28.43,-23.92 48.47,-58.49 60.1,-103.74l0 -411.04c-18.09,-14.21 -38.13,-24.88 -60.1,-31.99 -21.98,-7.11 -50.41,-10.66 -85.3,-10.66 -71.09,0 -124.42,23.91 -159.96,71.73 -35.55,47.83 -53.32,129.91 -53.32,246.24 0,82.73 14.54,149.29 43.62,199.7 29.08,50.41 75.29,75.62 138.63,75.62zm1145.85 -1157.49c54.29,-10.34 114.08,-18.42 179.35,-24.23 65.28,-5.82 130.23,-8.73 194.85,-8.73 67.21,0 134.75,5.49 202.62,16.48 67.86,10.99 128.93,32.96 183.22,65.92 54.28,32.96 98.55,78.84 132.81,137.67 34.26,58.81 51.38,135.4 51.38,229.75 0,85.31 -14.86,157.37 -44.59,216.18 -29.73,58.81 -69.15,106.96 -118.27,144.44 -49.12,37.49 -105.02,64.63 -167.71,81.43 -62.69,16.81 -127.64,25.21 -194.85,25.21 -6.47,0 -16.81,0 -31.02,0 -14.22,0 -29.08,-0.33 -44.6,-0.98 -15.51,-0.65 -30.69,-1.61 -45.56,-2.91 -14.86,-1.29 -25.53,-2.59 -31.99,-3.87l0 467.26 -265.63 0 0 -1343.62zm395.53 195.82c-25.85,0 -50.41,0.98 -73.68,2.91 -23.26,1.94 -42,4.21 -56.22,6.79l0 440.12c5.17,1.29 12.93,2.59 23.27,3.88 10.34,1.29 21.33,2.26 32.95,2.91 11.63,0.65 22.95,0.98 33.94,0.98 10.98,0 19.06,0 24.23,0 34.89,0 69.47,-3.23 103.73,-9.69 34.25,-6.47 64.95,-18.42 92.09,-35.87 27.14,-17.46 48.8,-41.69 64.95,-72.71 16.16,-31.01 24.23,-71.73 24.23,-122.14 0,-42.66 -7.75,-77.88 -23.26,-105.67 -15.52,-27.8 -35.87,-50.09 -61.08,-66.89 -25.2,-16.81 -53.96,-28.43 -86.28,-34.9 -32.32,-6.46 -65.27,-9.69 -98.88,-9.69zm1186.58 414.92c-40.07,-14.22 -76.27,-21.33 -108.57,-21.33 -45.24,0 -83.05,11.95 -113.43,35.87 -30.38,23.92 -50.73,54.61 -61.07,92.09l0 626.25 -252.05 0 0 -969.42 195.83 0 29.08 127.96 7.75 0c21.98,-47.82 51.7,-84.67 89.19,-110.51 37.48,-25.86 81.43,-38.78 131.84,-38.78 33.6,0 71.74,7.11 114.39,21.33l-32.95 236.53zm98.88 248.17c0,-164.15 40.07,-290.5 120.21,-379.05 80.14,-88.54 192.58,-132.81 337.36,-132.81 77.55,0 144.77,12.28 201.64,36.84 56.87,24.55 104.06,59.13 141.54,103.73 37.48,44.59 65.6,98.55 84.34,161.89 18.74,63.34 28.12,133.14 28.12,209.39 0,164.16 -39.75,290.51 -119.24,379.05 -79.49,88.54 -191.62,132.81 -336.39,132.81 -77.55,0 -144.77,-12.27 -201.64,-36.83 -56.87,-24.56 -104.37,-59.14 -142.5,-103.73 -38.13,-44.6 -66.57,-98.56 -85.31,-161.9 -18.74,-63.33 -28.11,-133.13 -28.11,-209.39zm259.8 0c0,42.66 3.87,82.08 11.63,118.27 7.75,36.2 19.39,67.87 34.89,95.01 15.52,27.14 35.87,48.15 61.08,63.01 25.2,14.87 55.26,22.3 90.15,22.3 65.93,0 115.04,-23.92 147.35,-71.74 32.32,-47.83 48.48,-123.44 48.48,-226.85 0,-89.19 -14.87,-161.24 -44.6,-216.18 -29.73,-54.93 -80.14,-82.4 -151.23,-82.4 -62.04,0 -110.51,23.27 -145.41,69.8 -34.9,46.53 -52.35,122.8 -52.35,228.78zm1671.28 -484.7l0 969.42 -252.05 0 0 -756.15 -292.77 0 0 756.15 -252.05 0 0 -756.15 -133.77 0 0 -213.27 133.77 0 0 -54.29c0,-122.8 31.67,-212.3 95.01,-268.53 63.34,-56.22 155.1,-84.34 275.32,-84.34 89.19,0 168.35,6.79 237.5,20.36 69.15,13.57 125.06,32.63 167.71,57.19l-65.92 195.83c-33.61,-18.09 -74.33,-32.63 -122.15,-43.62 -47.82,-10.99 -100.82,-16.48 -158.98,-16.48 -37.49,0 -67.87,4.2 -91.13,12.6 -23.27,8.4 -41.36,20.68 -54.29,36.83 -12.93,16.16 -21.33,36.52 -25.2,61.08 -3.88,24.55 -5.82,52.35 -5.82,83.37l544.82 0zm488.59 643.69c0,45.24 5.82,78.21 17.45,98.89 11.63,20.68 30.38,31.01 56.23,31.01 15.51,0 30.69,-1.28 45.56,-3.87 14.86,-2.59 33.28,-8.4 55.26,-17.45l27.14 197.76c-20.68,10.34 -52.35,20.68 -95,31.02 -42.66,10.34 -86.61,15.51 -131.84,15.51 -73.68,0 -129.9,-17.12 -168.69,-51.38 -38.78,-34.26 -58.16,-90.81 -58.16,-169.65l0 -1163.31 252.05 0 0 1031.46zm1085.76 242.36c-38.78,31.02 -91.46,57.2 -158.02,78.53 -66.56,21.33 -137.34,31.99 -212.3,31.99 -156.41,0 -270.79,-45.56 -343.18,-136.69 -72.39,-91.13 -108.57,-216.18 -108.57,-375.17 0,-170.62 40.72,-298.58 122.14,-383.89 81.43,-85.3 195.83,-127.96 343.18,-127.96 49.12,0 96.95,6.47 143.48,19.39 46.53,12.93 87.89,34.26 124.09,63.99 36.19,29.73 65.27,69.8 87.25,120.21 21.98,50.41 32.96,113.1 32.96,188.07 0,27.15 -1.62,56.23 -4.85,87.25 -3.23,31.01 -8.08,63.33 -14.54,96.94l-579.72 0c3.88,81.43 24.88,142.83 62.69,184.19 38.13,41.35 99.53,62.03 184.51,62.03 53,0 100.17,-8.07 142.18,-24.23 41.68,-16.15 73.68,-32.63 95.66,-49.43l83.05 164.8zm-359.66 -711.56c-65.6,0 -114.4,19.72 -145.74,59.14 -31.34,39.42 -50.41,92.09 -56.87,158.02l358.68 0c5.18,-69.81 -5.49,-123.44 -31.67,-160.92 -26.49,-37.49 -67.86,-56.23 -124.41,-56.23zm970.39 527.37c0,-25.86 -10.99,-46.54 -32.96,-62.04 -21.97,-15.52 -49.12,-29.73 -81.43,-42.66 -32.31,-12.93 -67.86,-26.18 -106.63,-39.74 -38.78,-13.58 -74.33,-32.32 -106.63,-56.23 -32.32,-23.92 -59.46,-54.28 -81.43,-91.13 -21.98,-36.83 -32.96,-84.34 -32.96,-142.5 0,-95.66 28.43,-168.68 85.31,-219.09 56.87,-50.41 138.95,-75.62 246.23,-75.62 73.68,0 140.24,7.75 199.7,23.27 59.46,15.51 106,32.96 139.6,52.35l-56.22 182.25c-29.73,-11.63 -67.21,-23.92 -112.46,-36.84 -45.23,-12.93 -91.13,-19.39 -137.66,-19.39 -74.97,0 -112.46,29.08 -112.46,87.25 0,23.27 10.99,42.01 32.96,56.23 21.97,14.21 49.12,27.47 81.43,39.74 32.31,12.28 67.86,25.53 106.63,39.75 38.78,14.22 74.33,32.63 106.63,55.26 32.32,22.62 59.46,52.02 81.43,88.22 21.98,36.19 32.96,82.72 32.96,139.6 0,98.23 -31.34,175.47 -94.03,231.69 -62.69,56.23 -156.72,84.34 -282.11,84.34 -68.5,0 -132.81,-8.72 -192.91,-26.18 -60.1,-17.45 -108.9,-37.8 -146.38,-61.07l69.8 -188.07c29.73,16.8 69.15,33.28 118.27,49.43 49.13,16.16 99.54,24.23 151.23,24.23 37.49,0 67.54,-7.11 90.16,-21.33 22.62,-14.21 33.93,-38.13 33.93,-71.73zm818.2 -701.86l133.78 0 0 -54.29c0,-122.8 25.85,-211.66 77.55,-266.59 51.7,-54.94 126.67,-82.4 224.9,-82.4 103.41,0 189.37,12.27 257.87,36.83l-48.47 201.64c-29.73,-10.34 -55.9,-17.13 -78.53,-20.36 -22.62,-3.22 -46.21,-4.85 -70.77,-4.85 -25.85,0 -46.2,3.88 -61.07,11.63 -14.86,7.75 -25.85,19.72 -32.96,35.87 -7.11,16.16 -11.63,36.2 -13.57,60.1 -1.94,23.92 -2.92,51.39 -2.92,82.41l213.28 0 0 213.27 -213.28 0 0 756.15 -252.04 0 0 -756.15 -133.78 0 0 -213.27zm655.33 484.7c0,-164.15 40.07,-290.5 120.21,-379.05 80.14,-88.54 192.58,-132.81 337.36,-132.81 77.55,0 144.77,12.28 201.64,36.84 56.87,24.55 104.06,59.13 141.54,103.73 37.48,44.59 65.6,98.55 84.34,161.89 18.74,63.34 28.12,133.14 28.12,209.39 0,164.16 -39.75,290.51 -119.24,379.05 -79.49,88.54 -191.62,132.81 -336.39,132.81 -77.55,0 -144.77,-12.27 -201.64,-36.83 -56.87,-24.56 -104.37,-59.14 -142.5,-103.73 -38.13,-44.6 -66.57,-98.56 -85.31,-161.9 -18.74,-63.33 -28.11,-133.13 -28.11,-209.39zm259.8 0c0,42.66 3.87,82.08 11.63,118.27 7.75,36.2 19.39,67.87 34.89,95.01 15.52,27.14 35.87,48.15 61.08,63.01 25.2,14.87 55.26,22.3 90.15,22.3 65.93,0 115.04,-23.92 147.35,-71.74 32.32,-47.83 48.48,-123.44 48.48,-226.85 0,-89.19 -14.87,-161.24 -44.6,-216.18 -29.73,-54.93 -80.14,-82.4 -151.23,-82.4 -62.04,0 -110.51,23.27 -145.41,69.8 -34.9,46.53 -52.35,122.8 -52.35,228.78zm1363.01 -248.17c-40.07,-14.22 -76.27,-21.33 -108.57,-21.33 -45.24,0 -83.05,11.95 -113.43,35.87 -30.38,23.92 -50.73,54.61 -61.07,92.09l0 626.25 -252.05 0 0 -969.42 195.83 0 29.08 127.96 7.75 0c21.98,-47.82 51.7,-84.67 89.19,-110.51 37.48,-25.86 81.43,-38.78 131.84,-38.78 33.6,0 71.74,7.11 114.39,21.33l-32.95 236.53zm-13053.3 3028.49l269.5 0 0 -765.85 29.08 -131.83 -93.07 114.39 -172.56 118.27 -106.63 -145.41 442.06 -356.75 141.54 0 0 1167.19 263.68 0 0 213.28 -773.59 0 0 -213.28zm1824.45 -812.38c0,65.93 -11.95,132.49 -35.87,199.7 -23.91,67.22 -54.28,133.14 -91.13,197.77 -36.83,64.62 -77.55,126.99 -122.14,187.09 -44.6,60.1 -88.22,115.36 -130.88,165.77l-102.76 79.49 0 9.7 139.6 -27.15 372.26 0 0 213.28 -816.25 0 0 -129.9c31.02,-32.32 65.92,-70.13 104.69,-113.42 38.78,-43.3 77.88,-89.19 117.3,-137.67 39.42,-48.47 77.88,-98.55 115.36,-150.26 37.48,-51.7 71.09,-103.73 100.82,-156.08 29.73,-52.35 53.32,-103.08 70.77,-152.2 17.45,-49.13 26.17,-95.66 26.17,-139.61 0,-52.99 -15.19,-96.61 -45.56,-130.87 -30.38,-34.26 -78.52,-51.38 -144.44,-51.38 -41.36,0 -83.69,8.72 -127,26.18 -43.29,17.45 -79.81,39.74 -109.54,66.88l-100.82 -178.37c50.41,-41.36 107.61,-74.64 171.58,-99.85 63.99,-25.21 139.28,-37.81 225.88,-37.81 55.59,0 106.64,7.75 153.17,23.26 46.53,15.52 86.6,38.14 120.21,67.87 33.61,29.73 60.1,66.89 79.49,111.48 19.39,44.6 29.08,96.62 29.08,156.08zm1838.04 321.85l29.08 -269.5 -11.63 0 -83.37 217.15 -288.89 506.04 -85.31 0 -304.39 -507.98 -85.31 -215.21 -9.69 0 38.78 267.56 0 705.74 -252.05 0 0 -1357.19 242.36 0 362.57 620.43 63.99 155.11 7.75 0 58.16 -158.98 343.18 -616.56 240.42 0 0 1357.19 -265.62 0 0 -703.8zm445.94 219.09c0,-164.15 40.07,-290.5 120.21,-379.05 80.14,-88.54 192.58,-132.81 337.36,-132.81 77.55,0 144.77,12.28 201.64,36.84 56.87,24.55 104.06,59.13 141.54,103.73 37.48,44.59 65.6,98.55 84.34,161.89 18.74,63.34 28.12,133.14 28.12,209.39 0,164.16 -39.75,290.51 -119.24,379.05 -79.49,88.54 -191.62,132.81 -336.39,132.81 -77.55,0 -144.77,-12.27 -201.64,-36.83 -56.87,-24.56 -104.37,-59.14 -142.5,-103.73 -38.13,-44.6 -66.57,-98.56 -85.31,-161.9 -18.74,-63.33 -28.11,-133.13 -28.11,-209.39zm259.8 0c0,42.66 3.87,82.08 11.63,118.27 7.75,36.2 19.39,67.87 34.89,95.01 15.52,27.14 35.87,48.15 61.08,63.01 25.2,14.87 55.26,22.3 90.15,22.3 65.93,0 115.04,-23.92 147.35,-71.74 32.32,-47.83 48.48,-123.44 48.48,-226.85 0,-89.19 -14.87,-161.24 -44.6,-216.18 -29.73,-54.93 -80.14,-82.4 -151.23,-82.4 -62.04,0 -110.51,23.27 -145.41,69.8 -34.9,46.53 -52.35,122.8 -52.35,228.78zm1421.17 484.71l0 -550.63c0,-78.84 -11.31,-135.72 -33.93,-170.62 -22.62,-34.9 -61.08,-52.35 -115.36,-52.35 -47.82,0 -88.22,13.89 -121.18,41.68 -32.95,27.8 -56.55,62.37 -70.76,103.74l0 628.18 -252.05 0 0 -969.42 199.7 0 29.08 127.96 7.75 0c29.73,-41.36 69.16,-77.56 118.28,-108.57 49.12,-31.02 112.45,-46.54 190.01,-46.54 47.82,0 90.48,6.47 127.96,19.39 37.48,12.93 69.15,34.26 95.01,63.99 25.85,29.73 45.23,70.12 58.16,121.17 12.92,51.06 19.39,114.07 19.39,189.04l0 602.98 -252.05 0zm362.57 -969.42l133.78 0 0 -182.25 252.05 -71.74 0 253.99 236.53 0 0 213.27 -236.53 0 0 372.26c0,67.22 6.78,115.36 20.35,144.44 13.58,29.08 39.1,43.62 76.59,43.62 25.85,0 48.15,-2.58 66.89,-7.75 18.74,-5.17 39.74,-12.92 63.01,-23.26l44.6 193.88c-34.9,16.81 -75.62,31.02 -122.15,42.66 -46.54,11.63 -93.71,17.45 -141.54,17.45 -89.19,0 -154.78,-22.94 -196.79,-68.82 -42.01,-45.89 -63.01,-121.18 -63.01,-225.88l0 -488.6 -133.78 0 0 -213.27zm1370.77 969.42l0 -550.63c0,-78.84 -10.99,-135.72 -32.96,-170.62 -21.98,-34.9 -62.04,-52.35 -120.21,-52.35 -42.66,0 -81.75,14.54 -117.3,43.62 -35.54,29.08 -59.13,66.24 -70.76,111.49l0 618.49 -252.05 0 0 -1357.19 252.05 0 0 496.35 7.75 0c31.02,-41.36 69.15,-74.33 114.4,-98.88 45.23,-24.56 102.76,-36.84 172.56,-36.84 49.12,0 92.41,6.47 129.9,19.39 37.48,12.93 68.82,34.26 94.03,63.99 25.2,29.73 43.94,70.12 56.22,121.17 12.28,51.06 18.42,114.07 18.42,189.04l0 602.98 -252.05 0zm864.73 -267.56c0,-25.86 -10.99,-46.54 -32.96,-62.04 -21.97,-15.52 -49.12,-29.73 -81.43,-42.66 -32.31,-12.93 -67.86,-26.18 -106.63,-39.74 -38.78,-13.58 -74.33,-32.32 -106.63,-56.23 -32.32,-23.92 -59.46,-54.28 -81.43,-91.13 -21.98,-36.83 -32.96,-84.34 -32.96,-142.5 0,-95.66 28.43,-168.68 85.31,-219.09 56.87,-50.41 138.95,-75.62 246.23,-75.62 73.68,0 140.24,7.75 199.7,23.27 59.46,15.51 106,32.96 139.6,52.35l-56.22 182.25c-29.73,-11.63 -67.21,-23.92 -112.46,-36.84 -45.23,-12.93 -91.13,-19.39 -137.66,-19.39 -74.97,0 -112.46,29.08 -112.46,87.25 0,23.27 10.99,42.01 32.96,56.23 21.97,14.21 49.12,27.47 81.43,39.74 32.31,12.28 67.86,25.53 106.63,39.75 38.78,14.22 74.33,32.63 106.63,55.26 32.32,22.62 59.46,52.02 81.43,88.22 21.98,36.19 32.96,82.72 32.96,139.6 0,98.23 -31.34,175.47 -94.03,231.69 -62.69,56.23 -156.72,84.34 -282.11,84.34 -68.5,0 -132.81,-8.72 -192.91,-26.18 -60.1,-17.45 -108.9,-37.8 -146.38,-61.07l69.8 -188.07c29.73,16.8 69.15,33.28 118.27,49.43 49.13,16.16 99.54,24.23 151.23,24.23 37.49,0 67.54,-7.11 90.16,-21.33 22.62,-14.21 33.93,-38.13 33.93,-71.73z"/>
  </g>
 </g>
</svg>
