<?xml version="1.0" encoding="utf-8"?>
<!-- Generator: Adobe Illustrator 22.1.0, SVG Export Plug-In . SVG Version: 6.00 Build 0)  -->
<svg version="1.1" id="Layer_1" xmlns="http://www.w3.org/2000/svg" xmlns:xlink="http://www.w3.org/1999/xlink" x="0px" y="0px"
	 viewBox="0 0 62.1 62.1" style="enable-background:new 0 0 62.1 62.1;" xml:space="preserve">
<style type="text/css">
	.st0{clip-path:url(#SVGID_2_);fill:#D52173;}
	.st1{clip-path:url(#SVGID_2_);fill:none;stroke:#FFFFFF;stroke-width:0.864;}
	.st2{clip-path:url(#SVGID_2_);fill:#FFFFFF;}
</style>
<g>
	<defs>
		<rect id="SVGID_1_" width="62.1" height="62.1"/>
	</defs>
	<clipPath id="SVGID_2_">
		<use xlink:href="#SVGID_1_"  style="overflow:visible;"/>
	</clipPath>
	<path class="st0" d="M31.1,61.7C48,61.7,61.7,48,61.7,31.1C61.7,14.1,48,0.4,31.1,0.4S0.4,14.1,0.4,31.1
		C0.4,48,14.1,61.7,31.1,61.7"/>
	<path class="st1" d="M31.1,61.7C48,61.7,61.7,48,61.7,31.1C61.7,14.1,48,0.4,31.1,0.4S0.4,14.1,0.4,31.1
		C0.4,48,14.1,61.7,31.1,61.7z"/>
	<path class="st2" d="M25.6,20.6c-0.7-0.8-0.8-2-0.4-2.9c0.4-0.9,1.2-1.5,2.2-1.6c0.1,0,0.2,0,0.3,0c1.1,0,2.1,0.5,2.7,1.5
		c0.1,0.1,0.2,0.2,0.3,0.2c0.1,0,0.2-0.1,0.3-0.2c0.6-0.9,1.6-1.5,2.7-1.5c0.1,0,0.2,0,0.3,0c1,0.1,1.8,0.7,2.2,1.6
		c0.4,1,0.2,2.1-0.4,2.9l-5.1,6.2L25.6,20.6z M31.1,27.6l5.4-6.6c0.9-1,1.1-2.5,0.5-3.7c-0.5-1.2-1.5-2-2.8-2.1c-0.1,0-0.3,0-0.4,0
		c-1.1,0-2.2,0.5-2.9,1.3l-0.1,0.1l-0.1-0.1c-0.8-0.8-1.8-1.3-2.9-1.3c-0.1,0-0.3,0-0.4,0c-1.3,0.1-2.3,0.9-2.8,2.1
		C24,18.6,24.2,20,25,21.1l5.4,6.6c0.1,0.1,0.2,0.1,0.3,0.1C30.9,27.8,31,27.7,31.1,27.6"/>
	<path class="st2" d="M19.8,40.4l2.3,0l0,0c0.1,0.1,0.3,0,0.4-0.1c0.1-0.1,0.1-0.2,0.1-0.3c0-0.1-0.1-0.2-0.1-0.3l0,0
		c-0.1-0.1-0.2-0.1-0.3-0.1l-2.4,0c0,0,0,0,0,0c-0.1,0-0.2,0-0.3,0.1c-0.1,0.1-0.1,0.2-0.1,0.3c0,0.1,0,0.2,0.1,0.3
		C19.6,40.4,19.7,40.4,19.8,40.4"/>
	<path class="st2" d="M43.6,39.8l-3,0c-0.1,0-0.1,0-0.2,0l-3.2,1.4c-0.2,0.1-0.3,0.3-0.2,0.5c0.1,0.1,0.2,0.2,0.4,0.2
		c0.1,0,0.1,0,0.1,0l3.1-1.3l2.9,0c0.2,0,0.4-0.2,0.4-0.4C44,39.9,43.8,39.8,43.6,39.8"/>
	<path class="st2" d="M39.5,33c0.1-0.1,0.1-0.2,0-0.3c0-0.1-0.1-0.2-0.2-0.2l-3.5-2.2c-0.1,0-0.1-0.1-0.2-0.1l-3.9,0
		c-0.1,0-0.2,0-0.2,0.1l-2,1.7l-4.2,0c0,0-0.1,0-0.1,0l-1.8,0.5l-3.8,0.1c-0.1,0-0.2,0-0.3,0.1c-0.1,0.1-0.1,0.2-0.1,0.3
		c0,0.2,0.2,0.4,0.4,0.4h0h0l3.8-0.1c0,0,0.1,0,0.1,0l1.8-0.5l4.3,0c0.1,0,0.2,0,0.2-0.1l2-1.7l3.6,0l3.4,2.1c0.1,0.1,0.2,0.1,0.3,0
		C39.4,33.1,39.5,33.1,39.5,33"/>
	<path class="st2" d="M43.8,32.8c0-0.1,0-0.2-0.1-0.3c-0.1-0.1-0.2-0.1-0.3-0.1l-4.1,0L36,30.3c-0.1,0-0.1-0.1-0.2-0.1l-4.4,0
		c-0.1,0-0.2,0-0.3,0.1l-4.8,5.3c-0.5,0.6-0.7,1.5-0.4,2.3l0,0l0,0c0,0.1,0,0.2,0.1,0.3l0.3,0.3c0.1,0.1,0.2,0.1,0.3,0.1l0,0l0,0
		c0.8,0.4,1.7,0.3,2.4-0.2l3.1-2.2l5.7,6c0.1,0.1,0.2,0.2,0.1,0.4c0,0.2-0.2,0.2-0.3,0.3l-6.8,3c-0.4,0.2-1.1,0.1-1.4-0.2l-6.8-6.1
		c-0.1-0.1-0.2-0.1-0.3-0.1l-2.7,0c-0.2,0-0.4,0.2-0.4,0.4c0,0.2,0.2,0.4,0.4,0.4l2.6,0l6.7,6c0.4,0.3,0.9,0.5,1.5,0.5
		c0.3,0,0.6-0.1,0.8-0.2l6.8-3c0.4-0.2,0.7-0.5,0.7-0.8s0-0.7-0.3-1l-5.9-6.3c-0.1-0.1-0.3-0.2-0.5-0.1L28.6,38
		c-0.5,0.4-1.3,0.4-1.8,0l0,0l0,0c-0.3-0.5-0.3-1.3,0.1-1.7l4.6-5.2l4.2,0l3.4,2.2c0.1,0,0.1,0.1,0.2,0.1l4.2,0
		C43.7,33.2,43.8,33,43.8,32.8"/>
	<path class="st2" d="M32.3,45.9c0.1,0.1,0.2,0.1,0.2,0.1c0.1,0,0.2-0.1,0.3-0.1c0.1-0.1,0.1-0.2,0.1-0.3c0-0.1-0.1-0.2-0.1-0.3
		L30,42.9c-0.1-0.1-0.2-0.1-0.2-0.1c-0.1,0-0.2,0-0.3,0.1c-0.1,0.1-0.1,0.2-0.1,0.3c0,0.1,0.1,0.2,0.1,0.3L32.3,45.9z"/>
	<path class="st2" d="M34.3,44.9c0.1,0.1,0.2,0.1,0.3,0.1c0.1,0,0.2,0,0.3-0.1c0.1-0.2,0.1-0.4,0-0.5L32.2,42
		c-0.1-0.1-0.2-0.1-0.3-0.1c-0.1,0-0.2,0-0.3,0.1c-0.1,0.2-0.1,0.4,0,0.5L34.3,44.9z"/>
	<path class="st2" d="M34.2,40.9c-0.1-0.1-0.2-0.1-0.3-0.1c0,0,0,0,0,0c-0.1,0-0.2,0.1-0.3,0.1s-0.1,0.2-0.1,0.3
		c0,0.1,0.1,0.2,0.1,0.3l2.8,2.5c0.1,0.1,0.2,0.1,0.3,0.1c0.1,0,0.2,0,0.3-0.1c0.1-0.1,0.1-0.2,0.1-0.3c0-0.1-0.1-0.2-0.1-0.3
		L34.2,40.9z"/>
	<path class="st2" d="M19.2,45.4l-4.8-3.9v-8.4h4.8V45.4z M20,46.2V32.8c0-0.2-0.2-0.4-0.4-0.4h-5.6c-0.2,0-0.4,0.2-0.4,0.4v8.9
		c0,0.1,0.1,0.2,0.1,0.3l5.6,4.5c0.1,0.1,0.3,0.1,0.4,0C19.9,46.5,20,46.4,20,46.2"/>
	<path class="st2" d="M44,31.5h3.7v9.8H44V31.5z M48.1,42.1c0.2,0,0.4-0.2,0.4-0.4V31.1c0-0.2-0.2-0.4-0.4-0.4h-4.5
		c-0.2,0-0.4,0.2-0.4,0.4v10.6c0,0.2,0.2,0.4,0.4,0.4H48.1z"/>
	<path class="st2" d="M45.8,38.9c-0.3,0-0.6,0.3-0.6,0.6c0,0.3,0.3,0.6,0.6,0.6c0.3,0,0.6-0.3,0.6-0.6
		C46.4,39.2,46.2,38.9,45.8,38.9"/>
</g>
</svg>
