<?xml version="1.0" encoding="utf-8"?>
<!-- Generator: Adobe Illustrator 22.1.0, SVG Export Plug-In . SVG Version: 6.00 Build 0)  -->
<svg version="1.1" id="Layer_1" xmlns="http://www.w3.org/2000/svg" xmlns:xlink="http://www.w3.org/1999/xlink" x="0px" y="0px"
	 viewBox="0 0 62.1 62.1" style="enable-background:new 0 0 62.1 62.1;" xml:space="preserve">
<style type="text/css">
	.st0{clip-path:url(#SVGID_2_);fill:#D52173;}
	.st1{clip-path:url(#SVGID_2_);fill:none;stroke:#FFFFFF;stroke-width:0.864;}
	.st2{clip-path:url(#SVGID_2_);fill:#FFFFFF;}
</style>
<g>
	<defs>
		<rect id="SVGID_1_" width="62.1" height="62.1"/>
	</defs>
	<clipPath id="SVGID_2_">
		<use xlink:href="#SVGID_1_"  style="overflow:visible;"/>
	</clipPath>
	<path class="st0" d="M31.1,61.7C48,61.7,61.7,48,61.7,31.1C61.7,14.1,48,0.4,31.1,0.4S0.4,14.1,0.4,31.1
		C0.4,48,14.1,61.7,31.1,61.7"/>
	<path class="st1" d="M31.1,61.7C48,61.7,61.7,48,61.7,31.1C61.7,14.1,48,0.4,31.1,0.4S0.4,14.1,0.4,31.1
		C0.4,48,14.1,61.7,31.1,61.7z"/>
	<path class="st2" d="M33.4,26.9c-0.1,0.1-0.1,0.2-0.1,0.2l0.2,2.4l-2.3-0.9c-0.1,0-0.2,0-0.3,0l-2.3,0.9l0.2-2.4
		c0-0.1,0-0.2-0.1-0.2L27.2,25l2.3-0.6c0.1,0,0.2-0.1,0.2-0.2l1.3-2l1.3,2c0,0.1,0.1,0.1,0.2,0.2l2.3,0.6L33.4,26.9z M35.9,24.7
		L35.9,24.7c0-0.1-0.1-0.2-0.2-0.2l-2.7-0.7l-1.5-2.4c-0.1-0.1-0.2-0.2-0.3-0.2c-0.1,0-0.2,0.1-0.3,0.2l-1.5,2.4l-2.7,0.7
		c-0.1,0-0.2,0.1-0.2,0.2c0,0.1,0,0.2,0.1,0.3l1.8,2.2L28,30.1c0,0.1,0,0.2,0.1,0.3s0.2,0.1,0.3,0l2.6-1l2.6,1c0.1,0,0.2,0,0.3,0
		c0.1-0.1,0.1-0.2,0.1-0.3L34,27.2l1.8-2.2C35.9,24.9,35.9,24.8,35.9,24.7"/>
	<path class="st2" d="M31.1,32.8c-0.2,0-0.3,0.2-0.3,0.3v13.5c0,0.2,0.2,0.3,0.3,0.3c0.2,0,0.3-0.2,0.3-0.3V33.1
		C31.4,32.9,31.3,32.8,31.1,32.8"/>
	<path class="st2" d="M40.7,30.9c0.1-0.1,0.2-0.3,0-0.5c-0.1-0.1-0.1-0.1-0.2-0.1c0,0,0,0,0,0c-0.1,0-0.2,0-0.2,0.1
		c-1.1,0.9-1.9,2.2-2.6,3.8c-0.9,2.1-1.3,4.8-1.3,7.9c0,0.2,0.2,0.3,0.3,0.3c0.2,0,0.3-0.2,0.3-0.3C37,35.1,39.3,32,40.7,30.9"/>
	<path class="st2" d="M45.5,28.4L45.5,28.4l0.3,1l-1-0.2c-0.1,0-0.2,0-0.2,0.1l-0.8,0.6l-0.1-1c0-0.1-0.1-0.2-0.1-0.2l-0.8-0.6
		l0.9-0.4c0.1,0,0.1-0.1,0.2-0.2l0.4-0.9l0.7,0.7c0.1,0.1,0.1,0.1,0.2,0.1l1,0l-0.5,0.9C45.5,28.2,45.5,28.3,45.5,28.4 M46.6,29.8
		c0,0,0-0.1,0-0.1l0,0l-0.4-1.3l0.7-1.3c0.1-0.1,0.1-0.2,0-0.3c-0.1-0.1-0.2-0.2-0.3-0.2l-1.4-0.1l-1-1c-0.1-0.1-0.2-0.1-0.2-0.1
		c0,0,0,0-0.1,0c-0.1,0-0.2,0.1-0.3,0.2l-0.5,1.3l-1.3,0.6c-0.1,0.1-0.2,0.2-0.2,0.3c0,0.1,0,0.2,0.1,0.3l1.1,0.9l0.2,1.4
		c0,0.1,0.1,0.2,0.2,0.3c0.1,0,0.2,0,0.3,0l1.2-0.8l1.4,0.2c0,0,0,0,0.1,0C46.5,30.1,46.6,30,46.6,29.8"/>
	<path class="st2" d="M25.8,42c0-3.1-0.4-5.8-1.3-7.9c-0.6-1.6-1.5-2.8-2.6-3.8c-0.1-0.1-0.1-0.1-0.2-0.1c0,0,0,0,0,0
		c-0.1,0-0.2,0-0.2,0.1c-0.1,0.1-0.1,0.2-0.1,0.3c0,0.1,0,0.2,0.1,0.2c1.4,1.2,3.7,4.2,3.7,11.2c0,0.2,0.2,0.3,0.3,0.3
		S25.8,42.2,25.8,42"/>
	<path class="st2" d="M18.7,28.6c-0.1,0.1-0.1,0.1-0.1,0.2l-0.1,1l-0.8-0.6c-0.1,0-0.2-0.1-0.2-0.1l-1,0.2l0.3-1c0-0.1,0-0.2,0-0.3
		l-0.5-0.9l1,0c0.1,0,0.2,0,0.2-0.1l0.7-0.7l0.4,0.9c0,0.1,0.1,0.2,0.2,0.2l0.9,0.4L18.7,28.6z M19.2,29l1.1-0.9
		c0.1-0.1,0.1-0.2,0.1-0.3c0-0.1-0.1-0.2-0.2-0.3L19,26.9l-0.5-1.3c0-0.1-0.1-0.2-0.3-0.2c-0.1,0-0.2,0-0.3,0.1l-1,1l-1.4,0.1
		c-0.1,0-0.2,0.1-0.3,0.2c-0.1,0.1-0.1,0.2,0,0.3l0.7,1.3l-0.4,1.4c0,0.1,0,0.2,0.1,0.3s0.2,0.1,0.3,0.1l1.4-0.2l1.2,0.8
		c0.1,0.1,0.2,0.1,0.3,0c0.1,0,0.2-0.1,0.2-0.3L19.2,29z"/>
	<path class="st2" d="M23.8,18.8c1,0.6,2.1,2.2,2.3,3.6c0,0.2,0.2,0.3,0.3,0.3c0,0,0,0,0.1,0c0.2,0,0.3-0.2,0.3-0.4
		c-0.2-1.6-1.4-3.4-2.6-4.1c-0.2-0.1-0.4,0-0.5,0.1C23.6,18.5,23.6,18.7,23.8,18.8"/>
	<path class="st2" d="M20.8,17.7c-0.5,0-0.9-0.4-0.9-0.9c0-0.5,0.4-0.9,0.9-0.9c0.5,0,0.9,0.4,0.9,0.9
		C21.7,17.3,21.3,17.7,20.8,17.7 M20.8,15.2c-0.9,0-1.6,0.7-1.6,1.6s0.7,1.6,1.6,1.6c0.9,0,1.6-0.7,1.6-1.6S21.7,15.2,20.8,15.2"/>
	<path class="st2" d="M38.3,18.8c0.2-0.1,0.2-0.3,0.1-0.5c0-0.1-0.1-0.1-0.2-0.2c-0.1,0-0.2,0-0.3,0c-1.2,0.7-2.4,2.5-2.6,4.1
		c0,0.2,0.1,0.4,0.3,0.4c0,0,0,0,0.1,0c0.2,0,0.3-0.1,0.3-0.3C36.3,21,37.3,19.4,38.3,18.8"/>
	<path class="st2" d="M41.3,17.7c-0.5,0-0.9-0.4-0.9-0.9c0-0.5,0.4-0.9,0.9-0.9c0.5,0,0.9,0.4,0.9,0.9
		C42.2,17.3,41.8,17.7,41.3,17.7 M41.3,15.2c-0.9,0-1.6,0.7-1.6,1.6s0.7,1.6,1.6,1.6c0.9,0,1.6-0.7,1.6-1.6S42.2,15.2,41.3,15.2"/>
	<path class="st2" d="M20.2,37c-0.2,0-0.3,0.2-0.3,0.3c0,0.2,0.2,0.3,0.3,0.3c0.2,0,0.3-0.2,0.3-0.3C20.6,37.2,20.4,37,20.2,37"/>
	<path class="st2" d="M22.9,23.9c-0.2,0-0.3,0.2-0.3,0.3c0,0.2,0.2,0.3,0.3,0.3c0.2,0,0.3-0.2,0.3-0.3C23.2,24,23.1,23.9,22.9,23.9"
		/>
	<path class="st2" d="M31,17.8c-0.2,0-0.3,0.2-0.3,0.3c0,0.2,0.2,0.3,0.3,0.3c0.2,0,0.3-0.2,0.3-0.3C31.4,18,31.2,17.8,31,17.8"/>
	<path class="st2" d="M40.5,23.7c-0.2,0-0.3,0.2-0.3,0.3c0,0.2,0.2,0.3,0.3,0.3c0.2,0,0.3-0.2,0.3-0.3
		C40.8,23.8,40.7,23.7,40.5,23.7"/>
	<path class="st2" d="M41.2,37c-0.2,0-0.3,0.2-0.3,0.3c0,0.2,0.2,0.3,0.3,0.3c0.2,0,0.3-0.2,0.3-0.3C41.6,37.2,41.4,37,41.2,37"/>
	<path class="st2" d="M25.8,43.8c0-0.2-0.2-0.3-0.3-0.3s-0.3,0.2-0.3,0.3c0,0.2,0.2,0.3,0.3,0.3S25.8,44,25.8,43.8"/>
	<path class="st2" d="M36.7,43.5c-0.2,0-0.3,0.2-0.3,0.3c0,0.2,0.2,0.3,0.3,0.3c0.2,0,0.3-0.2,0.3-0.3C37,43.7,36.9,43.5,36.7,43.5"
		/>
	<path class="st2" d="M27.9,33.7c0-0.2-0.2-0.3-0.3-0.3s-0.3,0.2-0.3,0.3s0.2,0.3,0.3,0.3S27.9,33.9,27.9,33.7"/>
	<path class="st2" d="M34.6,33.1c-0.2,0-0.3,0.2-0.3,0.3c0,0.2,0.2,0.3,0.3,0.3c0.2,0,0.3-0.2,0.3-0.3C35,33.2,34.8,33.1,34.6,33.1"
		/>
</g>
</svg>
