<?xml version="1.0" encoding="UTF-8"?>
<!DOCTYPE svg PUBLIC "-//W3C//DTD SVG 1.1//EN" "http://www.w3.org/Graphics/SVG/1.1/DTD/svg11.dtd">
<!-- Creator: CorelDRAW 2020 (64-Bit) -->
<svg xmlns="http://www.w3.org/2000/svg" xml:space="preserve" width="210mm" height="184.8mm" version="1.1" style="shape-rendering:geometricPrecision; text-rendering:geometricPrecision; image-rendering:optimizeQuality; fill-rule:evenodd; clip-rule:evenodd"
viewBox="0 0 6470.39 5693.94"
 xmlns:xlink="http://www.w3.org/1999/xlink"
 xmlns:xodm="http://www.corel.com/coreldraw/odm/2003">
 <defs>
  <style type="text/css">
   <![CDATA[
    .str1 {stroke:#521F70;stroke-width:54.49;stroke-miterlimit:22.9256}
    .str2 {stroke:#521F70;stroke-width:8.63;stroke-miterlimit:22.9256}
    .str0 {stroke:#521F70;stroke-width:69.02;stroke-linecap:round;stroke-linejoin:round;stroke-miterlimit:22.9256}
    .fil2 {fill:none;fill-rule:nonzero}
    .fil3 {fill:#521F70;fill-rule:nonzero}
    .fil0 {fill:#DC6B6B;fill-rule:nonzero}
    .fil1 {fill:white;fill-rule:nonzero}
   ]]>
  </style>
 </defs>
 <g id="Layer_x0020_1">
  <metadata id="CorelCorpID_0Corel-Layer"/>
  <g id="_1603249824992">
   <path class="fil0" d="M172.54 0c0,0 -172.54,0 -172.54,172.54l0 5348.85c0,0 0,172.54 172.54,172.54l6125.3 0c0,0 172.54,0 172.54,-172.54l0 -5348.85c0,0 0,-172.54 -172.54,-172.54l-6125.3 0z"/>
   <path class="fil1" d="M2305.18 2815.91c0,-445.16 379.6,-807.5 845.46,-807.5 465.87,0 845.46,362.34 845.46,807.5l-1690.93 0z"/>
   <path class="fil2 str0" d="M2305.18 2815.91c0,-445.16 379.6,-807.5 845.46,-807.5 465.87,0 845.46,362.34 845.46,807.5l-1690.93 0z"/>
   <path class="fil1" d="M3602.71 1525.29c0,251.91 -203.6,452.06 -452.06,452.06 -251.91,0 -452.06,-203.6 -452.06,-452.06 -3.45,-251.91 200.15,-455.52 452.06,-455.52 248.46,0 452.06,203.6 452.06,455.52z"/>
   <circle class="fil2 str0" cx="3150.65" cy="1525.29" r="452.06"/>
   <path class="fil1" d="M3864.98 2902.18c151.84,0 272.62,-120.78 272.62,-272.62 0,-151.84 -120.78,-272.62 -272.62,-272.62 -151.84,0 -272.62,120.78 -272.62,272.62 0,151.84 120.78,272.62 272.62,272.62z"/>
   <circle class="fil2 str1" cx="3864.98" cy="2629.57" r="272.62"/>
   <path class="fil3" d="M3827.02 2722.74c-6.9,0 -10.35,-3.45 -13.8,-6.9l-72.47 -72.47c-6.9,-6.9 -6.9,-20.71 0,-31.06 6.9,-6.9 20.71,-6.9 31.06,0l58.66 58.66 134.58 -134.58c6.9,-6.9 20.71,-6.9 31.06,0 10.35,6.9 6.9,20.71 0,31.06l-148.39 148.39c-10.35,6.9 -13.8,6.9 -20.71,6.9z"/>
   <path class="fil2 str2" d="M3827.02 2722.74c-6.9,0 -10.35,-3.45 -13.8,-6.9l-72.47 -72.47c-6.9,-6.9 -6.9,-20.71 0,-31.06 6.9,-6.9 20.71,-6.9 31.06,0l58.66 58.66 134.58 -134.58c6.9,-6.9 20.71,-6.9 31.06,0 10.35,6.9 6.9,20.71 0,31.06l-148.39 148.39c-10.35,6.9 -13.8,6.9 -20.71,6.9z"/>
   <g>
    <path class="fil1" d="M5542.1 4772.56c-6.9,3.45 -17.25,6.9 -27.61,6.9 -17.25,0 -31.06,-3.45 -48.31,-6.9 -17.25,-6.9 -27.61,-10.35 -37.96,-17.25l-20.71 58.66c10.35,6.9 27.61,13.8 48.31,20.71 20.71,6.9 41.41,6.9 62.12,6.9 41.41,0 69.02,-10.35 89.72,-27.61 20.71,-17.25 31.06,-41.41 31.06,-75.92 0,-17.25 -3.45,-34.51 -10.35,-44.86 -6.9,-10.35 -17.25,-20.71 -27.61,-27.61 -10.35,-6.9 -20.71,-13.8 -34.51,-17.25 -13.8,-3.45 -24.16,-10.35 -34.51,-13.8 -10.35,-3.45 -20.71,-6.9 -27.61,-13.8 -6.9,-3.45 -10.35,-10.35 -10.35,-17.25 0,-17.25 10.35,-27.61 34.51,-27.61 13.8,0 31.06,3.45 44.86,6.9 13.8,3.45 27.61,6.9 34.51,10.35l17.25 -58.66c-10.35,-6.9 -24.16,-10.35 -44.86,-17.25 -20.71,-6.9 -41.41,-6.9 -65.57,-6.9 -34.51,0 -62.12,6.9 -79.37,24.16 -17.25,17.25 -27.61,37.96 -27.61,69.02 0,17.25 3.45,34.51 10.35,44.86 6.9,10.35 17.25,20.71 27.61,27.61 10.35,6.9 20.71,13.8 34.51,17.25 13.8,3.45 24.16,6.9 34.51,13.8 10.35,3.45 20.71,10.35 27.61,13.8 6.9,3.45 10.35,10.35 10.35,20.71 3.45,20.71 0,27.61 -10.35,31.06l0 0zm-258.82 -172.54c6.9,10.35 10.35,27.61 10.35,51.76l-113.88 0c3.45,-20.71 6.9,-37.96 17.25,-51.76 10.35,-13.8 24.16,-17.25 48.31,-17.25 17.25,-3.45 31.06,3.45 37.96,17.25l0 0zm48.31 155.29c-6.9,6.9 -17.25,10.35 -31.06,17.25 -13.8,3.45 -27.61,6.9 -44.86,6.9 -27.61,0 -48.31,-6.9 -58.66,-20.71 -13.8,-13.8 -17.25,-34.51 -20.71,-58.66l186.35 0c3.45,-10.35 3.45,-20.71 3.45,-31.06 0,-10.35 0,-20.71 0,-27.61 0,-24.16 -3.45,-44.86 -10.35,-58.66 -6.9,-17.25 -17.25,-27.61 -27.61,-37.96 -10.35,-10.35 -24.16,-17.25 -41.41,-20.71 -13.8,-3.45 -31.06,-6.9 -44.86,-6.9 -48.31,0 -82.82,13.8 -110.43,41.41 -27.61,27.61 -37.96,69.02 -37.96,124.23 0,51.76 10.35,89.72 34.51,120.78 24.16,27.61 58.66,44.86 110.43,44.86 24.16,0 48.31,-3.45 69.02,-10.35 20.71,-6.9 37.96,-13.8 51.76,-24.16l-27.61 -58.66zm-320.93 -355.44l-79.37 0 0 372.69c0,24.16 6.9,44.86 17.25,55.21 13.8,10.35 31.06,17.25 55.21,17.25 13.8,0 27.61,0 41.41,-3.45 13.8,-3.45 24.16,-6.9 31.06,-10.35l-10.35 -62.12c-6.9,3.45 -13.8,3.45 -17.25,6.9 -3.45,0 -10.35,0 -13.8,0 -6.9,0 -13.8,-3.45 -17.25,-10.35 -3.45,-6.9 -6.9,-17.25 -6.9,-31.06l0 -334.73zm-331.28 124.23c0,-10.35 0,-17.25 3.45,-27.61 0,-6.9 3.45,-13.8 6.9,-20.71 3.45,-6.9 10.35,-10.35 17.25,-10.35 6.9,-3.45 17.25,-3.45 27.61,-3.45 17.25,0 34.51,3.45 51.76,6.9 13.8,3.45 27.61,6.9 37.96,13.8l20.71 -62.12c-13.8,-6.9 -31.06,-13.8 -55.21,-17.25 -20.71,-3.45 -48.31,-6.9 -75.92,-6.9 -37.96,0 -69.02,10.35 -89.72,27.61 -20.71,17.25 -31.06,48.31 -31.06,86.27l0 17.25 -37.96 0 0 69.02 41.41 0 0 241.56 79.37 0 0 -241.56 93.17 0 0 241.56 79.37 0 0 -310.58 -169.09 0 0 -3.45zm-345.09 82.82c10.35,-13.8 27.61,-20.71 44.86,-20.71 24.16,0 37.96,10.35 48.31,27.61 10.35,17.25 13.8,41.41 13.8,69.02 0,34.51 -6.9,58.66 -13.8,72.47 -10.35,13.8 -27.61,24.16 -48.31,24.16 -10.35,0 -20.71,-3.45 -27.61,-6.9 -6.9,-3.45 -13.8,-10.35 -20.71,-20.71 -6.9,-10.35 -10.35,-17.25 -10.35,-31.06 0,-13.8 -3.45,-24.16 -3.45,-37.96 3.45,-37.96 6.9,-62.12 17.25,-75.92l0 0zm-89.72 141.49c6.9,20.71 13.8,37.96 27.61,51.76 13.8,13.8 27.61,24.16 44.86,34.51 17.25,10.35 41.41,10.35 65.57,10.35 44.86,0 82.82,-13.8 106.98,-41.41 24.16,-27.61 37.96,-69.02 37.96,-120.78 0,-24.16 -3.45,-48.31 -10.35,-65.57 -6.9,-20.71 -13.8,-37.96 -27.61,-51.76 -10.35,-13.8 -27.61,-24.16 -44.86,-34.51 -17.25,-10.35 -41.41,-10.35 -65.57,-10.35 -44.86,0 -82.82,13.8 -106.98,41.41 -24.16,27.61 -37.96,69.02 -37.96,120.78 0,20.71 3.45,44.86 10.35,65.57l0 0zm-31.06 -224.31c-13.8,-3.45 -27.61,-6.9 -37.96,-6.9 -17.25,0 -31.06,3.45 -41.41,13.8 -10.35,6.9 -20.71,20.71 -27.61,34.51l-3.45 0 -10.35 -41.41 -62.12 0 0 310.58 79.37 0 0 -200.15c3.45,-10.35 10.35,-20.71 20.71,-31.06 10.35,-10.35 20.71,-10.35 37.96,-10.35 10.35,0 20.71,3.45 34.51,6.9l10.35 -75.92zm-358.89 -51.76c10.35,3.45 20.71,6.9 27.61,10.35 6.9,6.9 13.8,13.8 20.71,20.71 3.45,10.35 6.9,20.71 6.9,34.51 0,17.25 -3.45,27.61 -6.9,37.96 -6.9,10.35 -13.8,17.25 -20.71,24.16 -10.35,6.9 -17.25,10.35 -31.06,10.35 -13.8,0 -20.71,3.45 -34.51,3.45l-6.9 0c-3.45,0 -6.9,0 -10.35,0 -3.45,0 -6.9,0 -10.35,0 -3.45,0 -6.9,0 -6.9,0l0 -141.49c3.45,0 10.35,0 17.25,-3.45 6.9,0 13.8,0 24.16,0 10.35,0 20.71,0 31.06,3.45l0 0zm-158.74 362.34l86.27 0 0 -148.39c3.45,0 6.9,0 10.35,0 3.45,0 10.35,0 13.8,0 3.45,0 10.35,0 13.8,0l10.35 0c20.71,0 41.41,-3.45 62.12,-6.9 20.71,-6.9 37.96,-13.8 55.21,-27.61 17.25,-10.35 27.61,-27.61 37.96,-44.86 10.35,-17.25 13.8,-41.41 13.8,-69.02 0,-31.06 -6.9,-55.21 -17.25,-72.47 -10.35,-17.25 -24.16,-34.51 -41.41,-44.86 -17.25,-10.35 -37.96,-17.25 -58.66,-20.71 -20.71,-3.45 -44.86,-6.9 -65.57,-6.9 -20.71,0 -41.41,0 -62.12,3.45 -20.71,3.45 -41.41,3.45 -58.66,6.9l0 431.36zm-410.65 -82.82c-10.35,-17.25 -13.8,-37.96 -13.8,-65.57 0,-37.96 6.9,-62.12 17.25,-79.37 10.35,-13.8 27.61,-24.16 51.76,-24.16 10.35,0 20.71,0 27.61,3.45 6.9,3.45 13.8,6.9 20.71,10.35l0 131.13c-3.45,13.8 -10.35,24.16 -20.71,34.51 -10.35,6.9 -20.71,10.35 -37.96,10.35 -20.71,3.45 -34.51,-3.45 -44.86,-20.71l0 0zm182.9 -351.99l-79.37 0 0 127.68c-6.9,-3.45 -17.25,-6.9 -24.16,-6.9 -6.9,0 -17.25,-3.45 -31.06,-3.45 -44.86,0 -82.82,13.8 -106.98,44.86 -24.16,31.06 -34.51,69.02 -34.51,124.23 0,55.21 10.35,93.17 31.06,120.78 20.71,24.16 51.76,37.96 89.72,37.96 20.71,0 37.96,-3.45 55.21,-13.8 13.8,-10.35 27.61,-20.71 34.51,-34.51l3.45 0 10.35 41.41 58.66 0c-3.45,-20.71 -6.9,-41.41 -6.9,-58.66 0,-17.25 0,-34.51 0,-51.76l0 -327.83zm-407.2 200.15c6.9,10.35 10.35,27.61 10.35,51.76l-113.88 0c3.45,-20.71 6.9,-37.96 17.25,-51.76 10.35,-13.8 24.16,-17.25 48.31,-17.25 17.25,-3.45 31.06,3.45 37.96,17.25l0 0zm48.31 155.29c-6.9,6.9 -17.25,10.35 -31.06,17.25 -13.8,3.45 -27.61,6.9 -44.86,6.9 -27.61,0 -48.31,-6.9 -58.66,-20.71 -13.8,-13.8 -17.25,-34.51 -20.71,-58.66l186.35 0c3.45,-10.35 3.45,-20.71 3.45,-31.06 0,-10.35 0,-20.71 0,-27.61 0,-24.16 -3.45,-44.86 -10.35,-58.66 -6.9,-17.25 -17.25,-27.61 -27.61,-37.96 -10.35,-10.35 -24.16,-17.25 -41.41,-20.71 -13.8,-3.45 -31.06,-6.9 -44.86,-6.9 -48.31,0 -82.82,13.8 -110.43,41.41 -27.61,27.61 -37.96,69.02 -37.96,124.23 0,51.76 10.35,89.72 34.51,120.78 24.16,27.61 58.66,44.86 110.43,44.86 24.16,0 48.31,-3.45 69.02,-10.35 20.71,-6.9 37.96,-13.8 51.76,-24.16l-27.61 -58.66zm-469.32 -231.21c0,-10.35 0,-17.25 3.45,-27.61 0,-6.9 3.45,-13.8 6.9,-20.71 3.45,-6.9 10.35,-10.35 17.25,-10.35 6.9,-3.45 17.25,-3.45 27.61,-3.45 17.25,0 34.51,3.45 51.76,6.9 13.8,3.45 27.61,6.9 37.96,13.8l20.71 -62.12c-13.8,-6.9 -31.06,-13.8 -55.21,-17.25 -20.71,-3.45 -48.31,-6.9 -75.92,-6.9 -37.96,0 -69.02,10.35 -89.72,27.61 -20.71,17.25 -31.06,48.31 -31.06,86.27l0 17.25 -41.41 0 0 69.02 41.41 0 0 241.56 79.37 0 0 -241.56 93.17 0 0 241.56 79.37 0 0 -310.58 -165.64 0 0 -3.45zm-255.36 -55.21c10.35,6.9 20.71,13.8 37.96,13.8 17.25,0 27.61,-3.45 37.96,-13.8 10.35,-6.9 13.8,-17.25 13.8,-31.06 0,-10.35 -3.45,-20.71 -13.8,-31.06 -10.35,-6.9 -24.16,-13.8 -37.96,-13.8 -17.25,0 -27.61,3.45 -37.96,13.8 -10.35,6.9 -13.8,17.25 -13.8,31.06 0,10.35 6.9,20.71 13.8,31.06l0 0zm0 365.79l79.37 0 0 -310.58 -79.37 0 0 310.58zm-44.86 -310.58c-13.8,-3.45 -27.61,-6.9 -37.96,-6.9 -17.25,0 -31.06,3.45 -41.41,13.8 -10.35,6.9 -20.71,20.71 -27.61,34.51l-3.45 0 -10.35 -41.41 -62.12 0 0 310.58 79.37 0 0 -200.15c3.45,-10.35 10.35,-20.71 20.71,-31.06 10.35,-6.9 20.71,-10.35 37.96,-10.35 10.35,0 20.71,3.45 34.51,6.9l10.35 -75.92zm-324.38 75.92c6.9,10.35 10.35,27.61 10.35,51.76l-113.88 0c3.45,-20.71 6.9,-37.96 17.25,-51.76 10.35,-13.8 24.16,-17.25 48.31,-17.25 17.25,-3.45 31.06,3.45 37.96,17.25l0 0zm51.76 155.29c-6.9,6.9 -17.25,10.35 -31.06,17.25 -13.8,3.45 -27.61,6.9 -44.86,6.9 -27.61,0 -48.31,-6.9 -58.66,-20.71 -13.8,-13.8 -17.25,-34.51 -20.71,-58.66l186.35 0c3.45,-10.35 3.45,-20.71 3.45,-31.06 0,-10.35 0,-20.71 0,-27.61 0,-24.16 -3.45,-44.86 -10.35,-58.66 -6.9,-17.25 -17.25,-27.61 -27.61,-37.96 -10.35,-10.35 -24.16,-17.25 -41.41,-20.71 -13.8,-3.45 -31.06,-6.9 -44.86,-6.9 -48.31,0 -82.82,13.8 -110.43,41.41 -27.61,27.61 -37.96,69.02 -37.96,124.23 0,51.76 10.35,89.72 34.51,120.78 24.16,27.61 58.66,44.86 110.43,44.86 24.16,0 48.31,-3.45 69.02,-10.35 20.71,-6.9 37.96,-13.8 51.76,-24.16l-27.61 -58.66zm-493.47 -355.44l-100.08 0 162.19 438.26 62.12 0 162.19 -438.26 -89.72 0 -82.82 255.36 -13.8 75.92 -3.45 0 -10.35 -72.47 -86.27 -258.82zm-541.79 62.12c6.9,-6.9 13.8,-10.35 24.16,-10.35 13.8,0 20.71,3.45 27.61,10.35 6.9,6.9 6.9,13.8 6.9,24.16 0,6.9 -3.45,17.25 -10.35,27.61 -6.9,10.35 -17.25,17.25 -34.51,27.61 -13.8,-20.71 -20.71,-37.96 -20.71,-55.21 0,-10.35 3.45,-20.71 6.9,-24.16l0 0zm55.21 303.68c-13.8,6.9 -31.06,10.35 -48.31,10.35 -24.16,0 -44.86,-6.9 -62.12,-17.25 -17.25,-10.35 -24.16,-27.61 -24.16,-48.31 0,-17.25 6.9,-34.51 17.25,-48.31 10.35,-13.8 24.16,-27.61 44.86,-44.86 13.8,20.71 27.61,41.41 44.86,62.12 17.25,20.71 37.96,44.86 58.66,65.57 -6.9,6.9 -17.25,13.8 -31.06,20.71l0 0zm-200.15 3.45c6.9,17.25 20.71,31.06 34.51,41.41 13.8,10.35 31.06,20.71 48.31,24.16 17.25,6.9 37.96,10.35 62.12,10.35 31.06,0 58.66,-6.9 82.82,-17.25 20.71,-10.35 41.41,-24.16 55.21,-37.96 10.35,10.35 24.16,20.71 37.96,31.06 13.8,10.35 24.16,17.25 34.51,20.71l41.41 -58.66c-10.35,-6.9 -20.71,-13.8 -31.06,-17.25 -10.35,-6.9 -20.71,-17.25 -34.51,-27.61 3.45,-6.9 10.35,-13.8 13.8,-20.71 6.9,-6.9 10.35,-17.25 17.25,-24.16 3.45,-10.35 10.35,-17.25 13.8,-27.61 3.45,-10.35 6.9,-17.25 10.35,-24.16l-58.66 -31.06c-6.9,17.25 -13.8,31.06 -20.71,48.31 -6.9,17.25 -17.25,27.61 -24.16,37.96 -17.25,-17.25 -34.51,-37.96 -48.31,-55.21 -13.8,-17.25 -27.61,-37.96 -44.86,-62.12 27.61,-17.25 48.31,-34.51 62.12,-51.76 10.35,-17.25 17.25,-34.51 17.25,-51.76 0,-10.35 -3.45,-20.71 -6.9,-27.61 -3.45,-10.35 -10.35,-17.25 -17.25,-24.16 -6.9,-6.9 -20.71,-13.8 -31.06,-17.25 -13.8,-3.45 -31.06,-6.9 -48.31,-6.9 -20.71,0 -34.51,3.45 -48.31,6.9 -13.8,3.45 -24.16,10.35 -34.51,20.71 -10.35,10.35 -13.8,17.25 -17.25,27.61 -3.45,10.35 -6.9,20.71 -6.9,31.06 0,17.25 3.45,31.06 10.35,44.86 6.9,13.8 13.8,27.61 24.16,41.41 -13.8,6.9 -27.61,17.25 -41.41,27.61 -13.8,10.35 -24.16,20.71 -34.51,34.51 -10.35,13.8 -17.25,24.16 -20.71,41.41 -3.45,17.25 -6.9,27.61 -6.9,44.86 -3.45,13.8 3.45,34.51 10.35,48.31z"/>
   </g>
   <g>
    <path class="fil1" d="M4903.69 3806.31c6.9,10.35 10.35,27.61 10.35,51.76l-117.33 0c3.45,-20.71 6.9,-37.96 17.25,-51.76 10.35,-13.8 24.16,-17.25 48.31,-17.25 17.25,-3.45 31.06,3.45 41.41,17.25l0 0zm48.31 155.29c-6.9,6.9 -17.25,10.35 -31.06,17.25 -13.8,3.45 -27.61,6.9 -44.86,6.9 -27.61,0 -48.31,-6.9 -58.66,-20.71 -13.8,-13.8 -17.25,-34.51 -20.71,-58.66l186.35 0c3.45,-10.35 3.45,-20.71 3.45,-31.06 0,-10.35 0,-20.71 0,-27.61 0,-24.16 -3.45,-44.86 -10.35,-58.66 -6.9,-17.25 -17.25,-27.61 -27.61,-37.96 -10.35,-10.35 -24.16,-17.25 -41.41,-20.71 -13.8,-3.45 -31.06,-6.9 -44.86,-6.9 -48.31,0 -82.82,13.8 -110.43,41.41 -27.61,27.61 -37.96,69.02 -37.96,124.23 0,51.76 10.35,89.72 34.51,120.78 24.16,31.06 58.66,44.86 110.43,44.86 24.16,0 48.31,-3.45 69.02,-10.35 20.71,-6.9 37.96,-13.8 51.76,-24.16l-27.61 -58.66zm-289.87 79.37l0 -193.25c0,-24.16 -3.45,-44.86 -6.9,-62.12 -3.45,-17.25 -10.35,-27.61 -17.25,-37.96 -6.9,-10.35 -17.25,-17.25 -31.06,-20.71 -10.35,-3.45 -24.16,-6.9 -41.41,-6.9 -24.16,0 -44.86,3.45 -62.12,13.8 -17.25,10.35 -27.61,20.71 -37.96,34.51l-3.45 0 -10.35 -41.41 -65.57 0 0 310.58 79.37 0 0 -200.15c3.45,-13.8 13.8,-24.16 24.16,-34.51 10.35,-10.35 24.16,-13.8 37.96,-13.8 17.25,0 31.06,6.9 37.96,17.25 6.9,10.35 10.35,31.06 10.35,55.21l0 175.99 86.27 0 0 3.45zm-431.36 -365.79c10.35,6.9 20.71,13.8 37.96,13.8 17.25,0 27.61,-3.45 37.96,-13.8 10.35,-6.9 13.8,-17.25 13.8,-31.06 0,-10.35 -3.45,-20.71 -13.8,-31.06 -10.35,-6.9 -24.16,-13.8 -37.96,-13.8 -17.25,0 -27.61,3.45 -37.96,13.8 -10.35,6.9 -13.8,17.25 -13.8,31.06 3.45,10.35 6.9,20.71 13.8,31.06l0 0zm0 365.79l79.37 0 0 -310.58 -79.37 0 0 310.58zm-345.09 -310.58l0 193.25c0,24.16 3.45,44.86 6.9,62.12 3.45,17.25 10.35,27.61 17.25,37.96 6.9,10.35 17.25,17.25 31.06,20.71 13.8,3.45 27.61,6.9 41.41,6.9 24.16,0 44.86,-6.9 58.66,-17.25 17.25,-10.35 31.06,-24.16 41.41,-37.96l3.45 0 13.8 44.86 62.12 0c-3.45,-13.8 -6.9,-27.61 -6.9,-44.86 0,-17.25 -3.45,-34.51 -3.45,-48.31l0 -217.41 -79.37 0 0 200.15c-3.45,13.8 -13.8,24.16 -24.16,34.51 -10.35,10.35 -24.16,13.8 -37.96,13.8 -17.25,0 -27.61,-6.9 -34.51,-17.25 -6.9,-10.35 -10.35,-31.06 -10.35,-55.21l0 -175.99 -79.37 0zm-62.12 310.58l0 -193.25c0,-24.16 -3.45,-44.86 -6.9,-62.12 -3.45,-17.25 -10.35,-27.61 -17.25,-37.96 -6.9,-10.35 -17.25,-17.25 -31.06,-20.71 -13.8,-3.45 -24.16,-6.9 -41.41,-6.9 -24.16,0 -44.86,3.45 -62.12,13.8 -17.25,10.35 -27.61,20.71 -37.96,34.51l-3.45 0 -10.35 -41.41 -65.57 0 0 310.58 79.37 0 0 -200.15c3.45,-13.8 13.8,-24.16 24.16,-34.51 10.35,-10.35 24.16,-13.8 37.96,-13.8 17.25,0 31.06,6.9 37.96,17.25 6.9,10.35 10.35,31.06 10.35,55.21l0 175.99 86.27 0 0 3.45zm-414.1 -234.66c6.9,10.35 10.35,27.61 10.35,51.76l-113.88 0c3.45,-20.71 6.9,-37.96 17.25,-51.76 10.35,-13.8 24.16,-17.25 48.31,-17.25 13.8,-3.45 27.61,3.45 37.96,17.25l0 0zm48.31 155.29c-6.9,6.9 -17.25,10.35 -31.06,17.25 -13.8,3.45 -27.61,6.9 -44.86,6.9 -27.61,0 -48.31,-6.9 -58.66,-20.71 -13.8,-13.8 -17.25,-34.51 -20.71,-58.66l186.35 0c3.45,-10.35 3.45,-20.71 3.45,-31.06 0,-10.35 0,-20.71 0,-27.61 0,-24.16 -3.45,-44.86 -10.35,-58.66 -6.9,-17.25 -17.25,-27.61 -27.61,-37.96 -10.35,-10.35 -24.16,-17.25 -41.41,-20.71 -17.25,-3.45 -31.06,-6.9 -44.86,-6.9 -48.31,0 -82.82,13.8 -110.43,41.41 -27.61,27.61 -37.96,69.02 -37.96,124.23 0,51.76 10.35,89.72 34.51,120.78 24.16,27.61 58.66,44.86 110.43,44.86 24.16,0 48.31,-3.45 69.02,-10.35 20.71,-6.9 37.96,-13.8 51.76,-24.16l-27.61 -58.66zm-445.16 -93.17l93.17 10.35 0 82.82c-6.9,6.9 -17.25,10.35 -27.61,13.8 -10.35,3.45 -20.71,3.45 -31.06,3.45 -17.25,0 -31.06,-3.45 -44.86,-10.35 -13.8,-6.9 -27.61,-13.8 -37.96,-27.61 -10.35,-13.8 -17.25,-27.61 -24.16,-48.31 -6.9,-17.25 -10.35,-41.41 -10.35,-69.02 0,-27.61 3.45,-51.76 10.35,-69.02 6.9,-20.71 13.8,-34.51 24.16,-48.31 10.35,-13.8 24.16,-20.71 37.96,-27.61 13.8,-6.9 31.06,-6.9 48.31,-6.9 20.71,0 37.96,0 48.31,3.45 13.8,3.45 24.16,6.9 34.51,10.35l17.25 -72.47c-10.35,-3.45 -27.61,-6.9 -44.86,-10.35 -17.25,-3.45 -41.41,-6.9 -65.57,-6.9 -24.16,0 -48.31,3.45 -72.47,13.8 -24.16,6.9 -44.86,20.71 -65.57,37.96 -20.71,17.25 -34.51,41.41 -48.31,69.02 -10.35,27.61 -17.25,62.12 -17.25,103.53 0,37.96 3.45,72.47 13.8,103.53 10.35,27.61 24.16,51.76 41.41,69.02 17.25,17.25 37.96,31.06 62.12,41.41 24.16,10.35 48.31,13.8 75.92,13.8 24.16,0 48.31,-3.45 72.47,-10.35 24.16,-6.9 44.86,-17.25 62.12,-31.06l0 -193.25 -162.19 0 0 55.21 10.35 0zm-524.53 -138.03l-96.62 0 131.13 310.58c-3.45,20.71 -10.35,34.51 -20.71,44.86 -10.35,6.9 -17.25,13.8 -27.61,13.8 -6.9,0 -13.8,0 -17.25,-3.45l-13.8 65.57c13.8,6.9 31.06,10.35 51.76,10.35 13.8,0 27.61,-3.45 37.96,-10.35 10.35,-6.9 20.71,-17.25 27.61,-31.06 6.9,-13.8 17.25,-31.06 24.16,-48.31 6.9,-17.25 13.8,-41.41 24.16,-62.12l93.17 -279.52 -82.82 0 -48.31 172.54 -6.9 48.31 -3.45 0 -10.35 -48.31 -62.12 -182.9zm-155.29 -124.23l-79.37 0 0 372.69c0,24.16 6.9,44.86 17.25,55.21 10.35,10.35 31.06,17.25 55.21,17.25 13.8,0 27.61,0 41.41,-3.45 13.8,-3.45 24.16,-6.9 31.06,-10.35l-10.35 -62.12c-6.9,3.45 -13.8,3.45 -17.25,6.9 -3.45,3.45 -10.35,0 -13.8,0 -6.9,0 -13.8,-3.45 -17.25,-10.35 -3.45,-6.9 -6.9,-17.25 -6.9,-31.06l0 -334.73zm-148.39 434.81l0 -193.25c0,-24.16 -3.45,-44.86 -6.9,-62.12 -3.45,-17.25 -10.35,-27.61 -17.25,-37.96 -6.9,-10.35 -17.25,-17.25 -31.06,-20.71 -10.35,-3.45 -24.16,-6.9 -41.41,-6.9 -24.16,0 -44.86,3.45 -62.12,13.8 -17.25,10.35 -27.61,20.71 -37.96,34.51l-3.45 0 -10.35 -41.41 -65.57 0 0 310.58 79.37 0 0 -200.15c3.45,-13.8 13.8,-24.16 24.16,-34.51 10.35,-10.35 24.16,-13.8 37.96,-13.8 17.25,0 31.06,6.9 37.96,17.25 6.9,10.35 10.35,31.06 10.35,55.21l0 175.99 86.27 0 0 3.45zm-586.65 -331.28c17.25,-24.16 41.41,-37.96 69.02,-37.96 17.25,0 31.06,3.45 44.86,10.35 13.8,6.9 20.71,17.25 27.61,31.06 6.9,13.8 13.8,31.06 17.25,48.31 3.45,17.25 6.9,37.96 6.9,58.66 0,51.76 -6.9,89.72 -24.16,113.88 -17.25,24.16 -41.41,34.51 -69.02,34.51 -17.25,0 -31.06,-3.45 -41.41,-10.35 -10.35,-6.9 -20.71,-17.25 -31.06,-31.06 -6.9,-13.8 -13.8,-27.61 -17.25,-48.31 -3.45,-17.25 -6.9,-37.96 -6.9,-62.12 0,-44.86 6.9,-82.82 24.16,-106.98l0 0zm-103.53 207.05c6.9,27.61 17.25,51.76 34.51,72.47 13.8,20.71 34.51,34.51 58.66,44.86 24.16,10.35 51.76,17.25 82.82,17.25 58.66,0 103.53,-20.71 138.03,-58.66 34.51,-37.96 48.31,-96.62 48.31,-169.09 0,-34.51 -3.45,-65.57 -10.35,-93.17 -6.9,-27.61 -17.25,-51.76 -34.51,-72.47 -13.8,-20.71 -34.51,-34.51 -58.66,-44.86 -24.16,-10.35 -51.76,-17.25 -82.82,-17.25 -58.66,0 -103.53,20.71 -138.03,58.66 -31.06,37.96 -48.31,96.62 -48.31,169.09 0,34.51 3.45,65.57 10.35,93.17z"/>
   </g>
  </g>
 </g>
</svg>
