<?xml version="1.0" encoding="utf-8"?>
<!-- Generator: Adobe Illustrator 22.1.0, SVG Export Plug-In . SVG Version: 6.00 Build 0)  -->
<svg version="1.1" id="Layer_1" xmlns="http://www.w3.org/2000/svg" xmlns:xlink="http://www.w3.org/1999/xlink" x="0px" y="0px"
	 viewBox="0 0 62.1 62.1" style="enable-background:new 0 0 62.1 62.1;" xml:space="preserve">
<style type="text/css">
	.st0{clip-path:url(#SVGID_2_);fill:#D52173;}
	.st1{clip-path:url(#SVGID_2_);fill:none;stroke:#FFFFFF;stroke-width:0.864;}
	.st2{clip-path:url(#SVGID_2_);fill:none;stroke:#FFFFFF;stroke-width:0.922;stroke-miterlimit:10;}
</style>
<g>
	<defs>
		<rect id="SVGID_1_" width="62.1" height="62.1"/>
	</defs>
	<clipPath id="SVGID_2_">
		<use xlink:href="#SVGID_1_"  style="overflow:visible;"/>
	</clipPath>
	<path class="st0" d="M31.1,61.7C48,61.7,61.7,48,61.7,31.1C61.7,14.1,48,0.4,31.1,0.4S0.4,14.1,0.4,31.1
		C0.4,48,14.1,61.7,31.1,61.7"/>
	<path class="st1" d="M31.1,61.7C48,61.7,61.7,48,61.7,31.1C61.7,14.1,48,0.4,31.1,0.4S0.4,14.1,0.4,31.1
		C0.4,48,14.1,61.7,31.1,61.7z"/>
	<path class="st2" d="M20.3,18.9l2.2,2l0,3.5 M17.9,20.4l0.8,2.9l3.1,1.7 M15.3,25.2L25.5,19 M20.5,25.8l-5.2-0.6L15.1,22l7.6-4.6
		l2.8,1.6l-2.4,5.2L20.5,25.8z M43.6,19.5l-0.1,3l-2.7,2.3 M40.9,18.6L39.2,21l0.7,3.5 M35.6,19.7l11.4,3.8 M38.5,24.1l-2.9-4.4
		l2.3-2.1l8.5,2.8l0.5,3.2l-5.5,1.6L38.5,24.1z M37.4,34.3c0,5.8-4.7,10.5-10.6,10.5s-10.6-4.7-10.6-10.5c0-5.8,4.7-10.5,10.6-10.5
		S37.4,28.5,37.4,34.3z M46,34.3c0,5.8-4.7,10.5-10.6,10.5s-10.6-4.7-10.6-10.5c0-5.8,4.7-10.5,10.6-10.5S46,28.5,46,34.3z"/>
</g>
</svg>
