<?xml version="1.0" encoding="UTF-8"?>
<!DOCTYPE svg PUBLIC "-//W3C//DTD SVG 1.1//EN" "http://www.w3.org/Graphics/SVG/1.1/DTD/svg11.dtd">
<!-- Creator: CorelDRAW 2020 (64-Bit) -->
<svg xmlns="http://www.w3.org/2000/svg" xml:space="preserve" width="210mm" height="184.8mm" version="1.1" style="shape-rendering:geometricPrecision; text-rendering:geometricPrecision; image-rendering:optimizeQuality; fill-rule:evenodd; clip-rule:evenodd"
viewBox="0 0 16863.24 14839.65"
 xmlns:xlink="http://www.w3.org/1999/xlink"
 xmlns:xodm="http://www.corel.com/coreldraw/odm/2003">
 <defs>
  <style type="text/css">
   <![CDATA[
    .str0 {stroke:#521F70;stroke-width:89.94;stroke-miterlimit:22.9256}
    .str1 {stroke:#521F70;stroke-width:179.87;stroke-linecap:round;stroke-miterlimit:22.9256}
    .fil3 {fill:none;fill-rule:nonzero}
    .fil4 {fill:#FEFEFE;fill-rule:nonzero}
    .fil2 {fill:#521F70;fill-rule:nonzero}
    .fil0 {fill:#99B35B;fill-rule:nonzero}
    .fil1 {fill:white;fill-rule:nonzero}
   ]]>
  </style>
 </defs>
 <g id="Layer_x0020_1">
  <metadata id="CorelCorpID_0Corel-Layer"/>
  <g id="_1603248494192">
   <path class="fil0" d="M449.69 0c0,0 -449.69,0 -449.69,449.69l0 13940.28c0,0 0,449.69 449.69,449.69l15963.87 0c0,0 449.69,0 449.69,-449.69l0 -13940.28c0,0 0,-449.69 -449.69,-449.69l-15963.87 0z"/>
   <path class="fil1" d="M6151.71 3435.6c0,0 -179.87,0 -179.87,179.87l0 3093.84c0,0 0,179.87 179.87,179.87l4433.91 0c0,0 179.87,0 179.87,-179.87l0 -3093.84c0,0 0,-179.87 -179.87,-179.87l-4433.91 0z"/>
   <g>
    <path class="fil2" d="M7203.98 5962.84c8.99,17.99 17.99,26.98 17.99,44.97 62.96,98.93 152.89,152.89 260.82,197.86 143.9,62.96 296.79,125.91 440.69,188.87 143.9,62.96 287.8,134.91 386.73,278.81 80.94,-161.89 224.84,-215.85 377.74,-269.81 89.94,-35.97 188.87,-62.96 278.81,-107.92 125.91,-53.96 242.83,-116.92 368.74,-179.87 53.96,-26.98 98.93,-71.95 116.92,-134.91 -8.99,-8.99 -17.99,-17.99 -26.98,-26.98 -350.76,-242.83 -710.5,-494.66 -1061.26,-737.49 -35.97,-26.98 -53.96,-17.99 -80.94,8.99 -341.76,233.84 -674.53,467.67 -1016.29,710.5 -26.98,-8.99 -44.97,8.99 -62.96,26.98l0 0zm1124.22 -2311.39c-71.95,62.96 -143.9,125.91 -215.85,179.87 -62.96,44.97 -143.9,62.96 -224.84,89.94 -179.87,80.94 -359.75,152.89 -530.63,233.84 -53.96,26.98 -98.93,71.95 -143.9,125.91 -26.98,35.97 -26.98,71.95 17.99,98.93 350.76,242.83 701.51,485.66 1052.27,728.49 26.98,17.99 44.97,17.99 71.95,0 341.76,-242.83 692.52,-485.66 1034.28,-719.5 35.97,-26.98 35.97,-44.97 17.99,-80.94 -62.96,-98.93 -152.89,-161.89 -260.82,-206.86 -134.91,-62.96 -278.81,-116.92 -413.71,-179.87 -152.89,-62.96 -305.79,-134.91 -404.72,-269.81l0 0zm2140.51 1492.96c-152.89,-53.96 -242.83,-152.89 -314.78,-251.82 -35.97,-53.96 -71.95,-98.93 -107.92,-152.89 -134.91,-179.87 -305.79,-287.8 -521.64,-332.77 -35.97,-8.99 -80.94,0 -107.92,17.99 -332.77,233.84 -665.54,458.68 -1007.3,692.52 -17.99,8.99 -35.97,26.98 -53.96,44.97 8.99,8.99 17.99,17.99 26.98,26.98 350.76,242.83 692.52,485.66 1043.27,719.5 26.98,17.99 80.94,26.98 116.92,17.99 44.97,-8.99 89.94,-35.97 134.91,-53.96 179.87,-98.93 323.77,-251.82 431.7,-413.71 98.93,-134.91 188.87,-251.82 359.75,-314.78l0 0zm-4299 0c161.89,62.96 251.82,170.88 332.77,278.81 89.94,116.92 179.87,233.84 296.79,332.77 71.95,62.96 179.87,107.92 278.81,143.9 44.97,17.99 98.93,26.98 152.89,-8.99 332.77,-233.84 674.53,-467.67 1007.3,-701.51 17.99,-8.99 26.98,-26.98 44.97,-35.97 -26.98,-17.99 -53.96,-35.97 -71.95,-53.96 -323.77,-224.84 -647.55,-449.69 -971.32,-674.53 -44.97,-26.98 -80.94,-35.97 -134.91,-26.98 -242.83,53.96 -413.71,197.86 -557.61,395.72 -98.93,143.9 -188.87,287.8 -377.74,350.76l0 0zm4433.91 -1528.93c-35.97,17.99 -71.95,26.98 -107.92,53.96 -305.79,215.85 -620.57,431.7 -926.35,647.55 -17.99,8.99 -35.97,26.98 -53.96,44.97 17.99,8.99 26.98,17.99 35.97,17.99 224.84,53.96 395.72,179.87 530.63,368.74 53.96,71.95 107.92,152.89 170.88,215.85 62.96,80.94 152.89,134.91 251.82,152.89 26.98,0 62.96,0 98.93,0l0 53.96c-197.86,8.99 -323.77,125.91 -431.7,269.81 -89.94,125.91 -188.87,251.82 -305.79,350.76 -89.94,80.94 -206.86,134.91 -314.78,206.86 0,0 17.99,17.99 35.97,26.98 305.79,215.85 620.57,431.7 935.35,647.55 26.98,17.99 53.96,26.98 89.94,35.97 -17.99,17.99 35.97,62.96 -26.98,62.96 -359.75,-260.82 -719.5,-512.64 -1088.24,-782.45 -80.94,143.9 -224.84,206.86 -359.75,269.81 -116.92,53.96 -242.83,98.93 -359.75,143.9 -179.87,62.96 -377.74,116.92 -458.68,341.76 -80.94,-197.86 -251.82,-251.82 -413.71,-332.77 -116.92,-53.96 -233.84,-98.93 -350.76,-152.89 -152.89,-62.96 -296.79,-125.91 -368.74,-287.8 -17.99,8.99 -26.98,17.99 -35.97,17.99 -350.76,242.83 -701.51,494.66 -1061.26,737.49 -8.99,8.99 -17.99,17.99 -17.99,26.98 -8.99,-8.99 -17.99,-17.99 -26.98,-26.98 26.98,-17.99 44.97,-35.97 71.95,-53.96 332.77,-233.84 665.54,-458.68 998.3,-692.52 8.99,-8.99 17.99,-8.99 35.97,-26.98 -170.88,-17.99 -305.79,-98.93 -413.71,-215.85 -89.94,-98.93 -179.87,-206.86 -260.82,-314.78 -89.94,-125.91 -197.86,-233.84 -359.75,-269.81 -26.98,-8.99 -44.97,-8.99 -71.95,-8.99l0 -35.97c143.9,8.99 251.82,-53.96 341.76,-152.89 53.96,-62.96 107.92,-125.91 152.89,-197.86 134.91,-197.86 314.78,-350.76 557.61,-395.72 8.99,0 17.99,-8.99 35.97,-8.99 -26.98,-17.99 -44.97,-35.97 -62.96,-44.97 -314.78,-215.85 -620.57,-431.7 -935.35,-647.55 -26.98,-17.99 -62.96,-35.97 -98.93,-53.96 0,-26.98 -8.99,-62.96 35.97,-53.96 332.77,242.83 665.54,476.67 1007.3,719.5 26.98,17.99 44.97,35.97 80.94,53.96 62.96,-152.89 197.86,-224.84 341.76,-287.8 134.91,-62.96 278.81,-116.92 422.71,-170.88 53.96,-17.99 107.92,-44.97 161.89,-62.96 107.92,-71.95 242.83,-260.82 251.82,-260.82 8.99,0 98.93,188.87 260.82,260.82 35.97,17.99 80.94,44.97 116.92,62.96 134.91,62.96 269.81,116.92 395.72,170.88 143.9,62.96 287.8,134.91 359.75,296.79 62.96,-44.97 125.91,-89.94 188.87,-125.91 260.82,-179.87 530.63,-368.74 791.45,-548.62 53.96,-35.97 107.92,-62.96 161.89,-98.93l0 53.96 -8.99 0z"/>
   </g>
   <path class="fil3 str0" d="M7203.98 5962.84c8.99,17.99 17.99,26.98 17.99,44.97 62.96,98.93 152.89,152.89 260.82,197.86 143.9,62.96 296.79,125.91 440.69,188.87 143.9,62.96 287.8,134.91 386.73,278.81 80.94,-161.89 224.84,-215.85 377.74,-269.81 89.94,-35.97 188.87,-62.96 278.81,-107.92 125.91,-53.96 242.83,-116.92 368.74,-179.87 53.96,-26.98 98.93,-71.95 116.92,-134.91 -8.99,-8.99 -17.99,-17.99 -26.98,-26.98 -350.76,-242.83 -710.5,-494.66 -1061.26,-737.49 -35.97,-26.98 -53.96,-17.99 -80.94,8.99 -341.76,233.84 -674.53,467.67 -1016.29,710.5 -26.98,-8.99 -44.97,8.99 -62.96,26.98zm1124.22 -2311.39c-71.95,62.96 -143.9,125.91 -215.85,179.87 -62.96,44.97 -143.9,62.96 -224.84,89.94 -179.87,80.94 -359.75,152.89 -530.63,233.84 -53.96,26.98 -98.93,71.95 -143.9,125.91 -26.98,35.97 -26.98,71.95 17.99,98.93 350.76,242.83 701.51,485.66 1052.27,728.49 26.98,17.99 44.97,17.99 71.95,0 341.76,-242.83 692.52,-485.66 1034.28,-719.5 35.97,-26.98 35.97,-44.97 17.99,-80.94 -62.96,-98.93 -152.89,-161.89 -260.82,-206.86 -134.91,-62.96 -278.81,-116.92 -413.71,-179.87 -152.89,-62.96 -305.79,-134.91 -404.72,-269.81zm2140.51 1492.96c-152.89,-53.96 -242.83,-152.89 -314.78,-251.82 -35.97,-53.96 -71.95,-98.93 -107.92,-152.89 -134.91,-179.87 -305.79,-287.8 -521.64,-332.77 -35.97,-8.99 -80.94,0 -107.92,17.99 -332.77,233.84 -665.54,458.68 -1007.3,692.52 -17.99,8.99 -35.97,26.98 -53.96,44.97 8.99,8.99 17.99,17.99 26.98,26.98 350.76,242.83 692.52,485.66 1043.27,719.5 26.98,17.99 80.94,26.98 116.92,17.99 44.97,-8.99 89.94,-35.97 134.91,-53.96 179.87,-98.93 323.77,-251.82 431.7,-413.71 98.93,-134.91 188.87,-251.82 359.75,-314.78zm-4299 0c161.89,62.96 251.82,170.88 332.77,278.81 89.94,116.92 179.87,233.84 296.79,332.77 71.95,62.96 179.87,107.92 278.81,143.9 44.97,17.99 98.93,26.98 152.89,-8.99 332.77,-233.84 674.53,-467.67 1007.3,-701.51 17.99,-8.99 26.98,-26.98 44.97,-35.97 -26.98,-17.99 -53.96,-35.97 -71.95,-53.96 -323.77,-224.84 -647.55,-449.69 -971.32,-674.53 -44.97,-26.98 -80.94,-35.97 -134.91,-26.98 -242.83,53.96 -413.71,197.86 -557.61,395.72 -98.93,143.9 -188.87,287.8 -377.74,350.76zm4433.91 -1528.93c-35.97,17.99 -71.95,26.98 -107.92,53.96 -305.79,215.85 -620.57,431.7 -926.35,647.55 -17.99,8.99 -35.97,26.98 -53.96,44.97 17.99,8.99 26.98,17.99 35.97,17.99 224.84,53.96 395.72,179.87 530.63,368.74 53.96,71.95 107.92,152.89 170.88,215.85 62.96,80.94 152.89,134.91 251.82,152.89 26.98,0 62.96,0 98.93,0l0 53.96c-197.86,8.99 -323.77,125.91 -431.7,269.81 -89.94,125.91 -188.87,251.82 -305.79,350.76 -89.94,80.94 -206.86,134.91 -314.78,206.86 0,0 17.99,17.99 35.97,26.98 305.79,215.85 620.57,431.7 935.35,647.55 26.98,17.99 53.96,26.98 89.94,35.97 -17.99,17.99 35.97,62.96 -26.98,62.96 -359.75,-260.82 -719.5,-512.64 -1088.24,-782.45 -80.94,143.9 -224.84,206.86 -359.75,269.81 -116.92,53.96 -242.83,98.93 -359.75,143.9 -179.87,62.96 -377.74,116.92 -458.68,341.76 -80.94,-197.86 -251.82,-251.82 -413.71,-332.77 -116.92,-53.96 -233.84,-98.93 -350.76,-152.89 -152.89,-62.96 -296.79,-125.91 -368.74,-287.8 -17.99,8.99 -26.98,17.99 -35.97,17.99 -350.76,242.83 -701.51,494.66 -1061.26,737.49 -8.99,8.99 -17.99,17.99 -17.99,26.98 -8.99,-8.99 -17.99,-17.99 -26.98,-26.98 26.98,-17.99 44.97,-35.97 71.95,-53.96 332.77,-233.84 665.54,-458.68 998.3,-692.52 8.99,-8.99 17.99,-8.99 35.97,-26.98 -170.88,-17.99 -305.79,-98.93 -413.71,-215.85 -89.94,-98.93 -179.87,-206.86 -260.82,-314.78 -89.94,-125.91 -197.86,-233.84 -359.75,-269.81 -26.98,-8.99 -44.97,-8.99 -71.95,-8.99l0 -35.97c143.9,8.99 251.82,-53.96 341.76,-152.89 53.96,-62.96 107.92,-125.91 152.89,-197.86 134.91,-197.86 314.78,-350.76 557.61,-395.72 8.99,0 17.99,-8.99 35.97,-8.99 -26.98,-17.99 -44.97,-35.97 -62.96,-44.97 -314.78,-215.85 -620.57,-431.7 -935.35,-647.55 -26.98,-17.99 -62.96,-35.97 -98.93,-53.96 0,-26.98 -8.99,-62.96 35.97,-53.96 332.77,242.83 665.54,476.67 1007.3,719.5 26.98,17.99 44.97,35.97 80.94,53.96 62.96,-152.89 197.86,-224.84 341.76,-287.8 134.91,-62.96 278.81,-116.92 422.71,-170.88 53.96,-17.99 107.92,-44.97 161.89,-62.96 107.92,-71.95 242.83,-260.82 251.82,-260.82 8.99,0 98.93,188.87 260.82,260.82 35.97,17.99 80.94,44.97 116.92,62.96 134.91,62.96 269.81,116.92 395.72,170.88 143.9,62.96 287.8,134.91 359.75,296.79 62.96,-44.97 125.91,-89.94 188.87,-125.91 260.82,-179.87 530.63,-368.74 791.45,-548.62 53.96,-35.97 107.92,-62.96 161.89,-98.93l0 53.96 -8.99 0z"/>
   <path class="fil3 str1" d="M10081.97 6889.2l-3822.33 0c0,0 -350.76,0 -350.76,-341.76l0 -2761.07c0,0 0,-341.76 350.76,-341.76l4128.12 0c0,0 350.76,0 350.76,341.76l0 2761.07c0,0 0,341.76 -350.76,341.76l-350.76 0"/>
   <path class="fil4" d="M2925.99 10083.03l-56.32 0 0 467.73 -214.32 0 0 -1095.03 214.32 0 0 484.94 50.06 -21.9 301.92 -463.04 244.03 0 -319.12 459.91 -84.48 59.45 87.6 61 364.49 514.67 -264.37 0 -323.81 -467.73zm858.81 -314.43l0 444.27c0,63.61 7.56,109.5 22.69,137.66 15.12,28.15 44.58,42.23 88.38,42.23 38.58,0 70.66,-11.47 96.21,-34.41 25.55,-22.94 44.58,-51.1 57.09,-84.48l0 -505.27 203.36 0 0 544.38c0,42.76 2.09,84.73 6.26,125.93 4.18,41.19 10.43,78.48 18.77,111.85l-153.3 0 -35.98 -115.76 -6.26 0c-23.99,39.63 -57.36,72.48 -100.11,98.55 -42.76,26.07 -93.34,39.11 -151.75,39.11 -39.63,0 -75.08,-5.21 -106.37,-15.64 -31.29,-10.42 -57.36,-27.63 -78.21,-51.62 -20.85,-23.99 -36.76,-56.32 -47.71,-96.99 -10.95,-40.67 -16.42,-91.78 -16.42,-153.31l0 -486.5 203.36 0zm1124.75 782.16l0 -444.27c0,-63.61 -9.12,-109.51 -27.37,-137.66 -18.25,-28.16 -49.28,-42.24 -93.08,-42.24 -38.58,0 -71.18,11.21 -97.77,33.63 -26.59,22.43 -45.63,50.32 -57.09,83.7l0 506.84 -203.36 0 0 -782.16 161.12 0 23.46 103.24 6.26 0c23.99,-33.37 55.8,-62.58 95.43,-87.6 39.63,-25.03 90.72,-37.55 153.3,-37.55 38.58,0 73,5.22 103.24,15.64 30.24,10.43 55.79,27.64 76.66,51.63 20.85,23.99 36.5,56.57 46.93,97.77 10.42,41.19 15.64,92.03 15.64,152.52l0 486.5 -203.36 0zm1038.71 -275.32c0,43.8 0.52,87.6 1.57,131.4 1.04,43.8 5.73,92.29 14.08,145.48l-145.48 0 -28.16 -101.69 -6.26 0c-20.85,36.5 -50.84,65.97 -89.95,88.39 -39.11,22.42 -85.26,33.63 -138.45,33.63 -98.02,0 -174.16,-32.33 -228.38,-96.99 -54.24,-64.66 -81.35,-165.81 -81.35,-303.47 0,-133.49 30.24,-237.26 90.72,-311.3 60.49,-74.05 149.14,-111.06 265.94,-111.06 32.33,0 58.92,1.82 79.78,5.48 20.85,3.65 41.72,9.64 62.57,17.99l0 -317.56 203.36 0 0 819.71zm-345.71 125.15c39.63,0 70.91,-9.65 93.86,-28.94 22.94,-19.3 39.11,-47.19 48.49,-83.7l0 -331.64c-14.6,-11.47 -30.76,-20.08 -48.49,-25.81 -17.73,-5.73 -40.67,-8.6 -68.83,-8.6 -57.36,0 -100.38,19.29 -129.06,57.87 -28.68,38.59 -43.02,104.82 -43.02,198.67 0,66.75 11.73,120.45 35.2,161.12 23.46,40.67 60.75,61.01 111.85,61.01zm519.36 -586.62c41.71,-18.77 91.25,-33.63 148.61,-44.58 57.36,-10.95 117.33,-16.43 179.9,-16.43 54.23,0 99.6,6.52 136.09,19.56 36.5,13.03 65.45,31.54 86.82,55.53 21.38,23.99 36.5,52.67 45.36,86.04 8.87,33.37 13.3,70.91 13.3,112.63 0,45.88 -1.56,92.03 -4.69,138.44 -3.13,46.41 -4.95,92.03 -5.48,136.88 -0.52,44.84 0.78,88.38 3.91,130.62 3.13,42.24 10.95,82.12 23.46,119.67l-165.81 0 -32.85 -107.94 -7.82 0c-20.86,32.33 -49.8,60.23 -86.82,83.69 -37.03,23.46 -84.73,35.2 -143.14,35.2 -36.5,0 -69.35,-5.47 -98.55,-16.42 -29.2,-10.95 -54.23,-26.6 -75.09,-46.93 -20.85,-20.34 -37.02,-44.33 -48.49,-71.96 -11.47,-27.64 -17.2,-58.67 -17.2,-93.08 0,-47.97 10.69,-88.39 32.06,-121.24 21.38,-32.85 52.15,-59.45 92.3,-79.78 40.15,-20.34 88.12,-34.42 143.92,-42.24 55.79,-7.82 118.11,-10.17 186.93,-7.03 7.3,-58.4 3.13,-100.38 -12.51,-125.93 -15.64,-25.55 -50.58,-38.33 -104.81,-38.33 -40.67,0 -83.69,4.17 -129.06,12.51 -45.36,8.34 -82.65,19.3 -111.84,32.85l-48.49 -151.74zm258.11 581.93c40.67,0 73,-9.12 96.99,-27.37 23.99,-18.25 41.72,-37.81 53.18,-58.66l0 -101.69c-32.33,-3.12 -63.35,-3.65 -93.08,-1.57 -29.72,2.09 -56.05,6.79 -79,14.08 -22.94,7.3 -41.19,17.73 -54.75,31.29 -13.55,13.55 -20.33,30.76 -20.33,51.62 0,29.21 8.6,51.89 25.81,68.06 17.21,16.16 40.93,24.24 71.18,24.24zm732.1 -107.94c0,36.5 4.7,63.1 14.08,79.79 9.39,16.69 24.51,25.02 45.37,25.02 12.51,0 24.76,-1.04 36.76,-3.12 11.99,-2.09 26.85,-6.78 44.58,-14.08l21.9 159.56c-16.69,8.34 -42.24,16.69 -76.65,25.03 -34.42,8.34 -69.88,12.51 -106.37,12.51 -59.45,0 -104.81,-13.81 -136.1,-41.45 -31.29,-27.64 -46.93,-73.27 -46.93,-136.88l0 -938.59 203.36 0 0 832.22zm267.5 -519.35l203.36 0 0 782.16 -203.36 0 0 -782.16zm-29.72 -220.57c0,-30.25 11.21,-56.06 33.63,-77.43 22.42,-21.38 53.45,-32.07 93.08,-32.07 39.63,0 71.7,10.69 96.21,32.07 24.51,21.38 36.76,47.18 36.76,77.43 0,30.24 -12.25,55.53 -36.76,75.87 -24.51,20.33 -56.58,30.51 -96.21,30.51 -39.63,0 -70.66,-10.17 -93.08,-30.51 -22.42,-20.34 -33.63,-45.63 -33.63,-75.87zm1683.21 434.88l23.46 -217.44 -9.39 0 -67.27 175.2 -233.08 408.29 -68.83 0 -245.59 -409.86 -68.83 -173.64 -7.82 0 31.29 215.87 0 569.42 -203.36 0 0 -1095.03 195.54 0 292.53 500.58 51.63 125.15 6.26 0 46.93 -128.27 276.89 -497.46 193.98 0 0 1095.03 -214.31 0 0 -567.85zm392.65 -168.95c41.71,-18.77 91.25,-33.63 148.61,-44.58 57.36,-10.95 117.33,-16.43 179.9,-16.43 54.23,0 99.6,6.52 136.09,19.56 36.5,13.03 65.45,31.54 86.82,55.53 21.38,23.99 36.5,52.67 45.36,86.04 8.87,33.37 13.3,70.91 13.3,112.63 0,45.88 -1.56,92.03 -4.69,138.44 -3.13,46.41 -4.95,92.03 -5.48,136.88 -0.52,44.84 0.78,88.38 3.91,130.62 3.13,42.24 10.95,82.12 23.46,119.67l-165.81 0 -32.85 -107.94 -7.82 0c-20.86,32.33 -49.8,60.23 -86.82,83.69 -37.03,23.46 -84.73,35.2 -143.14,35.2 -36.5,0 -69.35,-5.47 -98.55,-16.42 -29.2,-10.95 -54.23,-26.6 -75.09,-46.93 -20.85,-20.34 -37.02,-44.33 -48.49,-71.96 -11.47,-27.64 -17.2,-58.67 -17.2,-93.08 0,-47.97 10.69,-88.39 32.06,-121.24 21.38,-32.85 52.15,-59.45 92.3,-79.78 40.15,-20.34 88.12,-34.42 143.92,-42.24 55.79,-7.82 118.11,-10.17 186.93,-7.03 7.3,-58.4 3.13,-100.38 -12.51,-125.93 -15.64,-25.55 -50.58,-38.33 -104.81,-38.33 -40.67,0 -83.69,4.17 -129.06,12.51 -45.36,8.34 -82.65,19.3 -111.84,32.85l-48.49 -151.74zm258.11 581.93c40.67,0 73,-9.12 96.99,-27.37 23.99,-18.25 41.72,-37.81 53.18,-58.66l0 -101.69c-32.33,-3.12 -63.35,-3.65 -93.08,-1.57 -29.72,2.09 -56.05,6.79 -79,14.08 -22.94,7.3 -41.19,17.73 -54.75,31.29 -13.55,13.55 -20.33,30.76 -20.33,51.62 0,29.21 8.6,51.89 25.81,68.06 17.21,16.16 40.93,24.24 71.18,24.24zm441.13 -627.29l107.94 0 0 -147.05 203.36 -57.88 0 204.93 190.84 0 0 172.07 -190.84 0 0 300.35c0,54.24 5.47,93.08 16.42,116.54 10.95,23.46 31.55,35.2 61.79,35.2 20.85,0 38.85,-2.08 53.97,-6.26 15.12,-4.17 32.06,-10.42 50.84,-18.77l35.98 156.43c-28.16,13.56 -61.01,25.03 -98.55,34.42 -37.55,9.39 -75.61,14.08 -114.2,14.08 -71.96,0 -124.88,-18.51 -158.78,-55.53 -33.9,-37.03 -50.84,-97.77 -50.84,-182.24l0 -394.21 -107.94 0 0 -172.07zm1173.25 733.66c-31.29,22.94 -69.09,40.41 -113.42,52.4 -44.32,12 -89.95,17.99 -136.87,17.99 -62.58,0 -115.51,-9.9 -158.78,-29.72 -43.28,-19.82 -78.48,-47.71 -105.6,-83.69 -27.11,-35.98 -46.67,-79.52 -58.66,-130.63 -12,-51.1 -17.99,-107.41 -17.99,-168.95 0,-132.44 29.72,-234.38 89.17,-305.83 59.44,-71.44 146,-107.15 259.68,-107.15 57.36,0 103.5,4.7 138.44,14.08 34.94,9.39 66.48,21.38 94.64,35.98l-48.49 165.82c-23.99,-11.48 -47.71,-20.34 -71.18,-26.6 -23.46,-6.26 -50.32,-9.39 -80.56,-9.39 -56.32,0 -99.08,18.51 -128.28,55.54 -29.2,37.02 -43.8,96.2 -43.8,177.55 0,33.37 3.65,64.14 10.95,92.3 7.31,28.15 18.25,52.66 32.85,73.52 14.61,20.85 33.64,37.28 57.1,49.27 23.46,12 50.84,17.99 82.12,17.99 34.42,0 63.61,-4.42 87.6,-13.29 23.99,-8.87 45.37,-19.55 64.14,-32.07l46.94 154.87zm602.26 48.49l0 -444.27c0,-63.61 -8.87,-109.51 -26.6,-137.66 -17.73,-28.16 -50.06,-42.24 -96.99,-42.24 -34.42,0 -65.96,11.73 -94.64,35.2 -28.68,23.46 -47.71,53.45 -57.09,89.95l0 499.02 -203.36 0 0 -1095.03 203.36 0 0 400.47 6.26 0c25.03,-33.37 55.79,-59.97 92.3,-79.78 36.5,-19.82 82.91,-29.73 139.23,-29.73 39.63,0 74.56,5.22 104.81,15.64 30.24,10.43 55.53,27.64 75.87,51.63 20.33,23.99 35.45,56.57 45.36,97.77 9.91,41.19 14.86,92.03 14.86,152.52l0 486.5 -203.36 0zm391.08 -782.16l203.36 0 0 782.16 -203.36 0 0 -782.16zm-29.72 -220.57c0,-30.25 11.21,-56.06 33.63,-77.43 22.42,-21.38 53.45,-32.07 93.08,-32.07 39.63,0 71.7,10.69 96.21,32.07 24.51,21.38 36.76,47.18 36.76,77.43 0,30.24 -12.25,55.53 -36.76,75.87 -24.51,20.33 -56.58,30.51 -96.21,30.51 -39.63,0 -70.66,-10.17 -93.08,-30.51 -22.42,-20.34 -33.63,-45.63 -33.63,-75.87zm912 1002.73l0 -444.27c0,-63.61 -9.12,-109.51 -27.37,-137.66 -18.25,-28.16 -49.28,-42.24 -93.08,-42.24 -38.58,0 -71.18,11.21 -97.77,33.63 -26.59,22.43 -45.63,50.32 -57.09,83.7l0 506.84 -203.36 0 0 -782.16 161.12 0 23.46 103.24 6.26 0c23.99,-33.37 55.8,-62.58 95.43,-87.6 39.63,-25.03 90.72,-37.55 153.3,-37.55 38.58,0 73,5.22 103.24,15.64 30.24,10.43 55.79,27.64 76.66,51.63 20.85,23.99 36.5,56.57 46.93,97.77 10.42,41.19 15.64,92.03 15.64,152.52l0 486.5 -203.36 0zm1035.58 0c0,113.67 -30.76,197.36 -92.29,251.08 -61.53,53.71 -147.57,80.56 -258.11,80.56 -75.09,0 -134.27,-5.21 -177.55,-15.64 -43.28,-10.43 -75.87,-21.38 -97.77,-32.85l42.23 -161.12c23.99,9.39 51.88,18.77 83.7,28.15 31.81,9.39 71.17,14.08 118.1,14.08 70.92,0 119.15,-15.39 144.7,-46.15 25.55,-30.76 38.33,-73.78 38.33,-129.06l0 -50.05 -6.26 0c-36.5,49.01 -101.16,73.52 -193.98,73.52 -101.16,0 -176.51,-31.29 -226.05,-93.86 -49.54,-62.57 -74.3,-160.6 -74.3,-294.09 0,-139.74 33.37,-245.59 100.11,-317.56 66.75,-71.96 163.73,-107.93 290.96,-107.93 66.75,0 126.45,4.69 179.12,14.08 52.66,9.39 95.68,20.34 129.05,32.85l0 754zm-344.15 -150.17c39.63,0 70.14,-8.87 91.51,-26.6 21.38,-17.73 37.81,-44.33 49.27,-79.78l0 -351.98c-32.33,-13.55 -72.48,-20.33 -120.45,-20.33 -52.14,0 -92.81,19.55 -122.02,58.66 -29.2,39.11 -43.8,101.42 -43.8,186.93 0,76.13 12.51,134.01 37.54,173.64 25.03,39.63 61.01,59.45 107.94,59.45zm-7717.58 1079.38l649.19 0 0 190.85 -434.88 0 0 270.62 400.47 0 0 190.85 -400.47 0 0 442.7 -214.32 0 0 -1095.03zm785.3 358.23c41.71,-18.77 91.25,-33.63 148.61,-44.58 57.36,-10.95 117.33,-16.43 179.9,-16.43 54.23,0 99.6,6.52 136.09,19.56 36.5,13.03 65.45,31.54 86.82,55.53 21.38,23.99 36.5,52.67 45.36,86.04 8.87,33.37 13.3,70.91 13.3,112.63 0,45.88 -1.56,92.03 -4.69,138.44 -3.13,46.41 -4.95,92.03 -5.48,136.88 -0.52,44.84 0.78,88.38 3.91,130.62 3.13,42.24 10.95,82.12 23.46,119.67l-165.81 0 -32.85 -107.94 -7.82 0c-20.86,32.33 -49.8,60.23 -86.82,83.69 -37.03,23.46 -84.73,35.2 -143.14,35.2 -36.5,0 -69.35,-5.47 -98.55,-16.42 -29.2,-10.95 -54.23,-26.6 -75.09,-46.93 -20.85,-20.34 -37.02,-44.33 -48.49,-71.96 -11.47,-27.64 -17.2,-58.67 -17.2,-93.08 0,-47.97 10.69,-88.39 32.06,-121.24 21.38,-32.85 52.15,-59.45 92.3,-79.78 40.15,-20.34 88.12,-34.42 143.92,-42.24 55.79,-7.82 118.11,-10.17 186.93,-7.03 7.3,-58.4 3.13,-100.38 -12.51,-125.93 -15.64,-25.55 -50.58,-38.33 -104.81,-38.33 -40.67,0 -83.69,4.17 -129.06,12.51 -45.36,8.34 -82.65,19.3 -111.84,32.85l-48.49 -151.74zm258.11 581.93c40.67,0 73,-9.12 96.99,-27.37 23.99,-18.25 41.72,-37.81 53.18,-58.66l0 -101.69c-32.33,-3.12 -63.35,-3.65 -93.08,-1.57 -29.72,2.09 -56.05,6.79 -79,14.08 -22.94,7.3 -41.19,17.73 -54.75,31.29 -13.55,13.55 -20.33,30.76 -20.33,51.62 0,29.21 8.6,51.89 25.81,68.06 17.21,16.16 40.93,24.24 71.18,24.24zm1076.25 106.37c-31.29,22.94 -69.09,40.41 -113.42,52.4 -44.32,12 -89.95,17.99 -136.87,17.99 -62.58,0 -115.51,-9.9 -158.78,-29.72 -43.28,-19.82 -78.48,-47.71 -105.6,-83.69 -27.11,-35.98 -46.67,-79.52 -58.66,-130.63 -12,-51.1 -17.99,-107.41 -17.99,-168.95 0,-132.44 29.72,-234.38 89.17,-305.83 59.44,-71.44 146,-107.15 259.68,-107.15 57.36,0 103.5,4.7 138.44,14.08 34.94,9.39 66.48,21.38 94.64,35.98l-48.49 165.82c-23.99,-11.48 -47.71,-20.34 -71.18,-26.6 -23.46,-6.26 -50.32,-9.39 -80.56,-9.39 -56.32,0 -99.08,18.51 -128.28,55.54 -29.2,37.02 -43.8,96.2 -43.8,177.55 0,33.37 3.65,64.14 10.95,92.3 7.31,28.15 18.25,52.66 32.85,73.52 14.61,20.85 33.64,37.28 57.1,49.27 23.46,12 50.84,17.99 82.12,17.99 34.42,0 63.61,-4.42 87.6,-13.29 23.99,-8.87 45.37,-19.55 64.14,-32.07l46.94 154.87zm140.78 -733.66l203.36 0 0 782.16 -203.36 0 0 -782.16zm-29.72 -220.57c0,-30.25 11.21,-56.06 33.63,-77.43 22.42,-21.38 53.45,-32.07 93.08,-32.07 39.63,0 71.7,10.69 96.21,32.07 24.51,21.38 36.76,47.18 36.76,77.43 0,30.24 -12.25,55.53 -36.76,75.87 -24.51,20.33 -56.58,30.51 -96.21,30.51 -39.63,0 -70.66,-10.17 -93.08,-30.51 -22.42,-20.34 -33.63,-45.63 -33.63,-75.87zm642.93 739.92c0,36.5 4.7,63.1 14.08,79.79 9.39,16.69 24.51,25.02 45.37,25.02 12.51,0 24.76,-1.04 36.76,-3.12 11.99,-2.09 26.85,-6.78 44.58,-14.08l21.9 159.56c-16.69,8.34 -42.24,16.69 -76.65,25.03 -34.42,8.34 -69.88,12.51 -106.37,12.51 -59.45,0 -104.81,-13.81 -136.1,-41.45 -31.29,-27.64 -46.93,-73.27 -46.93,-136.88l0 -938.59 203.36 0 0 832.22zm267.5 -519.35l203.36 0 0 782.16 -203.36 0 0 -782.16zm-29.72 -220.57c0,-30.25 11.21,-56.06 33.63,-77.43 22.42,-21.38 53.45,-32.07 93.08,-32.07 39.63,0 71.7,10.69 96.21,32.07 24.51,21.38 36.76,47.18 36.76,77.43 0,30.24 -12.25,55.53 -36.76,75.87 -24.51,20.33 -56.58,30.51 -96.21,30.51 -39.63,0 -70.66,-10.17 -93.08,-30.51 -22.42,-20.34 -33.63,-45.63 -33.63,-75.87zm351.97 220.57l107.94 0 0 -147.05 203.36 -57.88 0 204.93 190.84 0 0 172.07 -190.84 0 0 300.35c0,54.24 5.47,93.08 16.42,116.54 10.95,23.46 31.55,35.2 61.79,35.2 20.85,0 38.85,-2.08 53.97,-6.26 15.12,-4.17 32.06,-10.42 50.84,-18.77l35.98 156.43c-28.16,13.56 -61.01,25.03 -98.55,34.42 -37.55,9.39 -75.61,14.08 -114.2,14.08 -71.96,0 -124.88,-18.51 -158.78,-55.53 -33.9,-37.03 -50.84,-97.77 -50.84,-182.24l0 -394.21 -107.94 0 0 -172.07zm876.02 439.57l28.15 122.02 9.39 0 20.34 -123.58 118.89 -438 209.62 0 -237.77 705.5c-19.82,58.4 -38.85,111.85 -57.1,160.35 -18.25,48.49 -38.33,90.48 -60.23,125.93 -21.9,35.46 -46.15,62.84 -72.74,82.13 -26.59,19.29 -58.14,28.93 -94.63,28.93 -54.24,0 -97.51,-8.86 -129.84,-26.59l37.54 -162.69c15.64,6.26 31.29,9.39 46.93,9.39 23.99,0 47.19,-10.17 69.61,-30.51 22.42,-20.34 39.37,-57.1 50.84,-110.29l-326.94 -782.16 244.04 0 143.92 439.57z"/>
  </g>
 </g>
</svg>
