<?xml version="1.0" encoding="UTF-8"?>
<!DOCTYPE svg PUBLIC "-//W3C//DTD SVG 1.1//EN" "http://www.w3.org/Graphics/SVG/1.1/DTD/svg11.dtd">
<!-- Creator: CorelDRAW 2021 (64-Bit) -->
<svg xmlns="http://www.w3.org/2000/svg" xml:space="preserve" width="8.268in" height="7.27584in" version="1.1" style="shape-rendering:geometricPrecision; text-rendering:geometricPrecision; image-rendering:optimizeQuality; fill-rule:evenodd; clip-rule:evenodd"
viewBox="0 0 3172.22 2791.56"
 xmlns:xlink="http://www.w3.org/1999/xlink"
 xmlns:xodm="http://www.corel.com/coreldraw/odm/2003">
 <defs>
  <style type="text/css">
   <![CDATA[
    .str0 {stroke:#521F70;stroke-width:11.05;stroke-miterlimit:2.61313}
    .fil3 {fill:none;fill-rule:nonzero}
    .fil4 {fill:#FEFEFE;fill-rule:nonzero}
    .fil2 {fill:#521F70;fill-rule:nonzero}
    .fil0 {fill:#DB4287;fill-rule:nonzero}
    .fil1 {fill:white;fill-rule:nonzero}
   ]]>
  </style>
 </defs>
 <g id="Layer_x0020_1">
  <metadata id="CorelCorpID_0Corel-Layer"/>
  <g id="_1564745609728">
   <path class="fil0" d="M84.59 0c0,0 -84.59,0 -84.59,84.59l0 2622.37c0,0 0,84.59 84.59,84.59l3003.04 0c0,0 84.59,0 84.59,-84.59l0 -2622.37c0,0 0,-84.59 -84.59,-84.59l-3003.04 0z"/>
   <path class="fil1" d="M1015.11 620.91l236.86 38.91 13.53 64.29c0,0 231.78,-13.54 231.78,0 0,13.53 37.22,-52.45 89.67,-52.45 52.45,0 263.93,103.2 263.93,103.2l20.3 -64.29 284.23 -38.91 13.53 451.72 -155.65 -13.54 -25.38 -38.91 -64.29 38.91c0,0 -6.77,50.76 -20.3,64.29 -13.53,13.54 -52.45,25.38 -52.45,25.38 0,0 -52.45,52.45 -77.83,52.45 -25.38,0 -89.67,54.14 -116.74,54.14 -27.07,0 -77.83,10.15 -128.58,-15.23 -52.45,-25.38 -323.14,-258.85 -323.14,-258.85l-37.22 40.6 -142.12 0 -10.15 -451.72z"/>
   <path class="fil2" d="M1693.54 1317.95c18.61,-6.77 35.53,-21.99 43.99,-40.61l5.08 -10.15 11.84 1.69c16.92,3.38 35.53,0 52.45,-8.46 16.92,-8.46 28.76,-20.3 33.84,-35.53l3.38 -10.15 10.15 0c16.92,1.69 32.15,-5.08 47.37,-16.92 23.69,-20.3 30.45,-50.76 16.92,-79.52l0 0c-21.99,-45.68 -104.89,-113.35 -186.1,-179.33 -45.68,-37.22 -89.67,-72.75 -116.74,-99.82 -3.39,-3.39 -6.77,-3.39 -10.15,-1.69 -15.23,5.08 -25.38,10.15 -33.84,13.53l-1.69 0c-13.54,6.77 -20.3,8.46 -38.91,10.15 -3.38,0 -5.08,1.69 -6.77,5.08 -30.45,45.68 -69.37,60.91 -113.35,45.68 -11.84,-3.39 -16.92,-10.15 -20.3,-20.3 -6.77,-30.45 25.38,-87.98 59.22,-121.81 38.91,-40.6 72.75,-69.37 109.97,-81.21 35.53,-11.84 71.06,-6.77 120.12,15.23 99.82,45.68 199.64,79.52 201.33,81.21 5.08,1.69 10.15,-1.69 11.84,-6.77 1.69,-5.08 -1.69,-10.15 -6.77,-11.84 -1.69,0 -101.51,-35.53 -199.64,-79.52 -106.59,-47.37 -164.11,-16.92 -250.39,69.37 -30.45,30.45 -74.44,96.44 -64.29,140.42 3.38,16.92 15.23,28.76 32.15,33.84 50.76,16.92 94.74,1.69 130.27,-45.68l3.38 -5.08 6.77 -1.69c13.53,-1.69 21.99,-5.08 33.84,-10.15 5.08,-1.69 10.15,-5.08 18.61,-8.46l8.46 -3.39 6.77 6.77c28.76,27.07 69.37,59.22 106.59,91.36 77.83,64.29 159.03,130.27 179.34,172.57 10.15,20.3 5.08,42.3 -11.84,55.83 -15.23,13.54 -35.53,16.92 -49.06,6.77 -3.38,-1.69 -6.77,-1.69 -10.15,0 -3.38,1.69 -5.08,5.08 -5.08,10.15 1.69,16.92 -8.46,33.84 -27.07,43.99 -20.3,10.15 -43.99,10.15 -55.83,-1.69 -3.39,-3.38 -6.77,-3.38 -10.15,-1.69 -3.39,1.69 -5.08,5.08 -6.77,8.46 -1.69,21.99 -18.61,42.3 -38.91,50.76 -16.92,6.77 -32.15,3.39 -43.99,-6.77 -1.69,-1.69 -5.08,-3.38 -8.46,-1.69 -3.39,0 -5.08,3.38 -6.77,6.77l0 0c-6.77,16.92 -25.38,18.61 -40.6,18.61 -20.3,0 -52.45,-11.84 -69.37,-23.69 -18.61,-11.84 -128.58,-94.74 -225.02,-175.95 -13.53,-11.84 -37.22,-37.22 -57.52,-57.52 -16.92,-18.61 -33.84,-35.53 -42.3,-42.3 -1.69,-1.69 -3.38,-1.69 -6.77,-1.69 0,0 0,0 0,0 -3.39,0 -5.08,1.69 -6.77,3.39 -1.69,1.69 -3.38,5.08 -1.69,6.77 0,3.39 1.69,5.08 3.38,6.77 6.77,6.77 20.3,20.3 35.53,35.53l5.08 6.77c21.99,23.69 43.99,47.37 59.22,59.22 93.05,77.83 204.71,162.42 226.71,175.95 16.92,10.15 52.45,27.07 81.21,27.07 20.3,0 37.22,-5.08 47.37,-13.53l6.77 -5.08 8.46 3.38c15.22,1.69 30.44,1.69 45.67,-3.38z"/>
   <path class="fil3 str0" d="M1693.54 1317.95c18.61,-6.77 35.53,-21.99 43.99,-40.61l5.08 -10.15 11.84 1.69c16.92,3.38 35.53,0 52.45,-8.46 16.92,-8.46 28.76,-20.3 33.84,-35.53l3.38 -10.15 10.15 0c16.92,1.69 32.15,-5.08 47.37,-16.92 23.69,-20.3 30.45,-50.76 16.92,-79.52l0 0c-21.99,-45.68 -104.89,-113.35 -186.1,-179.33 -45.68,-37.22 -89.67,-72.75 -116.74,-99.82 -3.39,-3.39 -6.77,-3.39 -10.15,-1.69 -15.23,5.08 -25.38,10.15 -33.84,13.53l-1.69 0c-13.54,6.77 -20.3,8.46 -38.91,10.15 -3.38,0 -5.08,1.69 -6.77,5.08 -30.45,45.68 -69.37,60.91 -113.35,45.68 -11.84,-3.39 -16.92,-10.15 -20.3,-20.3 -6.77,-30.45 25.38,-87.98 59.22,-121.81 38.91,-40.6 72.75,-69.37 109.97,-81.21 35.53,-11.84 71.06,-6.77 120.12,15.23 99.82,45.68 199.64,79.52 201.33,81.21 5.08,1.69 10.15,-1.69 11.84,-6.77 1.69,-5.08 -1.69,-10.15 -6.77,-11.84 -1.69,0 -101.51,-35.53 -199.64,-79.52 -106.59,-47.37 -164.11,-16.92 -250.39,69.37 -30.45,30.45 -74.44,96.44 -64.29,140.42 3.38,16.92 15.23,28.76 32.15,33.84 50.76,16.92 94.74,1.69 130.27,-45.68l3.38 -5.08 6.77 -1.69c13.53,-1.69 21.99,-5.08 33.84,-10.15 5.08,-1.69 10.15,-5.08 18.61,-8.46l8.46 -3.39 6.77 6.77c28.76,27.07 69.37,59.22 106.59,91.36 77.83,64.29 159.03,130.27 179.34,172.57 10.15,20.3 5.08,42.3 -11.84,55.83 -15.23,13.54 -35.53,16.92 -49.06,6.77 -3.38,-1.69 -6.77,-1.69 -10.15,0 -3.38,1.69 -5.08,5.08 -5.08,10.15 1.69,16.92 -8.46,33.84 -27.07,43.99 -20.3,10.15 -43.99,10.15 -55.83,-1.69 -3.39,-3.38 -6.77,-3.38 -10.15,-1.69 -3.39,1.69 -5.08,5.08 -6.77,8.46 -1.69,21.99 -18.61,42.3 -38.91,50.76 -16.92,6.77 -32.15,3.39 -43.99,-6.77 -1.69,-1.69 -5.08,-3.38 -8.46,-1.69 -3.39,0 -5.08,3.38 -6.77,6.77l0 0c-6.77,16.92 -25.38,18.61 -40.6,18.61 -20.3,0 -52.45,-11.84 -69.37,-23.69 -18.61,-11.84 -128.58,-94.74 -225.02,-175.95 -13.53,-11.84 -37.22,-37.22 -57.52,-57.52 -16.92,-18.61 -33.84,-35.53 -42.3,-42.3 -1.69,-1.69 -3.38,-1.69 -6.77,-1.69 0,0 0,0 0,0 -3.39,0 -5.08,1.69 -6.77,3.39 -1.69,1.69 -3.38,5.08 -1.69,6.77 0,3.39 1.69,5.08 3.38,6.77 6.77,6.77 20.3,20.3 35.53,35.53l5.08 6.77c21.99,23.69 43.99,47.37 59.22,59.22 93.05,77.83 204.71,162.42 226.71,175.95 16.92,10.15 52.45,27.07 81.21,27.07 20.3,0 37.22,-5.08 47.37,-13.53l6.77 -5.08 8.46 3.38c15.22,1.69 30.44,1.69 45.67,-3.38z"/>
   <path class="fil2" d="M1260.43 730.88l225.02 0c5.08,0 10.15,-5.08 10.15,-10.15 0,-5.08 -5.08,-10.15 -10.15,-10.15l-225.02 0c-5.08,0 -10.15,5.08 -10.15,10.15 0,5.08 5.08,10.15 10.15,10.15z"/>
   <path class="fil3 str0" d="M1260.43 730.88l225.02 0c5.08,0 10.15,-5.08 10.15,-10.15 0,-5.08 -5.08,-10.15 -10.15,-10.15l-225.02 0c-5.08,0 -10.15,5.08 -10.15,10.15 0,5.08 5.08,10.15 10.15,10.15z"/>
   <path class="fil2" d="M1994.69 1067.56c-1.69,-1.69 -3.39,-3.38 -6.77,-3.38 0,0 -1.69,0 -1.69,0 -1.69,0 -3.38,0 -5.08,1.69l-72.75 49.06c-1.69,1.69 -3.38,3.39 -3.38,6.77 0,3.38 0,5.08 1.69,6.77 1.69,3.38 5.08,5.08 8.46,5.08 1.69,0 3.38,0 5.08,-1.69l72.75 -49.06c3.39,-5.07 5.08,-11.84 1.69,-15.22z"/>
   <path class="fil3 str0" d="M1994.69 1067.56c-1.69,-1.69 -3.39,-3.38 -6.77,-3.38 0,0 -1.69,0 -1.69,0 -1.69,0 -3.38,0 -5.08,1.69l-72.75 49.06c-1.69,1.69 -3.38,3.39 -3.38,6.77 0,3.38 0,5.08 1.69,6.77 1.69,3.38 5.08,5.08 8.46,5.08 1.69,0 3.38,0 5.08,-1.69l72.75 -49.06c3.39,-5.07 5.08,-11.84 1.69,-15.22z"/>
   <path class="fil2" d="M1830.58 1206.29c1.69,1.69 3.38,1.69 6.77,1.69 3.38,0 5.08,-1.69 8.46,-3.39 1.69,-1.69 1.69,-5.08 1.69,-6.77 0,-3.39 -1.69,-5.08 -3.39,-6.77 -20.3,-15.23 -103.2,-101.51 -148.88,-150.57 -1.69,-1.69 -5.08,-3.39 -6.77,-3.39 0,0 0,0 0,0 -3.38,0 -5.08,1.69 -6.77,3.39 -1.69,1.69 -3.38,5.08 -3.38,6.77 0,3.39 1.69,5.08 3.38,6.77 57.52,64.29 130.27,137.04 148.88,152.27z"/>
   <path class="fil3 str0" d="M1830.58 1206.29c1.69,1.69 3.38,1.69 6.77,1.69 3.38,0 5.08,-1.69 8.46,-3.39 1.69,-1.69 1.69,-5.08 1.69,-6.77 0,-3.39 -1.69,-5.08 -3.39,-6.77 -20.3,-15.23 -103.2,-101.51 -148.88,-150.57 -1.69,-1.69 -5.08,-3.39 -6.77,-3.39 0,0 0,0 0,0 -3.38,0 -5.08,1.69 -6.77,3.39 -1.69,1.69 -3.38,5.08 -3.38,6.77 0,3.39 1.69,5.08 3.38,6.77 57.52,64.29 130.27,137.04 148.88,152.27z"/>
   <path class="fil2" d="M1603.88 1130.16c15.23,16.92 93.05,99.82 125.2,126.89 1.69,1.69 3.39,1.69 6.77,1.69 3.38,0 5.08,-1.69 8.46,-3.38 3.39,-3.39 3.39,-10.15 -1.69,-13.54 -30.45,-25.38 -106.59,-106.59 -123.51,-125.2 -1.69,-1.69 -5.08,-3.39 -6.77,-3.39 -1.69,0 -5.08,1.69 -6.77,3.39 -1.69,1.69 -3.38,3.38 -3.38,6.77 -1.69,1.69 -0,3.39 1.69,6.77l0 0z"/>
   <path class="fil3 str0" d="M1603.88 1130.16c15.23,16.92 93.05,99.82 125.2,126.89 1.69,1.69 3.39,1.69 6.77,1.69 3.38,0 5.08,-1.69 8.46,-3.38 3.39,-3.39 3.39,-10.15 -1.69,-13.54 -30.45,-25.38 -106.59,-106.59 -123.51,-125.2 -1.69,-1.69 -5.08,-3.39 -6.77,-3.39 -1.69,0 -5.08,1.69 -6.77,3.39 -1.69,1.69 -3.38,3.38 -3.38,6.77 -1.69,1.69 -0,3.39 1.69,6.77l0 0z"/>
   <path class="fil2" d="M1629.25 1306.11c1.69,1.69 5.08,1.69 6.77,1.69 3.38,0 5.08,-1.69 6.77,-3.39 3.38,-3.38 3.38,-10.15 -1.69,-13.53 -37.22,-30.45 -109.97,-109.97 -125.2,-125.2 -1.69,-1.69 -5.08,-3.39 -6.77,-3.39 0,0 0,0 0,0 -1.69,0 -5.08,1.69 -6.77,3.39 -3.38,3.38 -3.38,10.15 0,13.53 15.23,16.92 89.67,94.74 126.89,126.89z"/>
   <path class="fil3 str0" d="M1629.25 1306.11c1.69,1.69 5.08,1.69 6.77,1.69 3.38,0 5.08,-1.69 6.77,-3.39 3.38,-3.38 3.38,-10.15 -1.69,-13.53 -37.22,-30.45 -109.97,-109.97 -125.2,-125.2 -1.69,-1.69 -5.08,-3.39 -6.77,-3.39 0,0 0,0 0,0 -1.69,0 -5.08,1.69 -6.77,3.39 -3.38,3.38 -3.38,10.15 0,13.53 15.23,16.92 89.67,94.74 126.89,126.89z"/>
   <path class="fil2" d="M1248.59 683.51c-13.54,111.66 -74.44,309.61 -91.36,368.82l-3.38 10.15 -133.66 0 0 -433.11 16.92 1.69c76.13,6.77 169.19,20.3 204.71,37.22l10.15 5.08 -3.38 10.15zm18.61 -20.3l0 0c-30.45,-30.45 -157.34,-47.37 -257.16,-52.45 0,0 0,0 0,0 -3.38,0 -5.08,1.69 -6.77,3.39 -1.69,1.69 -3.38,5.08 -3.38,6.77l0 453.42c0,5.08 5.08,10.15 10.15,10.15l150.57 0c5.08,0 8.46,-3.38 8.46,-6.77 8.46,-28.76 89.67,-279.16 99.82,-404.35 1.69,-5.08 0,-8.46 -1.69,-10.15z"/>
   <path class="fil3 str0" d="M1248.59 683.51c-13.54,111.66 -74.44,309.61 -91.36,368.82l-3.38 10.15 -133.66 0 0 -433.11 16.92 1.69c76.13,6.77 169.19,20.3 204.71,37.22l10.15 5.08 -3.38 10.15zm18.61 -20.3l0 0c-30.45,-30.45 -157.34,-47.37 -257.16,-52.45 0,0 0,0 0,0 -3.38,0 -5.08,1.69 -6.77,3.39 -1.69,1.69 -3.38,5.08 -3.38,6.77l0 453.42c0,5.08 5.08,10.15 10.15,10.15l150.57 0c5.08,0 8.46,-3.38 8.46,-6.77 8.46,-28.76 89.67,-279.16 99.82,-404.35 1.69,-5.08 0,-8.46 -1.69,-10.15z"/>
   <path class="fil2" d="M1893.18 719.04c38.91,-13.54 123.51,-35.53 243.63,-38.91l15.23 0 0 433.11 -133.66 0 -3.38 -10.15c-23.69,-77.83 -94.74,-280.85 -131.96,-362.06l-6.77 -15.23 16.92 -6.77zm109.97 406.04c1.69,5.08 5.08,6.77 10.15,6.77l150.58 0c5.08,0 10.15,-5.08 10.15,-10.15l0 -451.72c0,-5.08 -5.08,-10.15 -10.15,-10.15 -187.8,0 -292.69,45.68 -304.53,50.76 -1.69,1.69 -5.08,3.39 -5.08,6.77 0,3.39 0,5.08 1.69,8.46 30.45,52.45 126.89,329.91 147.19,399.27z"/>
   <path class="fil3 str0" d="M1893.18 719.04c38.91,-13.54 123.51,-35.53 243.63,-38.91l15.23 0 0 433.11 -133.66 0 -3.38 -10.15c-23.69,-77.83 -94.74,-280.85 -131.96,-362.06l-6.77 -15.23 16.92 -6.77zm109.97 406.04c1.69,5.08 5.08,6.77 10.15,6.77l150.58 0c5.08,0 10.15,-5.08 10.15,-10.15l0 -451.72c0,-5.08 -5.08,-10.15 -10.15,-10.15 -187.8,0 -292.69,45.68 -304.53,50.76 -1.69,1.69 -5.08,3.39 -5.08,6.77 0,3.39 0,5.08 1.69,8.46 30.45,52.45 126.89,329.91 147.19,399.27z"/>
   <path class="fil4" d="M771.45 1888.79l4.41 -40.9 -1.77 0 -12.65 32.96 -43.84 76.8 -12.95 0 -46.2 -77.1 -12.95 -32.66 -1.47 0 5.89 40.61 0 107.11 -38.25 0 0 -205.98 36.78 0 55.03 94.16 9.71 23.54 1.18 0 8.83 -24.13 52.08 -93.58 36.49 0 0 205.98 -40.31 0 0 -106.82zm192.45 94.16c-5.89,4.71 -13.88,8.68 -23.98,11.92 -10.1,3.24 -20.84,4.85 -32.22,4.85 -23.74,0 -41.1,-6.92 -52.08,-20.75 -10.99,-13.83 -16.48,-32.81 -16.48,-56.94 0,-25.9 6.18,-45.32 18.54,-58.26 12.36,-12.95 29.72,-19.42 52.08,-19.42 7.45,0 14.71,0.98 21.78,2.94 7.06,1.96 13.34,5.2 18.83,9.71 5.49,4.51 9.91,10.59 13.24,18.24 3.34,7.65 5,17.17 5,28.54 0,4.12 -0.25,8.53 -0.74,13.24 -0.49,4.71 -1.23,9.61 -2.21,14.71l-87.99 0c0.59,12.36 3.78,21.68 9.51,27.96 5.79,6.28 15.11,9.42 28,9.42 8.04,0 15.2,-1.23 21.58,-3.68 6.33,-2.45 11.18,-4.95 14.52,-7.5l12.6 25.01zm-54.59 -107.99c-9.96,0 -17.36,2.99 -22.12,8.98 -4.76,5.98 -7.65,13.98 -8.63,23.98l54.44 0c0.79,-10.59 -0.83,-18.74 -4.81,-24.42 -4.02,-5.69 -10.3,-8.53 -18.88,-8.53zm202.6 107.99c-5.89,4.71 -13.88,8.68 -23.98,11.92 -10.1,3.24 -20.84,4.85 -32.22,4.85 -23.74,0 -41.1,-6.92 -52.08,-20.75 -10.99,-13.83 -16.48,-32.81 -16.48,-56.94 0,-25.9 6.18,-45.32 18.54,-58.26 12.36,-12.95 29.72,-19.42 52.08,-19.42 7.45,0 14.71,0.98 21.78,2.94 7.06,1.96 13.34,5.2 18.83,9.71 5.49,4.51 9.91,10.59 13.24,18.24 3.34,7.65 5,17.17 5,28.54 0,4.12 -0.25,8.53 -0.74,13.24 -0.49,4.71 -1.23,9.61 -2.21,14.71l-87.99 0c0.59,12.36 3.78,21.68 9.51,27.96 5.79,6.28 15.11,9.42 28,9.42 8.04,0 15.2,-1.23 21.58,-3.68 6.33,-2.45 11.18,-4.95 14.52,-7.5l12.6 25.01zm-54.59 -107.99c-9.96,0 -17.36,2.99 -22.12,8.98 -4.76,5.98 -7.65,13.98 -8.63,23.98l54.44 0c0.79,-10.59 -0.83,-18.74 -4.81,-24.42 -4.02,-5.69 -10.3,-8.53 -18.88,-8.53zm71.06 -26.48l20.3 0 0 -27.66 38.25 -10.89 0 38.55 35.9 0 0 32.37 -35.9 0 0 56.5c0,10.2 1.03,17.51 3.09,21.92 2.06,4.41 5.93,6.62 11.62,6.62 3.92,0 7.31,-0.39 10.15,-1.18 2.84,-0.78 6.03,-1.96 9.56,-3.53l6.77 29.43c-5.3,2.55 -11.48,4.71 -18.54,6.47 -7.06,1.77 -14.22,2.65 -21.48,2.65 -13.54,0 -23.49,-3.48 -29.87,-10.45 -6.38,-6.97 -9.56,-18.39 -9.56,-34.28l0 -74.15 -20.3 0 0 -32.37zm112.41 45.61l73.86 0 0 33.84 -73.86 0 0 -33.84zm219.52 -104.46l38.25 0 0 133.01c0,13.34 -1.77,24.82 -5.3,34.43 -3.53,9.61 -8.43,17.56 -14.71,23.84 -6.28,6.28 -13.93,10.89 -22.95,13.83 -9.02,2.94 -18.93,4.41 -29.72,4.41 -52.18,0 -78.27,-23.84 -78.27,-71.51l0 -138.01 40.31 0 0 130.06c0,8.04 0.74,14.86 2.21,20.45 1.47,5.59 3.78,10.1 6.92,13.54 3.14,3.43 7.06,5.89 11.77,7.36 4.71,1.47 10.2,2.21 16.48,2.21 12.36,0 21.28,-3.43 26.78,-10.3 5.49,-6.87 8.24,-17.95 8.24,-33.25l0 -130.06zm71.8 58.85l27.96 0 4.41 17.66 1.18 0c5.1,-7.45 11.13,-12.95 18.1,-16.48 6.96,-3.53 15.45,-5.3 25.45,-5.3 18.44,0 32.27,5.84 41.49,17.51 9.22,11.67 13.83,30.46 13.83,56.35 0,12.56 -1.47,23.88 -4.41,33.99 -2.94,10.1 -7.31,18.69 -13.09,25.75 -5.79,7.06 -12.85,12.46 -21.19,16.18 -8.34,3.73 -17.9,5.59 -28.69,5.59 -6.08,0 -11.08,-0.44 -15.01,-1.32 -3.92,-0.88 -7.85,-2.31 -11.77,-4.27l0 60.32 -38.25 0 0 -205.98zm65.62 28.25c-7.45,0 -13.29,1.86 -17.51,5.59 -4.22,3.73 -7.5,9.32 -9.86,16.77l0 61.21c2.75,2.16 5.74,3.87 8.98,5.15 3.24,1.27 7.5,1.91 12.8,1.91 10.98,0 19.22,-3.87 24.72,-11.62 5.49,-7.75 8.24,-20.55 8.24,-38.4 0,-12.95 -2.16,-22.95 -6.47,-30.01 -4.32,-7.06 -11.28,-10.59 -20.89,-10.59zm168.61 -87.1l122.12 0 0 35.9 -81.8 0 0 47.96 74.45 0 0 35.9 -74.45 0 0 50.32 83.28 0 0 35.9 -123.59 0 0 -205.98zm203.63 135.95l5 22.66 1.47 0 4.12 -23.25 25.01 -76.51 41.2 0 -61.5 148.6 -23.25 0 -63.85 -148.6 44.43 0 27.37 77.1zm205.1 57.38c-5.89,4.71 -13.88,8.68 -23.98,11.92 -10.1,3.24 -20.84,4.85 -32.22,4.85 -23.74,0 -41.1,-6.92 -52.08,-20.75 -10.99,-13.83 -16.48,-32.81 -16.48,-56.94 0,-25.9 6.18,-45.32 18.54,-58.26 12.36,-12.95 29.72,-19.42 52.08,-19.42 7.45,0 14.71,0.98 21.78,2.94 7.06,1.96 13.34,5.2 18.83,9.71 5.49,4.51 9.91,10.59 13.24,18.24 3.34,7.65 5,17.17 5,28.54 0,4.12 -0.25,8.53 -0.74,13.24 -0.49,4.71 -1.23,9.61 -2.21,14.71l-87.99 0c0.59,12.36 3.78,21.68 9.51,27.96 5.79,6.28 15.11,9.42 28,9.42 8.04,0 15.2,-1.23 21.58,-3.68 6.33,-2.45 11.18,-4.95 14.52,-7.5l12.6 25.01zm-54.59 -107.99c-9.96,0 -17.36,2.99 -22.12,8.98 -4.76,5.98 -7.65,13.98 -8.63,23.98l54.44 0c0.79,-10.59 -0.83,-18.74 -4.81,-24.42 -4.02,-5.69 -10.3,-8.53 -18.88,-8.53zm176.41 120.65l0 -83.57c0,-11.97 -1.72,-20.6 -5.15,-25.9 -3.43,-5.3 -9.27,-7.95 -17.51,-7.95 -7.26,0 -13.39,2.11 -18.39,6.33 -5,4.22 -8.58,9.47 -10.74,15.74l0 95.34 -38.25 0 0 -147.13 30.31 0 4.41 19.42 1.18 0c4.51,-6.28 10.5,-11.77 17.95,-16.48 7.45,-4.71 17.07,-7.06 28.84,-7.06 7.26,0 13.73,0.98 19.42,2.94 5.69,1.96 10.5,5.2 14.42,9.71 3.92,4.51 6.87,10.64 8.83,18.39 1.96,7.75 2.94,17.31 2.94,28.69l0 91.52 -38.25 0zm55.03 -147.13l20.3 0 0 -27.66 38.25 -10.89 0 38.55 35.9 0 0 32.37 -35.9 0 0 56.5c0,10.2 1.03,17.51 3.09,21.92 2.06,4.41 5.93,6.62 11.62,6.62 3.92,0 7.31,-0.39 10.15,-1.18 2.84,-0.78 6.03,-1.96 9.56,-3.53l6.77 29.43c-5.3,2.55 -11.48,4.71 -18.54,6.47 -7.06,1.77 -14.22,2.65 -21.48,2.65 -13.54,0 -23.49,-3.48 -29.87,-10.45 -6.38,-6.97 -9.56,-18.39 -9.56,-34.28l0 -74.15 -20.3 0 0 -32.37zm178.91 106.52c0,-3.92 -1.67,-7.06 -5,-9.42 -3.33,-2.35 -7.45,-4.51 -12.36,-6.47 -4.9,-1.96 -10.3,-3.97 -16.18,-6.03 -5.89,-2.06 -11.28,-4.9 -16.18,-8.53 -4.9,-3.63 -9.02,-8.24 -12.36,-13.83 -3.34,-5.59 -5,-12.8 -5,-21.63 0,-14.52 4.32,-25.6 12.95,-33.25 8.63,-7.65 21.09,-11.48 37.37,-11.48 11.18,0 21.28,1.18 30.31,3.53 9.02,2.35 16.09,5 21.19,7.95l-8.53 27.66c-4.51,-1.77 -10.2,-3.63 -17.07,-5.59 -6.87,-1.96 -13.83,-2.94 -20.89,-2.94 -11.38,0 -17.07,4.41 -17.07,13.24 0,3.53 1.67,6.38 5,8.53 3.33,2.16 7.45,4.17 12.36,6.03 4.9,1.86 10.3,3.87 16.18,6.03 5.89,2.16 11.28,4.95 16.18,8.39 4.9,3.43 9.02,7.9 12.36,13.39 3.34,5.49 5,12.55 5,21.19 0,14.91 -4.76,26.63 -14.27,35.16 -9.51,8.53 -23.79,12.8 -42.82,12.8 -10.4,0 -20.16,-1.32 -29.28,-3.97 -9.12,-2.65 -16.53,-5.74 -22.22,-9.27l10.59 -28.54c4.51,2.55 10.5,5.05 17.95,7.5 7.46,2.45 15.11,3.68 22.95,3.68 5.69,0 10.25,-1.08 13.68,-3.24 3.43,-2.16 5.15,-5.79 5.15,-10.89zm-2156.5 412.95c-6.28,4.46 -14.27,7.7 -23.98,9.61 -9.71,1.96 -19.67,2.94 -29.87,2.94 -12.36,0 -24.08,-1.91 -35.16,-5.74 -11.08,-3.83 -20.84,-10.01 -29.28,-18.54 -8.44,-8.53 -15.16,-19.62 -20.16,-33.25 -5,-13.64 -7.5,-30.16 -7.5,-49.58 0,-20.21 2.79,-37.13 8.39,-50.76 5.59,-13.63 12.85,-24.62 21.77,-32.96 8.93,-8.34 18.88,-14.32 29.87,-17.95 10.99,-3.63 21.97,-5.44 32.96,-5.44 11.77,0 21.73,0.78 29.87,2.35 8.14,1.57 14.86,3.43 20.16,5.59l-7.95 34.13c-4.51,-2.16 -9.86,-3.73 -16.04,-4.71 -6.18,-0.98 -13.68,-1.47 -22.51,-1.47 -16.28,0 -29.38,5.79 -39.28,17.41 -9.91,11.58 -14.86,29.57 -14.86,53.95 0,10.59 1.18,20.3 3.53,29.03 2.35,8.78 5.93,16.23 10.74,22.41 4.81,6.18 10.79,11.03 17.95,14.47 7.16,3.43 15.45,5.15 24.86,5.15 8.83,0 16.28,-0.88 22.36,-2.65 6.08,-1.77 11.38,-4.02 15.89,-6.77l8.24 32.76zm6.47 -65.13c0,-24.91 6.08,-44.09 18.24,-57.53 12.16,-13.44 29.23,-20.16 51.2,-20.16 11.77,0 21.97,1.86 30.6,5.59 8.63,3.73 15.79,8.97 21.48,15.74 5.69,6.77 9.96,14.96 12.8,24.57 2.84,9.61 4.27,20.21 4.27,31.78 0,24.91 -6.03,44.09 -18.1,57.53 -12.06,13.44 -29.08,20.16 -51.05,20.16 -11.77,0 -21.97,-1.86 -30.6,-5.59 -8.63,-3.73 -15.84,-8.98 -21.63,-15.74 -5.79,-6.77 -10.1,-14.96 -12.95,-24.57 -2.84,-9.61 -4.27,-20.2 -4.27,-31.78zm39.43 0c0,6.47 0.59,12.46 1.77,17.95 1.18,5.49 2.94,10.3 5.3,14.42 2.35,4.12 5.44,7.31 9.27,9.56 3.82,2.26 8.39,3.39 13.68,3.39 10.01,0 17.46,-3.63 22.36,-10.89 4.9,-7.26 7.36,-18.74 7.36,-34.43 0,-13.54 -2.26,-24.47 -6.77,-32.81 -4.51,-8.34 -12.16,-12.51 -22.95,-12.51 -9.42,0 -16.77,3.53 -22.07,10.59 -5.3,7.06 -7.95,18.64 -7.95,34.72zm215.69 73.57l0 -83.57c0,-11.97 -1.72,-20.6 -5.15,-25.9 -3.43,-5.3 -9.27,-7.95 -17.51,-7.95 -7.26,0 -13.39,2.11 -18.39,6.33 -5,4.22 -8.58,9.47 -10.74,15.74l0 95.34 -38.25 0 0 -147.13 30.31 0 4.41 19.42 1.18 0c4.51,-6.28 10.5,-11.77 17.95,-16.48 7.45,-4.71 17.07,-7.06 28.84,-7.06 7.26,0 13.73,0.98 19.42,2.94 5.69,1.96 10.5,5.2 14.42,9.71 3.92,4.51 6.87,10.64 8.83,18.39 1.96,7.75 2.94,17.31 2.94,28.69l0 91.52 -38.25 0zm195.39 -51.79c0,8.24 0.1,16.48 0.29,24.72 0.2,8.24 1.08,17.36 2.65,27.37l-27.37 0 -5.3 -19.13 -1.18 0c-3.92,6.87 -9.56,12.41 -16.92,16.63 -7.36,4.22 -16.04,6.33 -26.04,6.33 -18.44,0 -32.76,-6.08 -42.96,-18.24 -10.2,-12.16 -15.3,-31.19 -15.3,-57.09 0,-25.11 5.69,-44.63 17.07,-58.56 11.38,-13.93 28.05,-20.89 50.03,-20.89 6.08,0 11.08,0.34 15.01,1.03 3.92,0.69 7.85,1.81 11.77,3.38l0 -59.74 38.25 0 0 154.19zm-65.03 23.54c7.45,0 13.34,-1.82 17.66,-5.44 4.32,-3.63 7.36,-8.88 9.12,-15.74l0 -62.38c-2.75,-2.16 -5.79,-3.78 -9.12,-4.85 -3.34,-1.08 -7.65,-1.62 -12.95,-1.62 -10.79,0 -18.88,3.63 -24.28,10.89 -5.4,7.26 -8.09,19.72 -8.09,37.37 0,12.56 2.21,22.66 6.62,30.31 4.41,7.65 11.43,11.48 21.04,11.48zm135.36 -118.88l0 83.57c0,11.97 1.42,20.6 4.27,25.9 2.84,5.3 8.39,7.94 16.62,7.94 7.26,0 13.29,-2.16 18.1,-6.47 4.81,-4.32 8.39,-9.61 10.74,-15.89l0 -95.05 38.25 0 0 102.4c0,8.04 0.39,15.94 1.18,23.69 0.79,7.75 1.96,14.76 3.53,21.04l-28.84 0 -6.77 -21.78 -1.18 0c-4.51,7.45 -10.79,13.63 -18.83,18.54 -8.04,4.9 -17.56,7.36 -28.54,7.36 -7.45,0 -14.12,-0.98 -20.01,-2.94 -5.89,-1.96 -10.79,-5.2 -14.71,-9.71 -3.92,-4.51 -6.92,-10.59 -8.98,-18.24 -2.06,-7.65 -3.09,-17.26 -3.09,-28.84l0 -91.51 38.25 0zm225.7 138.01c-5.89,4.32 -13,7.6 -21.33,9.86 -8.34,2.26 -16.92,3.38 -25.75,3.38 -11.77,0 -21.73,-1.86 -29.87,-5.59 -8.14,-3.73 -14.76,-8.98 -19.86,-15.74 -5.1,-6.77 -8.78,-14.96 -11.03,-24.57 -2.26,-9.61 -3.38,-20.2 -3.38,-31.78 0,-24.91 5.59,-44.09 16.77,-57.53 11.18,-13.44 27.46,-20.16 48.85,-20.16 10.79,0 19.47,0.88 26.04,2.65 6.57,1.77 12.51,4.02 17.8,6.77l-9.12 31.19c-4.51,-2.16 -8.98,-3.83 -13.39,-5 -4.41,-1.18 -9.46,-1.77 -15.15,-1.77 -10.59,0 -18.64,3.48 -24.13,10.45 -5.49,6.96 -8.24,18.1 -8.24,33.4 0,6.28 0.69,12.06 2.06,17.36 1.37,5.3 3.43,9.91 6.18,13.83 2.75,3.92 6.33,7.01 10.74,9.27 4.41,2.26 9.56,3.38 15.45,3.38 6.47,0 11.97,-0.83 16.48,-2.5 4.51,-1.67 8.53,-3.68 12.06,-6.03l8.83 29.13zm7.94 -138.01l20.3 0 0 -27.66 38.25 -10.89 0 38.55 35.9 0 0 32.37 -35.9 0 0 56.5c0,10.2 1.03,17.51 3.09,21.92 2.06,4.41 5.93,6.62 11.62,6.62 3.92,0 7.31,-0.39 10.15,-1.18 2.84,-0.78 6.03,-1.96 9.56,-3.53l6.77 29.43c-5.3,2.55 -11.48,4.71 -18.54,6.47 -7.06,1.77 -14.22,2.65 -21.48,2.65 -13.54,0 -23.49,-3.48 -29.87,-10.45 -6.38,-6.97 -9.56,-18.39 -9.56,-34.28l0 -74.15 -20.3 0 0 -32.37zm234.23 134.48c-5.89,4.71 -13.88,8.68 -23.98,11.92 -10.1,3.24 -20.84,4.85 -32.22,4.85 -23.74,0 -41.1,-6.92 -52.08,-20.75 -10.99,-13.83 -16.48,-32.81 -16.48,-56.94 0,-25.9 6.18,-45.32 18.54,-58.26 12.36,-12.95 29.72,-19.42 52.08,-19.42 7.45,0 14.71,0.98 21.78,2.94 7.06,1.96 13.34,5.2 18.83,9.71 5.49,4.51 9.91,10.59 13.24,18.24 3.34,7.65 5,17.17 5,28.54 0,4.12 -0.25,8.53 -0.74,13.24 -0.49,4.71 -1.23,9.61 -2.21,14.71l-87.99 0c0.59,12.36 3.78,21.68 9.51,27.96 5.79,6.28 15.11,9.42 28,9.42 8.04,0 15.2,-1.23 21.58,-3.68 6.33,-2.45 11.18,-4.95 14.52,-7.5l12.6 25.01zm-54.59 -107.99c-9.96,0 -17.36,2.99 -22.12,8.98 -4.76,5.98 -7.65,13.98 -8.63,23.98l54.44 0c0.79,-10.59 -0.83,-18.74 -4.81,-24.42 -4.02,-5.69 -10.3,-8.53 -18.88,-8.53zm211.43 68.86c0,8.24 0.1,16.48 0.29,24.72 0.2,8.24 1.08,17.36 2.65,27.37l-27.37 0 -5.3 -19.13 -1.18 0c-3.92,6.87 -9.56,12.41 -16.92,16.63 -7.36,4.22 -16.04,6.33 -26.04,6.33 -18.44,0 -32.76,-6.08 -42.96,-18.24 -10.2,-12.16 -15.3,-31.19 -15.3,-57.09 0,-25.11 5.69,-44.63 17.07,-58.56 11.38,-13.93 28.05,-20.89 50.03,-20.89 6.08,0 11.08,0.34 15.01,1.03 3.92,0.69 7.85,1.81 11.77,3.38l0 -59.74 38.25 0 0 154.19zm-65.03 23.54c7.45,0 13.34,-1.82 17.66,-5.44 4.32,-3.63 7.36,-8.88 9.12,-15.74l0 -62.38c-2.75,-2.16 -5.79,-3.78 -9.12,-4.85 -3.34,-1.08 -7.65,-1.62 -12.95,-1.62 -10.79,0 -18.88,3.63 -24.28,10.89 -5.4,7.26 -8.09,19.72 -8.09,37.37 0,12.56 2.21,22.66 6.62,30.31 4.41,7.65 11.43,11.48 21.04,11.48zm220.11 -62.68l3.83 36.49 1.18 0 4.12 -37.08 35.9 -114.47 26.48 0 35.31 115.06 4.12 36.49 1.18 0 4.51 -37.08 25.5 -114.47 40.31 0 -56.79 207.45 -27.07 0 -36.78 -114.47 -5 -31.49 -1.47 0 -5 31.78 -36.49 114.17 -28.54 0 -56.5 -207.45 43.84 0 27.37 115.06zm176.56 17.36c0,-24.91 6.08,-44.09 18.24,-57.53 12.16,-13.44 29.23,-20.16 51.2,-20.16 11.77,0 21.97,1.86 30.6,5.59 8.63,3.73 15.79,8.97 21.48,15.74 5.69,6.77 9.96,14.96 12.8,24.57 2.84,9.61 4.27,20.21 4.27,31.78 0,24.91 -6.03,44.09 -18.1,57.53 -12.06,13.44 -29.08,20.16 -51.05,20.16 -11.77,0 -21.97,-1.86 -30.6,-5.59 -8.63,-3.73 -15.84,-8.98 -21.63,-15.74 -5.79,-6.77 -10.1,-14.96 -12.95,-24.57 -2.84,-9.61 -4.27,-20.2 -4.27,-31.78zm39.43 0c0,6.47 0.59,12.46 1.77,17.95 1.18,5.49 2.94,10.3 5.3,14.42 2.35,4.12 5.44,7.31 9.27,9.56 3.82,2.26 8.39,3.39 13.68,3.39 10.01,0 17.46,-3.63 22.36,-10.89 4.9,-7.26 7.36,-18.74 7.36,-34.43 0,-13.54 -2.26,-24.47 -6.77,-32.81 -4.51,-8.34 -12.16,-12.51 -22.95,-12.51 -9.42,0 -16.77,3.53 -22.07,10.59 -5.3,7.06 -7.95,18.64 -7.95,34.72zm206.87 -37.67c-6.08,-2.16 -11.58,-3.24 -16.48,-3.24 -6.87,0 -12.61,1.81 -17.22,5.44 -4.61,3.63 -7.7,8.29 -9.27,13.98l0 95.05 -38.25 0 0 -147.13 29.72 0 4.41 19.42 1.18 0c3.34,-7.26 7.85,-12.85 13.54,-16.77 5.69,-3.92 12.36,-5.89 20.01,-5.89 5.1,0 10.89,1.08 17.36,3.24l-5 35.9zm61.5 61.79c0,6.87 0.88,11.87 2.65,15.01 1.77,3.14 4.61,4.71 8.53,4.71 2.35,0 4.66,-0.19 6.92,-0.59 2.26,-0.39 5.05,-1.27 8.39,-2.65l4.12 30.01c-3.14,1.57 -7.95,3.14 -14.42,4.71 -6.47,1.57 -13.14,2.35 -20.01,2.35 -11.18,0 -19.72,-2.6 -25.6,-7.8 -5.89,-5.2 -8.83,-13.78 -8.83,-25.75l0 -176.56 38.25 0 0 156.55zm172.14 -2.35c0,8.24 0.1,16.48 0.29,24.72 0.2,8.24 1.08,17.36 2.65,27.37l-27.37 0 -5.3 -19.13 -1.18 0c-3.92,6.87 -9.56,12.41 -16.92,16.63 -7.36,4.22 -16.04,6.33 -26.04,6.33 -18.44,0 -32.76,-6.08 -42.96,-18.24 -10.2,-12.16 -15.3,-31.19 -15.3,-57.09 0,-25.11 5.69,-44.63 17.07,-58.56 11.38,-13.93 28.05,-20.89 50.03,-20.89 6.08,0 11.08,0.34 15.01,1.03 3.92,0.69 7.85,1.81 11.77,3.38l0 -59.74 38.25 0 0 154.19zm-65.03 23.54c7.45,0 13.34,-1.82 17.66,-5.44 4.32,-3.63 7.36,-8.88 9.12,-15.74l0 -62.38c-2.75,-2.16 -5.79,-3.78 -9.12,-4.85 -3.34,-1.08 -7.65,-1.62 -12.95,-1.62 -10.79,0 -18.88,3.63 -24.28,10.89 -5.4,7.26 -8.09,19.72 -8.09,37.37 0,12.56 2.21,22.66 6.62,30.31 4.41,7.65 11.43,11.48 21.04,11.48zm205.1 -118.88l26.78 75.33 5.3 24.42 1.18 0 4.12 -24.72 18.83 -75.04 35.02 0 -45.32 148.6 -28.25 0 -29.72 -82.39 -3.82 -18.54 -1.47 0 -3.53 18.83 -28.25 82.1 -29.13 0 -47.37 -148.6 41.49 0 21.48 73.86 3.53 26.19 1.47 0 5 -26.48 24.42 -73.56 28.25 0zm108.88 0l38.25 0 0 147.13 -38.25 0 0 -147.13zm-5.59 -41.49c0,-5.69 2.11,-10.55 6.33,-14.57 4.22,-4.02 10.05,-6.03 17.51,-6.03 7.45,0 13.49,2.01 18.1,6.03 4.61,4.02 6.92,8.88 6.92,14.57 0,5.69 -2.31,10.45 -6.92,14.27 -4.61,3.82 -10.64,5.74 -18.1,5.74 -7.45,0 -13.29,-1.91 -17.51,-5.74 -4.22,-3.83 -6.33,-8.58 -6.33,-14.27zm206.57 136.83c0,8.24 0.1,16.48 0.29,24.72 0.2,8.24 1.08,17.36 2.65,27.37l-27.37 0 -5.3 -19.13 -1.18 0c-3.92,6.87 -9.56,12.41 -16.92,16.63 -7.36,4.22 -16.04,6.33 -26.04,6.33 -18.44,0 -32.76,-6.08 -42.96,-18.24 -10.2,-12.16 -15.3,-31.19 -15.3,-57.09 0,-25.11 5.69,-44.63 17.07,-58.56 11.38,-13.93 28.05,-20.89 50.03,-20.89 6.08,0 11.08,0.34 15.01,1.03 3.92,0.69 7.85,1.81 11.77,3.38l0 -59.74 38.25 0 0 154.19zm-65.03 23.54c7.45,0 13.34,-1.82 17.66,-5.44 4.32,-3.63 7.36,-8.88 9.12,-15.74l0 -62.38c-2.75,-2.16 -5.79,-3.78 -9.12,-4.85 -3.34,-1.08 -7.65,-1.62 -12.95,-1.62 -10.79,0 -18.88,3.63 -24.28,10.89 -5.4,7.26 -8.09,19.72 -8.09,37.37 0,12.56 2.21,22.66 6.62,30.31 4.41,7.65 11.43,11.48 21.04,11.48zm216.28 15.59c-5.89,4.71 -13.88,8.68 -23.98,11.92 -10.1,3.24 -20.84,4.85 -32.22,4.85 -23.74,0 -41.1,-6.92 -52.08,-20.75 -10.99,-13.83 -16.48,-32.81 -16.48,-56.94 0,-25.9 6.18,-45.32 18.54,-58.26 12.36,-12.95 29.72,-19.42 52.08,-19.42 7.45,0 14.71,0.98 21.78,2.94 7.06,1.96 13.34,5.2 18.83,9.71 5.49,4.51 9.91,10.59 13.24,18.24 3.34,7.65 5,17.17 5,28.54 0,4.12 -0.25,8.53 -0.74,13.24 -0.49,4.71 -1.23,9.61 -2.21,14.71l-87.99 0c0.59,12.36 3.78,21.68 9.51,27.96 5.79,6.28 15.11,9.42 28,9.42 8.04,0 15.2,-1.23 21.58,-3.68 6.33,-2.45 11.18,-4.95 14.52,-7.5l12.6 25.01zm-54.59 -107.99c-9.96,0 -17.36,2.99 -22.12,8.98 -4.76,5.98 -7.65,13.98 -8.63,23.98l54.44 0c0.79,-10.59 -0.83,-18.74 -4.81,-24.42 -4.02,-5.69 -10.3,-8.53 -18.88,-8.53z"/>
  </g>
 </g>
</svg>
