<?xml version="1.0" encoding="utf-8"?>
<!-- Generator: Adobe Illustrator 22.1.0, SVG Export Plug-In . SVG Version: 6.00 Build 0)  -->
<svg version="1.1" id="Layer_1" xmlns="http://www.w3.org/2000/svg" xmlns:xlink="http://www.w3.org/1999/xlink" x="0px" y="0px"
	 viewBox="0 0 62.1 62.1" style="enable-background:new 0 0 62.1 62.1;" xml:space="preserve">
<style type="text/css">
	.st0{clip-path:url(#SVGID_2_);fill:#D52173;}
	.st1{clip-path:url(#SVGID_2_);fill:none;stroke:#FFFFFF;stroke-width:0.864;}
	.st2{clip-path:url(#SVGID_2_);fill:#FFFFFF;}
	.st3{fill:#FFFFFF;}
	.st4{clip-path:url(#SVGID_4_);fill:#FFFFFF;}
</style>
<g>
	<defs>
		<rect id="SVGID_1_" width="62.1" height="62.1"/>
	</defs>
	<clipPath id="SVGID_2_">
		<use xlink:href="#SVGID_1_"  style="overflow:visible;"/>
	</clipPath>
	<path class="st0" d="M31.1,61.7C48,61.7,61.7,48,61.7,31.1C61.7,14.1,48,0.4,31.1,0.4S0.4,14.1,0.4,31.1
		C0.4,48,14.1,61.7,31.1,61.7"/>
	<path class="st1" d="M31.1,61.7C48,61.7,61.7,48,61.7,31.1C61.7,14.1,48,0.4,31.1,0.4S0.4,14.1,0.4,31.1
		C0.4,48,14.1,61.7,31.1,61.7z"/>
	<path class="st2" d="M33.4,44.8L33.4,44.8L33.4,44.8c-1.5,1.5-5,2.4-9.2,2.4c-4.1,0-7.7-0.9-9.1-2.3l0,0l0,0
		c-0.1-0.3-0.5-3.5,1-6.1c1.1-1.8,2.8-2.8,5.1-2.9c1.5-0.1,5.8,0,6,0c2.4,0,4.2,1,5.2,3.1C33.7,41.3,33.6,44.5,33.4,44.8 M34,41.8
		C34,38,30.9,35,27.1,35h-5.9c-3.8,0-6.9,3-6.9,6.8v0l0,0c-0.5,2.5-0.2,3.4,0.1,3.7c2,1.9,6.5,2.6,9.8,2.6s7.8-0.7,9.8-2.6
		C34.2,45.3,34.5,44.4,34,41.8L34,41.8L34,41.8z"/>
	<path class="st2" d="M27.4,30.8c-0.9,0.9-2.1,1.4-3.3,1.4c-1.2,0-2.4-0.5-3.3-1.4c-0.9-0.9-1.4-2-1.4-3.3c0-1.2,0.5-2.4,1.4-3.3
		c0.9-0.9,2.1-1.4,3.3-1.4c1.2,0,2.4,0.5,3.3,1.4c0.9,0.9,1.4,2,1.4,3.3C28.8,28.7,28.3,29.9,27.4,30.8 M24.1,22
		c-3,0-5.5,2.5-5.5,5.5c0,3.1,2.4,5.5,5.5,5.5c1.5,0,2.9-0.6,4-1.7c1-1.1,1.6-2.4,1.5-3.9C29.6,24.4,27.2,22,24.1,22"/>
</g>
<path class="st3" d="M47.3,23.3H38L34.3,27v-3.7h-2.3v-8.4h15.2V23.3z M48.1,14h-17v10.1h2.3V29l4.8-4.8h9.9V14z"/>
<g>
	<defs>
		<rect id="SVGID_3_" width="62.1" height="62.1"/>
	</defs>
	<clipPath id="SVGID_4_">
		<use xlink:href="#SVGID_3_"  style="overflow:visible;"/>
	</clipPath>
	<path class="st4" d="M41.5,18L41.5,18c0-0.1,0-0.3,0-0.4c0-0.5-0.1-0.8-0.4-1c-0.3-0.3-0.7-0.4-1.2-0.4c-0.4,0-0.8,0.1-1.2,0.4l0,0
		c-0.2,0.2-0.4,0.5-0.5,0.9h0.9c0.1-0.2,0.1-0.3,0.2-0.4c0.1-0.2,0.4-0.4,0.6-0.4c0.2,0,0.4,0.1,0.4,0.1l0.1,0l0.1,0.1
		c0.1,0.2,0.2,0.3,0.2,0.5c0,0.3-0.1,0.5-0.2,0.6l-0.6,0.6c-0.1,0.1-0.1,0.2-0.2,0.2c-0.1,0.1-0.1,0.2-0.2,0.2c0,0.1,0,0.3,0,0.5
		v0.4h0.8v-0.3c0-0.2,0-0.4,0.2-0.6l0.7-0.7c0-0.1,0.1-0.2,0.2-0.3c0,0,0,0,0.1-0.1V18L41.5,18C41.4,18,41.5,18,41.5,18"/>
	<path class="st4" d="M40.2,21.9c0.1-0.1,0.1-0.2,0.1-0.4s0-0.3-0.1-0.4C40.2,21.1,40,21,39.9,21c-0.2,0-0.3,0-0.4,0.1
		c-0.1,0.1-0.1,0.2-0.1,0.4c0,0.2,0,0.3,0.1,0.4c0.1,0.1,0.2,0.1,0.4,0.1C40,22.1,40.2,22,40.2,21.9"/>
</g>
</svg>
